<svg width="4" height="6" viewBox="0 0 4 6" fill="none" xmlns="http://www.w3.org/2000/svg">
<path d="M2.19531 0C2.37211 3.77583e-05 2.542 0.0702796 2.66699 0.195312L3.80469 1.33301C3.92972 1.458 3.99996 1.62789 4 1.80469V4.66699C3.99991 4.84361 3.92953 5.01276 3.80469 5.1377C3.67966 5.26272 3.50982 5.33301 3.33301 5.33301H0.666992C0.490181 5.33301 0.320337 5.26272 0.195312 5.1377C0.0704667 5.01276 8.60776e-05 4.84361 0 4.66699V0.666992C0 0.490181 0.0702882 0.320337 0.195312 0.195312C0.320337 0.0702882 0.490181 0 0.666992 0H2.19531ZM2.5 2.66699C2.26926 2.66699 2.04342 2.73509 1.85156 2.86328C1.65981 2.99146 1.51015 3.17362 1.42188 3.38672C1.33363 3.59976 1.31057 3.83437 1.35547 4.06055C1.40047 4.28678 1.51173 4.49507 1.6748 4.6582C1.83797 4.82136 2.04615 4.93252 2.27246 4.97754C2.49871 5.02253 2.73316 4.99938 2.94629 4.91113C3.15943 4.82285 3.34154 4.67325 3.46973 4.48145C3.59792 4.28959 3.66699 4.06375 3.66699 3.83301C3.66691 3.52386 3.54371 3.22747 3.3252 3.00879C3.1064 2.79 2.80942 2.66699 2.5 2.66699ZM3.08398 3.54883L2.33301 4.29883L1.91699 3.88281L2.04883 3.75L2.33301 4.03418L2.95117 3.41699L3.08398 3.54883Z" fill="url(#paint0_linear_42_17)"/>
<defs>
<linearGradient id="paint0_linear_42_17" x1="2" y1="0" x2="2" y2="5.33301" gradientUnits="userSpaceOnUse">
<stop stop-color="#002B5A"/>
<stop offset="1" stop-color="#005CC0"/>
</linearGradient>
</defs>
</svg>
