<svg width="4" height="6" viewBox="0 0 4 6" fill="none" xmlns="http://www.w3.org/2000/svg">
<path d="M2.19531 0C2.37211 3.77583e-05 2.542 0.0702796 2.66699 0.195312L3.80469 1.33301C3.92972 1.458 3.99996 1.62789 4 1.80469V4.66699C3.99991 4.84361 3.92953 5.01276 3.80469 5.1377C3.67966 5.26272 3.50982 5.33301 3.33301 5.33301H0.666992C0.490181 5.33301 0.320337 5.26272 0.195312 5.1377C0.0704667 5.01276 8.60776e-05 4.84361 0 4.66699V0.666992C0 0.490181 0.0702882 0.320337 0.195312 0.195312C0.320337 0.0702882 0.490181 0 0.666992 0H2.19531ZM1.94141 3.95996C1.87031 3.95998 1.80223 3.98879 1.75195 4.03906C1.70177 4.08934 1.67285 4.15747 1.67285 4.22852V4.3623H3.01465V4.22852C3.01465 4.15746 2.98575 4.08934 2.93555 4.03906C2.88526 3.98877 2.81721 3.95997 2.74609 3.95996H1.94141ZM1.89355 1.67676C1.87738 1.68348 1.86297 1.69366 1.85059 1.70605L1.0918 2.46484C1.07948 2.47714 1.06922 2.49176 1.0625 2.50781C1.05577 2.52403 1.05176 2.54201 1.05176 2.55957C1.05178 2.57703 1.05583 2.59421 1.0625 2.61035C1.06923 2.62657 1.07937 2.64189 1.0918 2.6543L1.18652 2.74902C1.19886 2.76138 1.21338 2.77159 1.22949 2.77832C1.24571 2.78505 1.26369 2.78809 1.28125 2.78809C1.29867 2.78806 1.31593 2.78496 1.33203 2.77832C1.34825 2.77159 1.36357 2.76145 1.37598 2.74902L1.47168 2.6543L1.66016 2.84473L0.37207 4.13184C0.320141 4.18411 0.320042 4.27006 0.37207 4.32227C0.384476 4.3347 0.399794 4.34483 0.416016 4.35156C0.432079 4.35819 0.44942 4.36129 0.466797 4.36133C0.484359 4.36133 0.502333 4.35829 0.518555 4.35156C0.534683 4.34486 0.549169 4.33461 0.561523 4.32227L1.85059 3.0332L2.03906 3.22266L1.94531 3.31738C1.93259 3.32975 1.92293 3.34499 1.91602 3.36133C1.9091 3.37768 1.90527 3.39533 1.90527 3.41309C1.90529 3.43079 1.90912 3.44854 1.91602 3.46484C1.92288 3.48097 1.93278 3.49557 1.94531 3.50781L2.03906 3.60156C2.09136 3.65386 2.17719 3.65386 2.22949 3.60156L2.9873 2.84473C3.03957 2.79246 3.0395 2.7066 2.9873 2.6543L2.89355 2.55859C2.84127 2.5064 2.7554 2.50638 2.70312 2.55859L2.6084 2.6543L2.41895 2.46484C2.47119 2.41255 2.47121 2.3267 2.41895 2.27441C2.40661 2.26206 2.39209 2.25184 2.37598 2.24512C2.35975 2.23839 2.34178 2.23535 2.32422 2.23535C2.30682 2.23537 2.28952 2.2385 2.27344 2.24512C2.25722 2.25185 2.2419 2.26198 2.22949 2.27441L2.03906 2.08301L2.13477 1.99023C2.18701 1.93793 2.18704 1.85306 2.13477 1.80078L2.03906 1.70605C2.02668 1.69367 2.01227 1.68347 1.99609 1.67676C1.98002 1.67009 1.96271 1.66705 1.94531 1.66699C1.92775 1.66699 1.90978 1.67003 1.89355 1.67676Z" fill="url(#paint0_linear_42_24)"/>
<defs>
<linearGradient id="paint0_linear_42_24" x1="2" y1="0" x2="2" y2="5.33301" gradientUnits="userSpaceOnUse">
<stop stop-color="#002B5A"/>
<stop offset="1" stop-color="#005CC0"/>
</linearGradient>
</defs>
</svg>
