<svg width="3" height="4" viewBox="0 0 3 4" fill="none" xmlns="http://www.w3.org/2000/svg">
<path fill-rule="evenodd" clip-rule="evenodd" d="M2.44657 0.870178H2.12499C1.88681 0.870178 1.50787 0.988949 1.3801 1.37228C1.32168 1.54764 1.34558 1.6989 1.36981 1.85261C1.37195 1.86548 1.37399 1.87841 1.37592 1.89142C1.39918 2.04299 1.42201 2.22136 1.38932 2.47809H1.26744C1.23901 2.47809 1.21174 2.48938 1.19164 2.50949C1.17154 2.52959 1.16024 2.55685 1.16024 2.58528V2.90687C1.16024 2.9353 1.17154 2.96256 1.19164 2.98266C1.21174 3.00277 1.23901 3.01406 1.26744 3.01406H2.55377C2.5822 3.01406 2.60946 3.00277 2.62957 2.98266C2.64967 2.96256 2.66096 2.9353 2.66096 2.90687V2.58528C2.66096 2.55685 2.64967 2.52959 2.62957 2.50949C2.60946 2.48938 2.5822 2.47809 2.55377 2.47809H2.43521C2.41034 2.35546 2.33874 2.18674 2.16037 2.01115C2.14086 1.99186 2.12928 1.96967 2.12446 1.94769C2.23774 2.01854 2.35616 2.08081 2.47873 2.134C2.50804 2.14671 2.5405 2.15027 2.57187 2.14423C2.60323 2.13818 2.63204 2.12281 2.65453 2.10012L2.81286 1.9418C2.83916 1.91552 2.85554 1.88094 2.85921 1.84394C2.86289 1.80694 2.85363 1.76982 2.83301 1.73888L2.46308 1.18404L2.54241 1.0254C2.55059 1.00905 2.55447 0.990887 2.55366 0.972626C2.55285 0.954364 2.54738 0.936613 2.53778 0.921059C2.52818 0.905505 2.51476 0.892665 2.49879 0.883759C2.48283 0.874854 2.46485 0.870179 2.44657 0.870178ZM2.23219 1.62054C2.20376 1.62054 2.17649 1.60924 2.15639 1.58914C2.13628 1.56904 2.12499 1.54177 2.12499 1.51334C2.12499 1.48491 2.13628 1.45765 2.15639 1.43755C2.17649 1.41744 2.20376 1.40615 2.23219 1.40615C2.26061 1.40615 2.28788 1.41744 2.30798 1.43755C2.32809 1.45765 2.33938 1.48491 2.33938 1.51334C2.33938 1.54177 2.32809 1.56904 2.30798 1.58914C2.28788 1.60924 2.26061 1.62054 2.23219 1.62054Z" fill="url(#paint0_linear_41_10)"/>
<path d="M0.013767 0.696146L0.195055 0.309398H0.14502C0.135404 0.309398 0.126181 0.305324 0.119382 0.298071C0.112582 0.290818 0.108762 0.280981 0.108762 0.270723C0.108762 0.260466 0.112582 0.250629 0.119382 0.243376C0.126181 0.236123 0.135404 0.232049 0.14502 0.232049H0.202307C0.241259 0.186792 0.288196 0.150175 0.340433 0.124293C0.392669 0.0984111 0.449178 0.0837731 0.506725 0.081217L0.507596 0.0773496C0.507596 0.0568352 0.515236 0.037161 0.528835 0.0226552C0.542434 0.0081493 0.560879 0 0.580111 0C0.599343 0 0.617788 0.0081493 0.631387 0.0226552C0.644986 0.037161 0.652626 0.0568352 0.652626 0.0773496V0.081217C0.769822 0.0864153 0.880417 0.140497 0.960598 0.231817L1.0152 0.232049C1.02482 0.232049 1.03404 0.236123 1.04084 0.243376C1.04764 0.250629 1.05146 0.260466 1.05146 0.270723C1.05146 0.280981 1.04764 0.290818 1.04084 0.298071C1.03404 0.305324 1.02482 0.309398 1.0152 0.309398H0.965167L1.14645 0.696146H1.16023C1.16023 0.78123 1.06306 0.850845 0.942687 0.850845C0.822312 0.850845 0.725141 0.78123 0.725141 0.696146H0.738919L0.923833 0.302437C0.91925 0.299568 0.915313 0.29566 0.912303 0.290989C0.880234 0.250792 0.840558 0.218283 0.79588 0.195594C0.751202 0.172905 0.702531 0.16055 0.653061 0.15934L0.652626 1.00554H0.725141V1.08289H0.870172V1.16024H0.29005V1.08289H0.43508V1.00554H0.507596V0.15934C0.458685 0.160327 0.410547 0.172533 0.366453 0.195129C0.322359 0.217725 0.283341 0.250182 0.252052 0.290293C0.248701 0.296358 0.243862 0.301332 0.238057 0.30468L0.421303 0.696146H0.43508C0.43508 0.78123 0.33791 0.850845 0.217535 0.850845C0.0971595 0.850845 -1.0848e-05 0.78123 -1.0848e-05 0.696146H0.013767ZM0.797656 0.696146H1.08772L0.942687 0.391389L0.797656 0.696146ZM0.362565 0.696146L0.217535 0.391389L0.0725044 0.696146H0.362565Z" fill="url(#paint1_linear_41_10)"/>
<defs>
<linearGradient id="paint0_linear_41_10" x1="2.01012" y1="0.870178" x2="2.01012" y2="3.01406" gradientUnits="userSpaceOnUse">
<stop stop-color="#002B5A"/>
<stop offset="1" stop-color="#005CC0"/>
</linearGradient>
<linearGradient id="paint1_linear_41_10" x1="0.580111" y1="0" x2="0.580111" y2="1.16024" gradientUnits="userSpaceOnUse">
<stop stop-color="#002B5A"/>
<stop offset="1" stop-color="#005CC0"/>
</linearGradient>
</defs>
</svg>
