<svg width="4" height="5" viewBox="0 0 4 5" fill="none" xmlns="http://www.w3.org/2000/svg">
<path d="M3.0545 0C3.04585 0 3.03756 0.00366368 3.03144 0.0101851C3.02533 0.0167065 3.02189 0.0255513 3.02189 0.034774C3.02189 0.0439966 3.02533 0.0528415 3.03144 0.0593629C3.03756 0.0658843 3.04585 0.0695479 3.0545 0.0695479H3.10341L2.9617 0.43224C2.95825 0.441166 2.95659 0.450758 2.95681 0.460407C2.95866 0.514388 2.98006 0.565501 3.01653 0.602993C3.05299 0.640485 3.10167 0.661434 3.15232 0.661434C3.20297 0.661434 3.25165 0.640485 3.28811 0.602993C3.32458 0.565501 3.34599 0.514388 3.34784 0.460407C3.34806 0.450758 3.34639 0.441166 3.34294 0.43224L3.20123 0.0695479H3.44579V0.834575H3.18493C3.15898 0.834575 3.1341 0.845566 3.11576 0.86513C3.09741 0.884695 3.08711 0.911229 3.08711 0.938897C3.08711 0.966565 3.09741 0.9931 3.11576 1.01266C3.1341 1.03223 3.15898 1.04322 3.18493 1.04322H3.77186C3.79781 1.04322 3.82269 1.03223 3.84104 1.01266C3.85938 0.9931 3.86969 0.966565 3.86969 0.938897C3.86969 0.911229 3.85938 0.884695 3.84104 0.86513C3.82269 0.845566 3.79781 0.834575 3.77186 0.834575H3.511V0.0695479H3.75556L3.61385 0.43224C3.6104 0.441166 3.60874 0.450758 3.60896 0.460407C3.61081 0.514388 3.63221 0.565501 3.66868 0.602993C3.70514 0.640485 3.75382 0.661434 3.80447 0.661434C3.85512 0.661434 3.9038 0.640485 3.94027 0.602993C3.97673 0.565501 3.99814 0.514388 3.99999 0.460407C4.00021 0.450758 3.99854 0.441166 3.9951 0.43224L3.85338 0.0695479H3.90229C3.91094 0.0695479 3.91924 0.0658843 3.92535 0.0593629C3.93147 0.0528415 3.9349 0.0439966 3.9349 0.034774C3.9349 0.0255513 3.93147 0.0167065 3.92535 0.0101851C3.91924 0.00366368 3.91094 0 3.90229 0H3.0545ZM3.15232 0.125186L3.26645 0.417288H3.03819L3.15232 0.125186ZM3.9186 0.417288H3.69035L3.80447 0.125186L3.9186 0.417288Z" fill="url(#paint0_linear_57_184)"/>
<path d="M0.541728 4.74647H2.39744C2.75919 4.74647 2.93917 4.56299 2.93917 4.19952V2.61288H1.67402C1.45035 2.61288 1.34552 2.50627 1.34552 2.2826V1H0.541728C0.181769 1 0 1.1852 0 1.54874V4.19952C0 4.5647 0.181769 4.74647 0.541728 4.74647ZM1.67931 2.37348H2.91994C2.90771 2.30183 2.85701 2.2319 2.77492 2.14631L1.81031 1.16604C1.72994 1.08216 1.65657 1.03146 1.58314 1.01916V2.27917C1.58314 2.34202 1.61639 2.37348 1.67931 2.37348Z" fill="url(#paint1_linear_57_184)"/>
<defs>
<linearGradient id="paint0_linear_57_184" x1="3.4784" y1="0" x2="3.4784" y2="1.04322" gradientUnits="userSpaceOnUse">
<stop stop-color="#002B5A"/>
<stop offset="1" stop-color="#005CC0"/>
</linearGradient>
<linearGradient id="paint1_linear_57_184" x1="1.46959" y1="1" x2="1.46959" y2="4.74647" gradientUnits="userSpaceOnUse">
<stop stop-color="#002B5A"/>
<stop offset="1" stop-color="#005CC0"/>
</linearGradient>
</defs>
</svg>
