<svg width="8" height="6" viewBox="0 0 8 6" fill="none" xmlns="http://www.w3.org/2000/svg">
<path d="M4.07611 3.99084C4.54105 3.99084 4.94105 3.57568 4.94105 3.03505C4.94105 2.50095 4.53895 2.10526 4.07611 2.10526C3.61337 2.10526 3.21116 2.50958 3.21116 3.03937C3.21116 3.57568 3.61116 3.99084 4.07611 3.99084ZM1.58716 4.04063C1.98937 4.04063 2.33979 3.67726 2.33979 3.208C2.33979 2.74316 1.98716 2.39926 1.58716 2.39926C1.18505 2.39926 0.830316 2.75179 0.832526 3.21242C0.832526 3.67726 1.18284 4.04063 1.58726 4.04063M0.380632 5.99326H2.024C1.79916 5.66673 2.07379 5.00937 2.53874 4.65042C2.29874 4.49042 1.98937 4.37147 1.58505 4.37147C0.609789 4.37137 0 5.09137 0 5.69042C0 5.88515 0.108105 5.99326 0.380632 5.99326ZM2.716 5.99326H5.43411C5.77358 5.99326 5.89474 5.89589 5.89474 5.70558C5.89474 5.14768 5.19621 4.37789 4.074 4.37789C2.95389 4.37789 2.25537 5.14768 2.25537 5.70568C2.25537 5.89589 2.37642 5.99326 2.716 5.99326Z" fill="url(#paint0_linear_43_32)"/>
<path d="M7.18304 1.26316L6.82119 0.561403H6.92106C6.94025 0.561403 6.95866 0.55401 6.97223 0.540849C6.98581 0.527689 6.99343 0.509839 6.99343 0.491228C6.99343 0.472616 6.98581 0.454767 6.97223 0.441606C6.95866 0.428446 6.94025 0.421052 6.92106 0.421052H6.80672C6.72897 0.338934 6.63529 0.272492 6.53103 0.225529C6.42676 0.178567 6.31397 0.152006 6.19911 0.147368L6.19738 0.140351C6.19738 0.103127 6.18213 0.0674287 6.15498 0.0411078C6.12784 0.0147869 6.09103 0 6.05264 0C6.01425 0 5.97744 0.0147869 5.9503 0.0411078C5.92315 0.0674287 5.9079 0.103127 5.9079 0.140351V0.147368C5.67399 0.156801 5.45324 0.254931 5.29321 0.420631L5.18422 0.421052C5.16503 0.421052 5.14662 0.428446 5.13305 0.441606C5.11947 0.454767 5.11185 0.472616 5.11185 0.491228C5.11185 0.509839 5.11947 0.527689 5.13305 0.540849C5.14662 0.55401 5.16503 0.561403 5.18422 0.561403H5.28409L4.92224 1.26316H4.89474C4.89474 1.41754 5.08869 1.54386 5.32896 1.54386C5.56922 1.54386 5.76317 1.41754 5.76317 1.26316H5.73567L5.36659 0.548772C5.37574 0.543567 5.38359 0.536475 5.3896 0.528C5.45361 0.455062 5.5328 0.396074 5.62197 0.354905C5.71115 0.313737 5.80829 0.291319 5.90703 0.289123L5.9079 1.82456H5.76317V1.96491H5.47369V2.10526H6.63159V1.96491H6.34211V1.82456H6.19738V0.289123C6.295 0.290913 6.39108 0.313062 6.47909 0.354062C6.5671 0.395063 6.64498 0.453955 6.70743 0.526736C6.71412 0.537741 6.72378 0.546767 6.73536 0.552842L6.36961 1.26316H6.34211C6.34211 1.41754 6.53606 1.54386 6.77632 1.54386C7.01659 1.54386 7.21054 1.41754 7.21054 1.26316H7.18304ZM5.61843 1.26316H5.03948L5.32896 0.710175L5.61843 1.26316ZM6.48685 1.26316L6.77632 0.710175L7.0658 1.26316H6.48685Z" fill="url(#paint1_linear_43_32)"/>
<defs>
<linearGradient id="paint0_linear_43_32" x1="2.94737" y1="2.10526" x2="2.94737" y2="5.99326" gradientUnits="userSpaceOnUse">
<stop stop-color="#002B5A"/>
<stop offset="1" stop-color="#005CC0"/>
</linearGradient>
<linearGradient id="paint1_linear_43_32" x1="6.05264" y1="0" x2="6.05264" y2="2.10526" gradientUnits="userSpaceOnUse">
<stop stop-color="#002B5A"/>
<stop offset="1" stop-color="#005CC0"/>
</linearGradient>
</defs>
</svg>
