<svg width="4" height="4" viewBox="0 0 4 4" fill="none" xmlns="http://www.w3.org/2000/svg">
<path d="M2.54545 1.63635C2.54545 1.53991 2.50714 1.44742 2.43895 1.37922C2.37075 1.31103 2.27826 1.27272 2.18182 1.27272H2.09091V1.18437C2.09091 1.13545 2.0533 1.09346 2.00437 1.09101C1.99208 1.09042 1.9798 1.09233 1.96827 1.09663C1.95674 1.10092 1.9462 1.10751 1.93729 1.116C1.92838 1.12449 1.92128 1.1347 1.91644 1.14601C1.91159 1.15733 1.90909 1.1695 1.90909 1.18181V1.27272H0.636364V1.18437C0.636364 1.13545 0.59875 1.09346 0.54983 1.09101C0.537538 1.09042 0.525254 1.09233 0.513722 1.09663C0.50219 1.10092 0.49165 1.10751 0.482741 1.116C0.473832 1.12449 0.466739 1.1347 0.461893 1.14601C0.457046 1.15733 0.454547 1.1695 0.454545 1.18181V1.27272H0.363636C0.267194 1.27272 0.174702 1.31103 0.106507 1.37922C0.0383116 1.44742 0 1.53991 0 1.63635V1.70454C0 1.71056 0.00239448 1.71634 0.00665667 1.72061C0.0109189 1.72487 0.0166996 1.72726 0.0227273 1.72726H2.52273C2.52875 1.72726 2.53454 1.72487 2.5388 1.72061C2.54306 1.71634 2.54545 1.71056 2.54545 1.70454V1.63635ZM0 3.27272C0 3.36916 0.0383116 3.46165 0.106507 3.52985C0.174702 3.59804 0.267194 3.63635 0.363636 3.63635H2.18182C2.27826 3.63635 2.37075 3.59804 2.43895 3.52985C2.50714 3.46165 2.54545 3.36916 2.54545 3.27272V1.92613C2.54545 1.92161 2.54366 1.91727 2.54046 1.91407C2.53727 1.91088 2.53293 1.90908 2.52841 1.90908H0.0170455C0.0125247 1.90908 0.00818915 1.91088 0.00499251 1.91407C0.00179586 1.91727 0 1.92161 0 1.92613V3.27272ZM1.95455 2.0909C1.98152 2.0909 2.00788 2.0989 2.0303 2.11388C2.05273 2.12886 2.07021 2.15016 2.08053 2.17508C2.09085 2.2 2.09355 2.22741 2.08829 2.25387C2.08303 2.28032 2.07004 2.30462 2.05097 2.32369C2.0319 2.34276 2.0076 2.35575 1.98115 2.36101C1.9547 2.36627 1.92728 2.36357 1.90236 2.35325C1.87744 2.34293 1.85615 2.32545 1.84116 2.30302C1.82618 2.2806 1.81818 2.25423 1.81818 2.22726C1.81818 2.1911 1.83255 2.15641 1.85812 2.13084C1.88369 2.10527 1.91838 2.0909 1.95455 2.0909ZM1.95455 2.54545C1.98152 2.54545 2.00788 2.55344 2.0303 2.56843C2.05273 2.58341 2.07021 2.60471 2.08053 2.62962C2.09085 2.65454 2.09355 2.68196 2.08829 2.70841C2.08303 2.73486 2.07004 2.75916 2.05097 2.77823C2.0319 2.7973 2.0076 2.81029 1.98115 2.81555C1.9547 2.82081 1.92728 2.81811 1.90236 2.80779C1.87744 2.79747 1.85615 2.77999 1.84116 2.75757C1.82618 2.73514 1.81818 2.70878 1.81818 2.68181C1.81818 2.64564 1.83255 2.61096 1.85812 2.58539C1.88369 2.55981 1.91838 2.54545 1.95455 2.54545ZM1.5 2.0909C1.52697 2.0909 1.55333 2.0989 1.57576 2.11388C1.59818 2.12886 1.61566 2.15016 1.62598 2.17508C1.6363 2.2 1.639 2.22741 1.63374 2.25387C1.62848 2.28032 1.61549 2.30462 1.59642 2.32369C1.57735 2.34276 1.55306 2.35575 1.5266 2.36101C1.50015 2.36627 1.47273 2.36357 1.44782 2.35325C1.4229 2.34293 1.4016 2.32545 1.38662 2.30302C1.37163 2.2806 1.36364 2.25423 1.36364 2.22726C1.36364 2.1911 1.378 2.15641 1.40358 2.13084C1.42915 2.10527 1.46383 2.0909 1.5 2.0909ZM1.5 2.54545C1.52697 2.54545 1.55333 2.55344 1.57576 2.56843C1.59818 2.58341 1.61566 2.60471 1.62598 2.62962C1.6363 2.65454 1.639 2.68196 1.63374 2.70841C1.62848 2.73486 1.61549 2.75916 1.59642 2.77823C1.57735 2.7973 1.55306 2.81029 1.5266 2.81555C1.50015 2.82081 1.47273 2.81811 1.44782 2.80779C1.4229 2.79747 1.4016 2.77999 1.38662 2.75757C1.37163 2.73514 1.36364 2.70878 1.36364 2.68181C1.36364 2.64564 1.378 2.61096 1.40358 2.58539C1.42915 2.55981 1.46383 2.54545 1.5 2.54545ZM1.5 2.99999C1.52697 2.99999 1.55333 3.00799 1.57576 3.02297C1.59818 3.03796 1.61566 3.05925 1.62598 3.08417C1.6363 3.10909 1.639 3.13651 1.63374 3.16296C1.62848 3.18941 1.61549 3.21371 1.59642 3.23278C1.57735 3.25185 1.55306 3.26484 1.5266 3.2701C1.50015 3.27536 1.47273 3.27266 1.44782 3.26234C1.4229 3.25202 1.4016 3.23454 1.38662 3.21211C1.37163 3.18969 1.36364 3.16332 1.36364 3.13635C1.36364 3.10019 1.378 3.0655 1.40358 3.03993C1.42915 3.01436 1.46383 2.99999 1.5 2.99999ZM1.04545 2.54545C1.07242 2.54545 1.09879 2.55344 1.12121 2.56843C1.14364 2.58341 1.16112 2.60471 1.17144 2.62962C1.18176 2.65454 1.18446 2.68196 1.1792 2.70841C1.17394 2.73486 1.16095 2.75916 1.14188 2.77823C1.12281 2.7973 1.09851 2.81029 1.07206 2.81555C1.04561 2.82081 1.01819 2.81811 0.99327 2.80779C0.968353 2.79747 0.947056 2.77999 0.932072 2.75757C0.917088 2.73514 0.909091 2.70878 0.909091 2.68181C0.909091 2.64564 0.923458 2.61096 0.949031 2.58539C0.974604 2.55981 1.00929 2.54545 1.04545 2.54545ZM1.04545 2.99999C1.07242 2.99999 1.09879 3.00799 1.12121 3.02297C1.14364 3.03796 1.16112 3.05925 1.17144 3.08417C1.18176 3.10909 1.18446 3.13651 1.1792 3.16296C1.17394 3.18941 1.16095 3.21371 1.14188 3.23278C1.12281 3.25185 1.09851 3.26484 1.07206 3.2701C1.04561 3.27536 1.01819 3.27266 0.99327 3.26234C0.968353 3.25202 0.947056 3.23454 0.932072 3.21211C0.917088 3.18969 0.909091 3.16332 0.909091 3.13635C0.909091 3.10019 0.923458 3.0655 0.949031 3.03993C0.974604 3.01436 1.00929 2.99999 1.04545 2.99999ZM0.590909 2.54545C0.617879 2.54545 0.644244 2.55344 0.666669 2.56843C0.689093 2.58341 0.706572 2.60471 0.716893 2.62962C0.727214 2.65454 0.729914 2.68196 0.724653 2.70841C0.719391 2.73486 0.706403 2.75916 0.687333 2.77823C0.668262 2.7973 0.643964 2.81029 0.617512 2.81555C0.59106 2.82081 0.563642 2.81811 0.538725 2.80779C0.513808 2.79747 0.492511 2.77999 0.477527 2.75757C0.462543 2.73514 0.454545 2.70878 0.454545 2.68181C0.454545 2.64564 0.468912 2.61096 0.494485 2.58539C0.520059 2.55981 0.554743 2.54545 0.590909 2.54545ZM0.590909 2.99999C0.617879 2.99999 0.644244 3.00799 0.666669 3.02297C0.689093 3.03796 0.706572 3.05925 0.716893 3.08417C0.727214 3.10909 0.729914 3.13651 0.724653 3.16296C0.719391 3.18941 0.706403 3.21371 0.687333 3.23278C0.668262 3.25185 0.643964 3.26484 0.617512 3.2701C0.59106 3.27536 0.563642 3.27266 0.538725 3.26234C0.513808 3.25202 0.492511 3.23454 0.477527 3.21211C0.462543 3.18969 0.454545 3.16332 0.454545 3.13635C0.454545 3.10019 0.468912 3.0655 0.494485 3.03993C0.520059 3.01436 0.554743 2.99999 0.590909 2.99999Z" fill="url(#paint0_linear_43_43)"/>
<path d="M3.98273 0.763636L3.75546 0.339394H3.81818C3.83024 0.339394 3.8418 0.334924 3.85032 0.326968C3.85885 0.319012 3.86364 0.308221 3.86364 0.29697C3.86364 0.285718 3.85885 0.274927 3.85032 0.266971C3.8418 0.259015 3.83024 0.254545 3.81818 0.254545H3.74637C3.69753 0.204901 3.63869 0.164734 3.5732 0.136343C3.50772 0.107952 3.43687 0.0918948 3.36473 0.0890909L3.36364 0.0848485C3.36364 0.0623453 3.35406 0.0407637 3.33701 0.0248515C3.31996 0.00893936 3.29684 0 3.27273 0C3.24862 0 3.2255 0.00893936 3.20845 0.0248515C3.1914 0.0407637 3.18182 0.0623453 3.18182 0.0848485V0.0890909C3.0349 0.0947931 2.89625 0.154118 2.79573 0.254291L2.72727 0.254545C2.71522 0.254545 2.70366 0.259015 2.69513 0.266971C2.68661 0.274927 2.68182 0.285718 2.68182 0.29697C2.68182 0.308221 2.68661 0.319012 2.69513 0.326968C2.70366 0.334924 2.71522 0.339394 2.72727 0.339394H2.79L2.56273 0.763636H2.54546C2.54546 0.85697 2.66727 0.933333 2.81818 0.933333C2.96909 0.933333 3.09091 0.85697 3.09091 0.763636H3.07364L2.84182 0.331758C2.84757 0.328611 2.8525 0.324324 2.85627 0.3192C2.89648 0.275106 2.94622 0.239445 3.00223 0.214557C3.05824 0.189668 3.11926 0.176116 3.18127 0.174788L3.18182 1.10303H3.09091V1.18788H2.90909V1.27273H3.63637V1.18788H3.45455V1.10303H3.36364V0.174788C3.42495 0.17587 3.4853 0.18926 3.54058 0.214047C3.59586 0.238834 3.64478 0.274437 3.684 0.318436C3.6882 0.325089 3.69427 0.330546 3.70155 0.334218L3.47182 0.763636H3.45455C3.45455 0.85697 3.57637 0.933333 3.72727 0.933333C3.87818 0.933333 4 0.85697 4 0.763636H3.98273ZM3 0.763636H2.63637L2.81818 0.429333L3 0.763636ZM3.54546 0.763636L3.72727 0.429333L3.90909 0.763636H3.54546Z" fill="url(#paint1_linear_43_43)"/>
<defs>
<linearGradient id="paint0_linear_43_43" x1="1.27273" y1="1.09091" x2="1.27273" y2="3.63635" gradientUnits="userSpaceOnUse">
<stop stop-color="#002B5A"/>
<stop offset="1" stop-color="#005CC0"/>
</linearGradient>
<linearGradient id="paint1_linear_43_43" x1="3.27273" y1="0" x2="3.27273" y2="1.27273" gradientUnits="userSpaceOnUse">
<stop stop-color="#002B5A"/>
<stop offset="1" stop-color="#005CC0"/>
</linearGradient>
</defs>
</svg>
