<svg width="24" height="24" viewBox="0 0 24 24" fill="none" xmlns="http://www.w3.org/2000/svg">
<path d="M3 14V10C3 6.229 3 4.343 4.172 3.172C5.344 2.001 7.229 2 11 2H13C16.771 2 18.657 2 19.828 3.172C20.999 4.344 21 6.229 21 10V14C21 17.771 21 19.657 19.828 20.828C18.656 21.999 16.771 22 13 22H11C7.229 22 5.343 22 4.172 20.828C3.001 19.656 3 17.771 3 14Z" stroke="black" stroke-width="1.5" stroke-linecap="round" stroke-linejoin="round"/>
<path d="M11.333 10.667C12.388 11.722 13.778 12.794 13.778 12.794L15.682 10.889C15.682 10.889 14.61 9.499 13.556 8.444C12.5 7.39 11.11 6.317 11.11 6.317L9.206 8.222C9.206 8.222 10.278 9.612 11.333 10.667ZM11.333 10.667L8 14M16 10.571L13.46 13.111M11.43 6L8.89 8.54M8 18H16" stroke="black" stroke-width="1.5" stroke-linecap="round" stroke-linejoin="round"/>
</svg>
