<svg width="20" height="13" viewBox="0 0 20 13" fill="none" xmlns="http://www.w3.org/2000/svg">
<path d="M8.50625 0.01875L6.90938 1.61562C6.43125 1.74687 5.9875 1.9875 5.6125 2.31875L4.78125 3.05937C4.4625 3.34375 4.04688 3.5 3.61875 3.5H3V7.5C3.6375 7.51875 4.24375 7.77812 4.69688 8.23125L5.80937 9.34375L6.02812 9.5625L6.87187 10.4062C7.06562 10.6 7.38438 10.6 7.57812 10.4062C7.63125 10.3531 7.67188 10.2906 7.69375 10.225C7.78125 9.98438 7.98438 9.80312 8.23438 9.74687C8.48438 9.69063 8.74688 9.76562 8.92813 9.95L9.26562 10.2812C9.62813 10.6438 10.2156 10.6438 10.575 10.2812C10.7437 10.1125 10.8344 9.89688 10.8438 9.675C10.8562 9.4 11.0188 9.15625 11.2688 9.0375C11.5188 8.91875 11.8094 8.94375 12.0312 9.10312C12.325 9.3125 12.7344 9.28438 12.9969 9.02188C13.2906 8.72813 13.2906 8.25312 12.9969 7.9625L10.6281 5.59375L9.50937 6.625C8.65625 7.4125 7.34688 7.425 6.47813 6.65312C5.4875 5.77187 5.46562 4.23438 6.42812 3.325L8.61875 1.25625C9.475 0.45 10.6062 0 11.7844 0C12.9125 0 14.0031 0.415625 14.8438 1.1625L15.7844 2H19.5C19.775 2 20 2.225 20 2.5V9C20 9.55313 19.5531 10 19 10H18C17.6313 10 17.3062 9.8 17.1344 9.5H14.4812C14.375 9.70938 14.2344 9.90938 14.0594 10.0844C13.525 10.6188 12.7844 10.8281 12.0906 10.7125C11.9781 10.9406 11.825 11.1531 11.6344 11.3438C10.7812 12.1969 9.44687 12.2812 8.49687 11.5969C7.7125 12.2469 6.54375 12.2063 5.80937 11.4688L4.96875 10.625L4.75 10.4062L3.6375 9.29375C3.46563 9.12187 3.24062 9.02188 3 9.00313C3 9.55313 2.55 10 2 10H1C0.446875 10 0 9.55313 0 9V2.5C0 2.225 0.225 2 0.5 2H3.61875C3.68125 2 3.74062 1.97812 3.78437 1.9375L4.6125 1.2C5.48438 0.428125 6.60625 0 7.77187 0H8.09375C8.23125 0 8.37188 0.00624995 8.50625 0.01875ZM17 8V3.5H15.5C15.3156 3.5 15.1375 3.43125 15.0031 3.30937L13.85 2.28438C13.2812 1.77813 12.5469 1.5 11.7844 1.5C10.9906 1.5 10.2281 1.80313 9.65 2.34688L7.45937 4.41563C7.1375 4.72188 7.14375 5.2375 7.475 5.53125C7.76562 5.79063 8.20625 5.78437 8.49063 5.52187L10.7375 3.44688C11.0406 3.16563 11.5156 3.18437 11.7969 3.49062C12.0781 3.79688 12.0594 4.26875 11.7531 4.55L11.7281 4.575L14.0531 6.9C14.3656 7.2125 14.5688 7.59687 14.6594 7.99687H16.9969L17 8ZM2 8.5C2 8.36739 1.94732 8.24021 1.85355 8.14645C1.75979 8.05268 1.63261 8 1.5 8C1.36739 8 1.24021 8.05268 1.14645 8.14645C1.05268 8.24021 1 8.36739 1 8.5C1 8.63261 1.05268 8.75979 1.14645 8.85355C1.24021 8.94732 1.36739 9 1.5 9C1.63261 9 1.75979 8.94732 1.85355 8.85355C1.94732 8.75979 2 8.63261 2 8.5ZM18.5 9C18.6326 9 18.7598 8.94732 18.8536 8.85355C18.9473 8.75979 19 8.63261 19 8.5C19 8.36739 18.9473 8.24021 18.8536 8.14645C18.7598 8.05268 18.6326 8 18.5 8C18.3674 8 18.2402 8.05268 18.1464 8.14645C18.0527 8.24021 18 8.36739 18 8.5C18 8.63261 18.0527 8.75979 18.1464 8.85355C18.2402 8.94732 18.3674 9 18.5 9Z" fill="black"/>
</svg>
