<svg width="22" height="22" viewBox="0 0 22 22" fill="none" xmlns="http://www.w3.org/2000/svg">
<path d="M5.99975 5V4C5.99975 2.586 5.99975 1.879 6.43975 1.44C6.87775 1 7.58475 1 8.99975 1H12.9997C14.4137 1 15.1207 1 15.5597 1.44C15.9997 1.878 15.9997 2.585 15.9997 4V5C15.9997 6.414 15.9997 7.121 15.5597 7.56C15.1217 8 14.4147 8 12.9997 8H11.9997L8.99975 10V8C7.58575 8 6.87875 8 6.43975 7.56C5.99975 7.122 5.99975 6.415 5.99975 5ZM2.58975 17.74C1.96075 18.162 0.312748 19.022 1.31675 20.098C1.80675 20.624 2.35375 21 3.03975 21H6.95975C7.64575 21 8.19275 20.624 8.68275 20.098C9.68675 19.022 8.03875 18.162 7.40975 17.741C6.69876 17.2582 5.85916 17.0001 4.99975 17.0001C4.14034 17.0001 3.30073 17.2572 2.58975 17.74ZM14.5897 17.74C13.9607 18.162 12.3127 19.022 13.3167 20.098C13.8067 20.624 14.3537 21 15.0397 21H18.9597C19.6457 21 20.1927 20.624 20.6827 20.098C21.6867 19.022 20.0387 18.162 19.4097 17.741C18.6988 17.2582 17.8592 17.0001 16.9997 17.0001C16.1403 17.0001 15.3007 17.2572 14.5897 17.74ZM6.99975 12.5C6.99975 13.0304 6.78903 13.5391 6.41396 13.9142C6.03889 14.2893 5.53018 14.5 4.99975 14.5C4.46931 14.5 3.96061 14.2893 3.58553 13.9142C3.21046 13.5391 2.99975 13.0304 2.99975 12.5C2.99975 11.9696 3.21046 11.4609 3.58553 11.0858C3.96061 10.7107 4.46931 10.5 4.99975 10.5C5.53018 10.5 6.03889 10.7107 6.41396 11.0858C6.78903 11.4609 6.99975 11.9696 6.99975 12.5ZM18.9997 12.5C18.9997 13.0304 18.789 13.5391 18.414 13.9142C18.0389 14.2893 17.5302 14.5 16.9997 14.5C16.4693 14.5 15.9606 14.2893 15.5855 13.9142C15.2105 13.5391 14.9997 13.0304 14.9997 12.5C14.9997 11.9696 15.2105 11.4609 15.5855 11.0858C15.9606 10.7107 16.4693 10.5 16.9997 10.5C17.5302 10.5 18.0389 10.7107 18.414 11.0858C18.789 11.4609 18.9997 11.9696 18.9997 12.5Z" stroke="black" stroke-width="1.5" stroke-linecap="round" stroke-linejoin="round"/>
</svg>
