<svg width="21" height="20" viewBox="0 0 21 20" fill="none" xmlns="http://www.w3.org/2000/svg">
<path fill-rule="evenodd" clip-rule="evenodd" d="M16.0241 16.6692C16.9403 16.6692 17.69 15.9237 17.69 15.0033C17.69 14.0871 16.9445 13.3375 16.0241 13.3375C15.1079 13.3375 14.3583 14.083 14.3583 15.0033C14.3583 15.9195 15.1038 16.6692 16.0241 16.6692ZM16.0241 15.8363C16.245 15.8363 16.4569 15.7485 16.6131 15.5923C16.7693 15.4361 16.8571 15.2242 16.8571 15.0033C16.8571 14.7824 16.7693 14.5706 16.6131 14.4144C16.4569 14.2582 16.245 14.1704 16.0241 14.1704C15.8032 14.1704 15.5914 14.2582 15.4352 14.4144C15.279 14.5706 15.1912 14.7824 15.1912 15.0033C15.1912 15.2242 15.279 15.4361 15.4352 15.5923C15.5914 15.7485 15.8032 15.8363 16.0241 15.8363Z" fill="black"/>
<path fill-rule="evenodd" clip-rule="evenodd" d="M16.1907 10.0058H15.7959C15.1379 10.0058 14.5882 10.4848 14.4883 11.1136C14.4291 11.1364 14.3705 11.1606 14.3125 11.1861C14.057 11.0039 13.745 10.9184 13.4323 10.9448C13.1196 10.9712 12.8264 11.1077 12.605 11.3302L12.3243 11.6109C12.1025 11.8326 11.9663 12.1257 11.94 12.4383C11.9136 12.7508 11.9987 13.0626 12.1802 13.3183C12.1547 13.3767 12.1305 13.4352 12.1078 13.4941C11.7985 13.5464 11.5177 13.7063 11.315 13.9456C11.1123 14.1849 11.0007 14.4881 11 14.8018V15.1966C11 15.8571 11.4806 16.4043 12.1078 16.5126C12.13 16.5703 12.1536 16.6275 12.1786 16.6842C11.9956 16.9408 11.9094 17.254 11.9355 17.5682C11.9616 17.8823 12.0982 18.177 12.321 18.4L12.5959 18.6748C13.064 19.1429 13.7953 19.1912 14.32 18.8148C14.3744 18.8397 14.4294 18.8628 14.4849 18.8839C14.5363 19.1958 14.6968 19.4792 14.9379 19.6837C15.179 19.8881 15.4848 20.0002 15.8009 20H16.1824C16.8487 20 17.3985 19.5136 17.5067 18.8756C17.5612 18.8539 17.615 18.8314 17.6683 18.8081C18.1914 19.1862 18.926 19.1396 19.4008 18.669L19.6682 18.4016C20.1388 17.931 20.1854 17.1939 19.8073 16.6692C19.8311 16.6153 19.8536 16.5614 19.8747 16.5076C20.1888 16.4562 20.4744 16.2947 20.6804 16.0521C20.8864 15.8095 20.9994 15.5015 20.9992 15.1832V14.8018C20.9992 14.1379 20.5152 13.5857 19.883 13.4858C19.8615 13.4298 19.8387 13.3742 19.8148 13.3192C20.1896 12.7986 20.1429 12.0698 19.6732 11.595L19.4 11.3218C19.177 11.099 18.8823 10.9624 18.5681 10.9364C18.254 10.9103 17.9408 10.9964 17.6842 11.1794C17.6275 11.1543 17.5703 11.1304 17.5126 11.1078C17.4601 10.7971 17.2989 10.5152 17.0579 10.3123C16.8169 10.1095 16.5116 9.99876 16.1966 10L16.1907 10.0058ZM15.2995 11.3385C15.2995 11.0645 15.5211 10.8429 15.7951 10.8429H16.1899C16.4648 10.8429 16.688 11.0661 16.688 11.341C16.688 11.5759 16.8537 11.775 17.0761 11.8516C17.2072 11.8966 17.3343 11.9496 17.4576 12.0107C17.6692 12.1148 17.929 12.0915 18.0956 11.9249C18.1893 11.8315 18.3161 11.7791 18.4484 11.7791C18.5806 11.7791 18.7074 11.8315 18.8011 11.9249L19.0751 12.1989C19.1691 12.2931 19.2219 12.4207 19.2219 12.5537C19.2219 12.6868 19.1691 12.8144 19.0751 12.9086C18.9077 13.076 18.8836 13.3358 18.9868 13.5482C19.0451 13.6687 19.0962 13.7928 19.1401 13.9205C19.2176 14.1454 19.4183 14.3137 19.6557 14.3137C19.933 14.3137 20.1579 14.5386 20.1579 14.8159V15.1974C20.1579 15.3313 20.1047 15.4597 20.0101 15.5543C19.9154 15.649 19.787 15.7022 19.6532 15.7022C19.415 15.7022 19.2134 15.8704 19.1351 16.0945C19.0918 16.2199 19.0412 16.3418 18.9835 16.4601C18.8794 16.6742 18.9027 16.9365 19.0718 17.1048C19.1188 17.1516 19.156 17.2072 19.1814 17.2685C19.2069 17.3297 19.22 17.3954 19.22 17.4617C19.22 17.528 19.2069 17.5937 19.1814 17.6549C19.156 17.7162 19.1188 17.7718 19.0718 17.8186L18.8044 18.086C18.7576 18.1329 18.702 18.1702 18.6407 18.1956C18.5795 18.221 18.5138 18.2341 18.4475 18.2341C18.3812 18.2341 18.3155 18.221 18.2543 18.1956C18.1931 18.1702 18.1374 18.1329 18.0906 18.086C17.9224 17.9177 17.66 17.8936 17.4459 17.9977C17.3277 18.0554 17.2058 18.1059 17.0803 18.1493C16.8554 18.2276 16.6872 18.4291 16.6872 18.6673C16.6872 18.8012 16.634 18.9296 16.5393 19.0242C16.4447 19.1189 16.3163 19.1721 16.1824 19.1721H15.8009C15.6677 19.1721 15.54 19.1192 15.4458 19.025C15.3516 18.9308 15.2987 18.803 15.2987 18.6698C15.2987 18.4325 15.1304 18.2309 14.9055 18.1543C14.7785 18.1107 14.6541 18.0595 14.5332 18.001C14.3208 17.8977 14.061 17.9219 13.8936 18.0885C13.7994 18.1825 13.6718 18.2352 13.5387 18.2352C13.4057 18.2352 13.2781 18.1825 13.1839 18.0885L12.9099 17.8144C12.8165 17.7208 12.7641 17.5939 12.7641 17.4617C12.7641 17.3295 12.8165 17.2026 12.9099 17.1089C13.0765 16.9424 13.0998 16.6825 12.9957 16.4709C12.9348 16.3472 12.8817 16.2198 12.8366 16.0895C12.76 15.8671 12.5609 15.7013 12.326 15.7013C12.194 15.7009 12.0676 15.6483 11.9743 15.5549C11.881 15.4616 11.8284 15.3352 11.8279 15.2032V14.8084C11.8279 14.5344 12.0495 14.3128 12.3235 14.3128C12.5584 14.3128 12.7566 14.1471 12.8324 13.9247C12.8778 13.7921 12.9315 13.6624 12.9932 13.5366C13.0964 13.3267 13.0731 13.0693 12.9074 12.9036C12.8145 12.8105 12.7623 12.6844 12.7623 12.5529C12.7623 12.4214 12.8145 12.2953 12.9074 12.2022L13.1881 11.9215C13.2811 11.8287 13.4072 11.7765 13.5387 11.7765C13.6702 11.7765 13.7963 11.8287 13.8894 11.9215C14.0551 12.0873 14.3125 12.1106 14.5224 12.0073C14.6473 11.9463 14.7767 11.8927 14.9105 11.8466C15.1329 11.7716 15.2987 11.5726 15.2987 11.3377L15.2995 11.3385Z" fill="black"/>
<path fill-rule="evenodd" clip-rule="evenodd" d="M4.29289 2.29289C4.48043 2.10536 4.73478 2 5 2H15C15.2652 2 15.5196 2.10536 15.7071 2.29289C15.8946 2.48043 16 2.73478 16 3V10H18V3C18 2.20435 17.6839 1.44129 17.1213 0.87868C16.5587 0.31607 15.7956 0 15 0H5C4.20435 0 3.44129 0.31607 2.87868 0.87868C2.31607 1.44129 2 2.20435 2 3V18H1C0.447715 18 0 18.4477 0 19C0 19.5523 0.447715 20 1 20H3H12V18H4V3C4 2.73478 4.10536 2.48043 4.29289 2.29289ZM12 13V15C11.4477 15 11 14.5523 11 14C11 13.4477 11.4477 13 12 13ZM14 10H12V11C11.4477 11 11 10.5523 11 10C11 9.44771 11.4477 9 12 9H13C13.5523 9 14 9.44771 14 10ZM7 5C6.44772 5 6 5.44772 6 6C6 6.55228 6.44772 7 7 7H8C8.55228 7 9 6.55228 9 6C9 5.44772 8.55228 5 8 5H7ZM12 5C11.4477 5 11 5.44772 11 6C11 6.55228 11.4477 7 12 7H13C13.5523 7 14 6.55228 14 6C14 5.44772 13.5523 5 13 5H12ZM7 9C6.44772 9 6 9.44771 6 10C6 10.5523 6.44772 11 7 11H8C8.55228 11 9 10.5523 9 10C9 9.44771 8.55228 9 8 9H7ZM7 13C6.44772 13 6 13.4477 6 14C6 14.5523 6.44772 15 7 15H8C8.55228 15 9 14.5523 9 14C9 13.4477 8.55228 13 8 13H7Z" fill="black"/>
</svg>
