<svg width="18" height="20" viewBox="0 0 18 20" fill="none" xmlns="http://www.w3.org/2000/svg">
<path d="M0.25 3C0.25 2.27065 0.539731 1.57118 1.05546 1.05546C1.57118 0.539731 2.27065 0.25 3 0.25H13C13.7293 0.25 14.4288 0.539731 14.9445 1.05546C15.4603 1.57118 15.75 2.27065 15.75 3V8.5C15.75 8.69891 15.671 8.88968 15.5303 9.03033C15.3897 9.17098 15.1989 9.25 15 9.25C14.8011 9.25 14.6103 9.17098 14.4697 9.03033C14.329 8.88968 14.25 8.69891 14.25 8.5V3C14.25 2.31 13.69 1.75 13 1.75H3C2.31 1.75 1.75 2.31 1.75 3V17C1.75 17.69 2.31 18.25 3 18.25H10.5C10.6989 18.25 10.8897 18.329 11.0303 18.4697C11.171 18.6103 11.25 18.8011 11.25 19C11.25 19.1989 11.171 19.3897 11.0303 19.5303C10.8897 19.671 10.6989 19.75 10.5 19.75H3C2.27065 19.75 1.57118 19.4603 1.05546 18.9445C0.539731 18.4288 0.25 17.7293 0.25 17V3Z" fill="black"/>
<path d="M15 11.25C15.1989 11.25 15.3897 11.329 15.5303 11.4697C15.671 11.6103 15.75 11.8011 15.75 12V12.418C16.777 12.456 17.75 13.213 17.75 14.333C17.75 14.5319 17.671 14.7227 17.5303 14.8633C17.3897 15.004 17.1989 15.083 17 15.083C16.8011 15.083 16.6103 15.004 16.4697 14.8633C16.329 14.7227 16.25 14.5319 16.25 14.333C16.25 14.191 16.088 13.917 15.669 13.917H14.163C14.0435 13.9138 13.9267 13.9535 13.834 14.029C13.766 14.089 13.75 14.146 13.75 14.183C13.7485 14.2333 13.7545 14.2835 13.768 14.332C13.7813 14.3418 13.7953 14.3505 13.81 14.358C13.85 14.378 13.91 14.402 14.003 14.43L16.421 15.131C16.697 15.213 17.051 15.349 17.329 15.644C17.629 15.964 17.75 16.374 17.75 16.817C17.75 17.884 16.794 18.583 15.837 18.583H15.75V19C15.75 19.1989 15.671 19.3897 15.5303 19.5303C15.3897 19.671 15.1989 19.75 15 19.75C14.8011 19.75 14.6103 19.671 14.4697 19.5303C14.329 19.3897 14.25 19.1989 14.25 19V18.582C13.223 18.544 12.25 17.787 12.25 16.667C12.25 16.4681 12.329 16.2773 12.4697 16.1367C12.6103 15.996 12.8011 15.917 13 15.917C13.1989 15.917 13.3897 15.996 13.5303 16.1367C13.671 16.2773 13.75 16.4681 13.75 16.667C13.75 16.809 13.912 17.083 14.331 17.083H15.837C15.9565 17.0862 16.0733 17.0465 16.166 16.971C16.234 16.911 16.25 16.854 16.25 16.817C16.2515 16.7667 16.2455 16.7165 16.232 16.668C16.2187 16.6582 16.2047 16.6495 16.19 16.642C16.15 16.622 16.09 16.598 15.997 16.57L13.579 15.869C13.303 15.787 12.949 15.651 12.671 15.356C12.371 15.036 12.25 14.626 12.25 14.183C12.25 13.116 13.206 12.417 14.163 12.417H14.25V12C14.25 11.8011 14.329 11.6103 14.4697 11.4697C14.6103 11.329 14.8011 11.25 15 11.25ZM3.25 9C3.25 8.80109 3.32902 8.61032 3.46967 8.46967C3.61032 8.32902 3.80109 8.25 4 8.25H4.5C4.69891 8.25 4.88968 8.32902 5.03033 8.46967C5.17098 8.61032 5.25 8.80109 5.25 9C5.25 9.19891 5.17098 9.38968 5.03033 9.53033C4.88968 9.67098 4.69891 9.75 4.5 9.75H4C3.80109 9.75 3.61032 9.67098 3.46967 9.53033C3.32902 9.38968 3.25 9.19891 3.25 9ZM6.25 9C6.25 8.80109 6.32902 8.61032 6.46967 8.46967C6.61032 8.32902 6.80109 8.25 7 8.25H12C12.1989 8.25 12.3897 8.32902 12.5303 8.46967C12.671 8.61032 12.75 8.80109 12.75 9C12.75 9.19891 12.671 9.38968 12.5303 9.53033C12.3897 9.67098 12.1989 9.75 12 9.75H7C6.80109 9.75 6.61032 9.67098 6.46967 9.53033C6.32902 9.38968 6.25 9.19891 6.25 9ZM3.25 12C3.25 11.8011 3.32902 11.6103 3.46967 11.4697C3.61032 11.329 3.80109 11.25 4 11.25H4.5C4.69891 11.25 4.88968 11.329 5.03033 11.4697C5.17098 11.6103 5.25 11.8011 5.25 12C5.25 12.1989 5.17098 12.3897 5.03033 12.5303C4.88968 12.671 4.69891 12.75 4.5 12.75H4C3.80109 12.75 3.61032 12.671 3.46967 12.5303C3.32902 12.3897 3.25 12.1989 3.25 12ZM6.25 12C6.25 11.8011 6.32902 11.6103 6.46967 11.4697C6.61032 11.329 6.80109 11.25 7 11.25H10.5C10.6989 11.25 10.8897 11.329 11.0303 11.4697C11.171 11.6103 11.25 11.8011 11.25 12C11.25 12.1989 11.171 12.3897 11.0303 12.5303C10.8897 12.671 10.6989 12.75 10.5 12.75H7C6.80109 12.75 6.61032 12.671 6.46967 12.5303C6.32902 12.3897 6.25 12.1989 6.25 12ZM3.25 15C3.25 14.8011 3.32902 14.6103 3.46967 14.4697C3.61032 14.329 3.80109 14.25 4 14.25H4.5C4.69891 14.25 4.88968 14.329 5.03033 14.4697C5.17098 14.6103 5.25 14.8011 5.25 15C5.25 15.1989 5.17098 15.3897 5.03033 15.5303C4.88968 15.671 4.69891 15.75 4.5 15.75H4C3.80109 15.75 3.61032 15.671 3.46967 15.5303C3.32902 15.3897 3.25 15.1989 3.25 15ZM6.25 15C6.25 14.8011 6.32902 14.6103 6.46967 14.4697C6.61032 14.329 6.80109 14.25 7 14.25H9C9.19891 14.25 9.38968 14.329 9.53033 14.4697C9.67098 14.6103 9.75 14.8011 9.75 15C9.75 15.1989 9.67098 15.3897 9.53033 15.5303C9.38968 15.671 9.19891 15.75 9 15.75H7C6.80109 15.75 6.61032 15.671 6.46967 15.5303C6.32902 15.3897 6.25 15.1989 6.25 15ZM3 4.5C3 4.034 3 3.801 3.076 3.617C3.17771 3.37246 3.37227 3.17826 3.617 3.077C3.801 3 4.034 3 4.5 3H11.5C11.966 3 12.199 3 12.383 3.076C12.6275 3.17771 12.8217 3.37227 12.923 3.617C13 3.801 13 4.034 13 4.5C13 4.966 13 5.199 12.924 5.383C12.8223 5.62754 12.6277 5.82174 12.383 5.923C12.199 6 11.966 6 11.5 6H4.5C4.034 6 3.801 6 3.617 5.924C3.37246 5.82229 3.17826 5.62773 3.077 5.383C3 5.199 3 4.966 3 4.5Z" fill="black"/>
</svg>
