<svg width="13" height="14" viewBox="0 0 13 14" fill="none" xmlns="http://www.w3.org/2000/svg">
<path d="M13 10.3599V13.72C13 13.7943 12.9693 13.8655 12.9146 13.918C12.8599 13.9705 12.7857 14 12.7083 14H10.6667C10.5893 14 10.5151 13.9705 10.4604 13.918C10.4057 13.8655 10.375 13.7943 10.375 13.72V11.8999C10.375 11.8628 10.3596 11.8272 10.3323 11.8009C10.3049 11.7747 10.2678 11.7599 10.2292 11.7599H8.77083C8.73216 11.7599 8.69506 11.7747 8.66771 11.8009C8.64036 11.8272 8.625 11.8628 8.625 11.8999V13.72C8.625 13.7943 8.59427 13.8655 8.53957 13.918C8.48487 13.9705 8.41069 14 8.33333 14H6.29167C6.21431 14 6.14013 13.9705 6.08543 13.918C6.03073 13.8655 6 13.7943 6 13.72V10.3599C6.00007 10.2114 6.06158 10.069 6.17099 9.964L9.08766 7.1639C9.19704 7.05895 9.34536 7 9.5 7C9.65464 7 9.80296 7.05895 9.91234 7.1639L12.829 9.964C12.9384 10.069 12.9999 10.2114 13 10.3599Z" fill="black"/>
<path fill-rule="evenodd" clip-rule="evenodd" d="M2 0C1.46957 0 0.960859 0.210715 0.585786 0.585788C0.210714 0.96086 0 1.46957 0 2V12C0 12.5304 0.210714 13.0391 0.585786 13.4142C0.960859 13.7893 1.46957 14 2 14H5V13H2C1.73478 13 1.48043 12.8946 1.29289 12.7071C1.10536 12.5196 1 12.2652 1 12V2C1 1.73478 1.10536 1.48043 1.29289 1.29289C1.48043 1.10536 1.73478 1 2 1H5V3.5C5 3.89783 5.15804 4.27936 5.43934 4.56066C5.72064 4.84197 6.10218 5 6.5 5H9V6H10V4.414C9.99965 4.01631 9.84139 3.63504 9.56 3.354L6.647 0.439001C6.50764 0.299734 6.34222 0.189284 6.16017 0.11396C5.97812 0.0386355 5.78302 -8.80058e-05 5.586 0H2ZM6.29167 14H6V13.72C6 13.7943 6.03073 13.8655 6.08543 13.918C6.14013 13.9705 6.21431 14 6.29167 14ZM8.793 4H6.5C6.36739 4 6.24021 3.94732 6.14645 3.85355C6.05268 3.75979 6 3.63261 6 3.5V1.207L8.793 4Z" fill="black"/>
</svg>
