<svg width="4" height="5" viewBox="0 0 4 5" fill="none" xmlns="http://www.w3.org/2000/svg">
<path d="M2.12207 4.21154L2.125 4.2965V4.30041L2.12207 4.30334L2.10156 4.31799L2.09863 4.31896L2.0957 4.31799L2.0752 4.30334L2.07324 4.30041L2.07227 4.2965L2.0752 4.21056L2.07617 4.20861C2.07721 4.20737 2.07904 4.20717 2.08105 4.20763L2.0957 4.21447L2.09863 4.21545L2.10254 4.21447L2.11621 4.20763H2.11914C2.12055 4.20801 2.12158 4.20957 2.12207 4.21154ZM2.06543 4.20373L2.06738 4.20568L2.06836 4.20861L2.06445 4.29455L2.06348 4.2965L2.06152 4.29748L2.02148 4.31701H2.01855C2.01644 4.31621 2.01576 4.31451 2.01562 4.31213L2.02246 4.18908L2.02344 4.18615L2.02539 4.18517H2.02832L2.06543 4.20373ZM2.17578 4.18908L2.18262 4.31213L2.18164 4.31506C2.18033 4.31672 2.17824 4.31763 2.17578 4.31701L2.13574 4.29845L2.13379 4.2965L2.13281 4.29455L2.12988 4.20861V4.20568L2.13184 4.20373L2.16895 4.18517H2.17188C2.17365 4.18565 2.17514 4.18679 2.17578 4.18908ZM2.7373 0.00255585C2.7853 0.00857241 2.83133 0.0257785 2.87109 0.0533371C2.91087 0.0809126 2.94334 0.117894 2.96582 0.160759C2.9883 0.203722 3.00002 0.251917 3 0.300407V1.40002L3.57324 1.54259C3.6379 1.55885 3.69525 1.59653 3.73633 1.64904C3.77744 1.7017 3.79974 1.76681 3.7998 1.83361V3.35607C3.85285 3.35607 3.9039 3.37716 3.94141 3.41467C3.97885 3.45216 4 3.50327 4 3.55627C3.9999 3.60908 3.9787 3.6595 3.94141 3.69689C3.9039 3.7344 3.85285 3.75549 3.7998 3.75549H0.200195C0.147152 3.75549 0.096101 3.7344 0.0585938 3.69689C0.0213007 3.6595 0.000102888 3.60908 0 3.55627C0 3.50327 0.0211475 3.45216 0.0585938 3.41467C0.096101 3.37716 0.147152 3.35607 0.200195 3.35607V1.81799C0.20016 1.76221 0.215794 1.70723 0.245117 1.65978C0.274432 1.61246 0.316404 1.5743 0.366211 1.54943L1 1.23205V0.824821C1.00007 0.763902 1.01902 0.704012 1.05371 0.653923C1.0884 0.604024 1.13746 0.565966 1.19434 0.544548L2.59473 0.0191574C2.64008 0.00216473 2.68924 -0.00341367 2.7373 0.00255585ZM0.599609 1.87951V3.35607H1V1.67931L0.599609 1.87951ZM3 3.35607H3.40039V1.91174L3 1.81213V3.35607ZM2.06934 0.827751C1.68853 0.827751 1.37903 1.13642 1.37891 1.5172C1.37891 1.89809 1.68845 2.20666 2.06934 2.20666C2.45005 2.20646 2.75879 1.89797 2.75879 1.5172C2.75866 1.13655 2.44998 0.827951 2.06934 0.827751Z" fill="#002B5A"/>
</svg>
