<svg width="4" height="3" viewBox="0 0 4 3" fill="none" xmlns="http://www.w3.org/2000/svg">
<path d="M3.63636 2.66667H4V3H0V2.66667H0.363636V0.166667C0.363636 0.122464 0.382792 0.0800716 0.41689 0.0488155C0.450987 0.0175595 0.497233 0 0.545455 0H2.36364C2.41186 0 2.4581 0.0175595 2.4922 0.0488155C2.5263 0.0800716 2.54545 0.122464 2.54545 0.166667V2.66667H2.90909V1H3.45455C3.50277 1 3.54901 1.01756 3.58311 1.04882C3.61721 1.08007 3.63636 1.12246 3.63636 1.16667V2.66667ZM1.09091 1.33333V1.66667H1.81818V1.33333H1.09091ZM1.09091 0.666667V1H1.81818V0.666667H1.09091Z" fill="url(#paint0_linear_28_254)"/>
<defs>
<linearGradient id="paint0_linear_28_254" x1="2" y1="0" x2="2" y2="3" gradientUnits="userSpaceOnUse">
<stop stop-color="#2974C7"/>
<stop offset="1" stop-color="#002B5A"/>
</linearGradient>
</defs>
</svg>
