<svg width="2" height="3" viewBox="0 0 2 3" fill="none" xmlns="http://www.w3.org/2000/svg">
<path d="M1 0V0.685547C1.00004 0.751239 1.02835 0.813897 1.07812 0.860352C1.12794 0.906839 1.19518 0.933594 1.26562 0.933594H2V2.08496C2 2.15071 1.97169 2.21425 1.92188 2.26074C1.87208 2.3071 1.80471 2.33301 1.73438 2.33301H1.16504C1.26996 2.19362 1.33301 2.0209 1.33301 1.83301C1.33287 1.37291 0.960153 1 0.5 1C0.312306 1 0.139312 1.06229 0 1.16699V0.248047C0 0.182298 0.0283106 0.118757 0.078125 0.0722656C0.127906 0.0259757 0.19534 0 0.265625 0H1ZM1.15625 0.0214844C1.18559 0.0338564 1.21253 0.0510746 1.23535 0.0722656L1.92188 0.713867C1.9445 0.735103 1.96333 0.759833 1.97656 0.787109H1.26562C1.20531 0.787109 1.15634 0.741822 1.15625 0.685547V0.0214844Z" fill="url(#paint0_linear_56_140)"/>
<path d="M0.500114 2.00825C0.452399 2.00825 0.406638 1.98982 0.372898 1.957C0.339159 1.92418 0.320204 1.87967 0.320204 1.83326C0.320204 1.78685 0.339159 1.74234 0.372898 1.70952C0.406638 1.6767 0.452399 1.65827 0.500114 1.65827C0.547828 1.65827 0.593589 1.6767 0.627329 1.70952C0.661068 1.74234 0.680023 1.78685 0.680023 1.83326C0.680023 1.87967 0.661068 1.92418 0.627329 1.957C0.593589 1.98982 0.547828 2.00825 0.500114 2.00825ZM0.882035 1.88176C0.884091 1.86576 0.885633 1.84976 0.885633 1.83326C0.885633 1.81676 0.884091 1.80026 0.882035 1.78326L0.990495 1.70177C1.00026 1.69427 1.00283 1.68077 0.996663 1.66977L0.893858 1.49677C0.88769 1.48577 0.873811 1.48127 0.862502 1.48577L0.73451 1.53577C0.70778 1.51627 0.680023 1.49927 0.647639 1.48677L0.62862 1.35428C0.627576 1.34839 0.624422 1.34305 0.619718 1.33921C0.615014 1.33536 0.609063 1.33326 0.602919 1.33328H0.397308C0.384458 1.33328 0.373663 1.34228 0.371607 1.35428L0.352588 1.48677C0.320204 1.49927 0.292447 1.51627 0.265717 1.53577L0.137725 1.48577C0.126416 1.48127 0.112537 1.48577 0.106369 1.49677L0.00356383 1.66977C-0.00311852 1.68077 -3.43525e-05 1.69427 0.00973215 1.70177L0.118192 1.78326C0.116136 1.80026 0.114594 1.81676 0.114594 1.83326C0.114594 1.84976 0.116136 1.86576 0.118192 1.88176L0.00973215 1.96476C-3.43525e-05 1.97226 -0.00311852 1.98575 0.00356383 1.99675L0.106369 2.16975C0.112537 2.18075 0.126416 2.18475 0.137725 2.18075L0.265717 2.13025C0.292447 2.15025 0.320204 2.16725 0.352588 2.17975L0.371607 2.31224C0.373663 2.32424 0.384458 2.33324 0.397308 2.33324H0.602919C0.61577 2.33324 0.626564 2.32424 0.62862 2.31224L0.647639 2.17975C0.680023 2.16675 0.70778 2.15025 0.73451 2.13025L0.862502 2.18075C0.873811 2.18475 0.88769 2.18075 0.893858 2.16975L0.996663 1.99675C1.00283 1.98575 1.00026 1.97226 0.990495 1.96476L0.882035 1.88176Z" fill="url(#paint1_linear_56_140)"/>
<defs>
<linearGradient id="paint0_linear_56_140" x1="1" y1="0" x2="1" y2="2.33301" gradientUnits="userSpaceOnUse">
<stop stop-color="#002B5A"/>
<stop offset="1" stop-color="#005CC0"/>
</linearGradient>
<linearGradient id="paint1_linear_56_140" x1="0.5" y1="1.33328" x2="0.5" y2="2.33324" gradientUnits="userSpaceOnUse">
<stop stop-color="#002B5A"/>
<stop offset="1" stop-color="#005CC0"/>
</linearGradient>
</defs>
</svg>
