<svg width="3" height="3" viewBox="0 0 3 3" fill="none" xmlns="http://www.w3.org/2000/svg">
<path d="M2.6129 0.967742C2.5008 0.939516 2.40825 0.875193 2.33525 0.774774C2.26225 0.674355 2.22577 0.562871 2.2258 0.440323V0.145161L2.6129 0L2.99999 0.145161V0.440323C2.99999 0.562903 2.96351 0.674403 2.89054 0.774823C2.81757 0.875242 2.72503 0.939548 2.6129 0.967742Z" fill="url(#paint0_linear_57_155)"/>
<path d="M1.35484 1.5271L1.76516 0.817742L1.93258 0.914516L1.42645 1.79032L0.796452 1.42742L0.334839 2.22581H1.93548V2.41935H0V0.677419H0.193548V2.08452L0.725806 1.16129L1.35484 1.5271Z" fill="url(#paint1_linear_57_155)"/>
<defs>
<linearGradient id="paint0_linear_57_155" x1="2.6129" y1="0" x2="2.6129" y2="0.967742" gradientUnits="userSpaceOnUse">
<stop stop-color="#002B5A"/>
<stop offset="1" stop-color="#005CC0"/>
</linearGradient>
<linearGradient id="paint1_linear_57_155" x1="0.967742" y1="0.677419" x2="0.967742" y2="2.41935" gradientUnits="userSpaceOnUse">
<stop stop-color="#002B5A"/>
<stop offset="1" stop-color="#005CC0"/>
</linearGradient>
</defs>
</svg>
