<svg width="2" height="2" viewBox="0 0 2 2" fill="none" xmlns="http://www.w3.org/2000/svg">
<path d="M0 0.166667C0 0.0746667 0.0746667 0 0.166667 0H1.45238C1.54438 0 1.61905 0.0746667 1.61905 0.166667V0.666667H1.33333C1.28282 0.666667 1.23437 0.686735 1.19865 0.722456C1.16293 0.758177 1.14286 0.806625 1.14286 0.857143V1.14286H0.166667C0.122464 1.14286 0.0800716 1.1253 0.0488155 1.09404C0.0175595 1.06279 0 1.02039 0 0.976191V0.166667ZM0.285714 0.214286C0.285714 0.23323 0.278189 0.251398 0.264793 0.264793C0.251398 0.278189 0.23323 0.285714 0.214286 0.285714H0.119048V0.428571H0.214286C0.271118 0.428571 0.325622 0.405995 0.365809 0.365809C0.405995 0.325622 0.428571 0.271118 0.428571 0.214286V0.119048H0.285714V0.214286ZM0.809524 0.809524C0.866356 0.809524 0.92086 0.786947 0.961047 0.746761C1.00123 0.706575 1.02381 0.65207 1.02381 0.595238C1.02381 0.538406 1.00123 0.483902 0.961047 0.443715C0.92086 0.403529 0.866356 0.380952 0.809524 0.380952C0.752692 0.380952 0.698187 0.403529 0.658001 0.443715C0.617815 0.483902 0.595238 0.538406 0.595238 0.595238C0.595238 0.65207 0.617815 0.706575 0.658001 0.746761C0.698187 0.786947 0.752692 0.809524 0.809524 0.809524ZM0.214286 0.857143C0.23323 0.857143 0.251398 0.864668 0.264793 0.878064C0.278189 0.891459 0.285714 0.909627 0.285714 0.928571V1.02381H0.428571V0.928571C0.428571 0.871739 0.405995 0.817235 0.365809 0.777049C0.325622 0.736862 0.271118 0.714286 0.214286 0.714286H0.119048V0.857143H0.214286ZM1.40476 0.285714C1.38582 0.285714 1.36765 0.278189 1.35425 0.264793C1.34086 0.251398 1.33333 0.23323 1.33333 0.214286V0.119048H1.19048V0.214286C1.19048 0.271118 1.21305 0.325622 1.25324 0.365809C1.29343 0.405995 1.34793 0.428571 1.40476 0.428571H1.5V0.285714H1.40476ZM0.228667 1.28571H1.14286V1.42857H0.47619C0.426022 1.42859 0.376734 1.41539 0.333283 1.39031C0.289833 1.36524 0.253751 1.32916 0.228667 1.28571ZM1.90476 0.47619V0.666667H1.7619V0.228667C1.80535 0.253751 1.84143 0.289833 1.86651 0.333283C1.89158 0.376734 1.90478 0.426022 1.90476 0.47619ZM1.38095 0.761905C1.34306 0.761905 1.30673 0.776956 1.27994 0.803747C1.25315 0.830538 1.2381 0.866874 1.2381 0.904762V1.66667C1.2381 1.70455 1.25315 1.74089 1.27994 1.76768C1.30673 1.79447 1.34306 1.80952 1.38095 1.80952H1.85714C1.89503 1.80952 1.93137 1.79447 1.95816 1.76768C1.98495 1.74089 2 1.70455 2 1.66667V0.904762C2 0.866874 1.98495 0.830538 1.95816 0.803747C1.93137 0.776956 1.89503 0.761905 1.85714 0.761905H1.38095ZM1.42857 1.19048H1.52381C1.53644 1.19048 1.54855 1.19549 1.55748 1.20442C1.56641 1.21335 1.57143 1.22547 1.57143 1.2381C1.57143 1.25072 1.56641 1.26284 1.55748 1.27177C1.54855 1.2807 1.53644 1.28571 1.52381 1.28571H1.42857C1.41594 1.28571 1.40383 1.2807 1.3949 1.27177C1.38597 1.26284 1.38095 1.25072 1.38095 1.2381C1.38095 1.22547 1.38597 1.21335 1.3949 1.20442C1.40383 1.19549 1.41594 1.19048 1.42857 1.19048ZM1.71429 1.19048H1.80952C1.82215 1.19048 1.83427 1.19549 1.8432 1.20442C1.85213 1.21335 1.85714 1.22547 1.85714 1.2381C1.85714 1.25072 1.85213 1.26284 1.8432 1.27177C1.83427 1.2807 1.82215 1.28571 1.80952 1.28571H1.71429C1.70166 1.28571 1.68954 1.2807 1.68061 1.27177C1.67168 1.26284 1.66667 1.25072 1.66667 1.2381C1.66667 1.22547 1.67168 1.21335 1.68061 1.20442C1.68954 1.19549 1.70166 1.19048 1.71429 1.19048ZM1.42857 1.38095H1.52381C1.53644 1.38095 1.54855 1.38597 1.55748 1.3949C1.56641 1.40383 1.57143 1.41594 1.57143 1.42857C1.57143 1.4412 1.56641 1.45331 1.55748 1.46224C1.54855 1.47117 1.53644 1.47619 1.52381 1.47619H1.42857C1.41594 1.47619 1.40383 1.47117 1.3949 1.46224C1.38597 1.45331 1.38095 1.4412 1.38095 1.42857C1.38095 1.41594 1.38597 1.40383 1.3949 1.3949C1.40383 1.38597 1.41594 1.38095 1.42857 1.38095ZM1.71429 1.38095H1.80952C1.82215 1.38095 1.83427 1.38597 1.8432 1.3949C1.85213 1.40383 1.85714 1.41594 1.85714 1.42857C1.85714 1.4412 1.85213 1.45331 1.8432 1.46224C1.83427 1.47117 1.82215 1.47619 1.80952 1.47619H1.71429C1.70166 1.47619 1.68954 1.47117 1.68061 1.46224C1.67168 1.45331 1.66667 1.4412 1.66667 1.42857C1.66667 1.41594 1.67168 1.40383 1.68061 1.3949C1.68954 1.38597 1.70166 1.38095 1.71429 1.38095ZM1.42857 1.57143H1.52381C1.53644 1.57143 1.54855 1.57645 1.55748 1.58538C1.56641 1.59431 1.57143 1.60642 1.57143 1.61905C1.57143 1.63168 1.56641 1.64379 1.55748 1.65272C1.54855 1.66165 1.53644 1.66667 1.52381 1.66667H1.42857C1.41594 1.66667 1.40383 1.66165 1.3949 1.65272C1.38597 1.64379 1.38095 1.63168 1.38095 1.61905C1.38095 1.60642 1.38597 1.59431 1.3949 1.58538C1.40383 1.57645 1.41594 1.57143 1.42857 1.57143ZM1.71429 1.57143H1.80952C1.82215 1.57143 1.83427 1.57645 1.8432 1.58538C1.85213 1.59431 1.85714 1.60642 1.85714 1.61905C1.85714 1.63168 1.85213 1.64379 1.8432 1.65272C1.83427 1.66165 1.82215 1.66667 1.80952 1.66667H1.71429C1.70166 1.66667 1.68954 1.66165 1.68061 1.65272C1.67168 1.64379 1.66667 1.63168 1.66667 1.61905C1.66667 1.60642 1.67168 1.59431 1.68061 1.58538C1.68954 1.57645 1.70166 1.57143 1.71429 1.57143ZM1.38095 0.952381C1.38095 0.939752 1.38597 0.927639 1.3949 0.918709C1.40383 0.909779 1.41594 0.904762 1.42857 0.904762H1.80952C1.82215 0.904762 1.83427 0.909779 1.8432 0.918709C1.85213 0.927639 1.85714 0.939752 1.85714 0.952381V1.04762C1.85714 1.06025 1.85213 1.07236 1.8432 1.08129C1.83427 1.09022 1.82215 1.09524 1.80952 1.09524H1.42857C1.41594 1.09524 1.40383 1.09022 1.3949 1.08129C1.38597 1.07236 1.38095 1.06025 1.38095 1.04762V0.952381Z" fill="url(#paint0_linear_56_143)"/>
<defs>
<linearGradient id="paint0_linear_56_143" x1="1" y1="0" x2="1" y2="1.80952" gradientUnits="userSpaceOnUse">
<stop stop-color="#002B5A"/>
<stop offset="1" stop-color="#005CC0"/>
</linearGradient>
</defs>
</svg>
