<svg width="3" height="3" viewBox="0 0 3 3" fill="none" xmlns="http://www.w3.org/2000/svg">
<path d="M1.59375 2.25H0.1875C0.137772 2.25 0.0900805 2.23025 0.0549175 2.19508C0.0197544 2.15992 0 2.11223 0 2.0625V0.1875C0 0.137772 0.0197544 0.0900805 0.0549175 0.0549175C0.0900805 0.0197544 0.137772 0 0.1875 0H2.8125C2.86223 0 2.90992 0.0197544 2.94508 0.0549175C2.98025 0.0900805 3 0.137772 3 0.1875V1.15969C2.8751 1.00062 2.69343 0.896127 2.49313 0.868167C2.29282 0.840206 2.08948 0.890948 1.92579 1.00974C1.76211 1.12853 1.65083 1.30612 1.61531 1.50522C1.57979 1.70432 1.6228 1.90944 1.73531 2.0775L1.64812 2.18437L1.59375 2.25ZM0.46875 0.5625V0.7125H2.0625V0.5625H0.46875ZM0.46875 1.0875H1.5V0.9375H0.46875V1.0875ZM0.46875 1.74375H1.40625V1.59375H0.46875V1.74375Z" fill="url(#paint0_linear_57_164)"/>
<path d="M2.98406 1.64906C2.98431 1.55021 2.96002 1.45285 2.91337 1.3657C2.86671 1.27855 2.79916 1.20434 2.71676 1.14974C2.63436 1.09514 2.53969 1.06184 2.44125 1.05284C2.34281 1.04384 2.24368 1.05942 2.15274 1.09817C2.0618 1.13693 1.98191 1.19765 1.92023 1.27489C1.85854 1.35214 1.817 1.44348 1.79932 1.54074C1.78164 1.638 1.78838 1.73812 1.81893 1.83213C1.84948 1.92614 1.90289 2.0111 1.97437 2.07938L1.7925 2.30156L1.87687 2.64L2.22 2.22188C2.32861 2.25399 2.4442 2.25399 2.55281 2.22188L2.89594 2.64L2.98031 2.30156L2.79844 2.07938C2.85692 2.02397 2.90354 1.95726 2.93545 1.88329C2.96736 1.80931 2.9839 1.72962 2.98406 1.64906ZM1.97719 1.64906C1.97607 1.5678 1.99915 1.48805 2.04348 1.41994C2.08781 1.35183 2.1514 1.29845 2.22616 1.26657C2.30091 1.2347 2.38346 1.22578 2.4633 1.24095C2.54313 1.25612 2.61666 1.29468 2.67452 1.35175C2.73238 1.40881 2.77196 1.4818 2.78823 1.56142C2.8045 1.64104 2.79672 1.7237 2.76588 1.79889C2.73505 1.87408 2.68255 1.9384 2.61506 1.98367C2.54757 2.02894 2.46814 2.05312 2.38687 2.05312C2.2792 2.05338 2.1758 2.01104 2.09922 1.93534C2.02264 1.85964 1.97911 1.75673 1.97812 1.64906H1.97719Z" fill="url(#paint1_linear_57_164)"/>
<defs>
<linearGradient id="paint0_linear_57_164" x1="1.5" y1="0" x2="1.5" y2="2.25" gradientUnits="userSpaceOnUse">
<stop stop-color="#002B5A"/>
<stop offset="1" stop-color="#005CC0"/>
</linearGradient>
<linearGradient id="paint1_linear_57_164" x1="2.38688" y1="1.05036" x2="2.38688" y2="2.64" gradientUnits="userSpaceOnUse">
<stop stop-color="#002B5A"/>
<stop offset="1" stop-color="#005CC0"/>
</linearGradient>
</defs>
</svg>
