<svg width="3" height="3" viewBox="0 0 3 3" fill="none" xmlns="http://www.w3.org/2000/svg">
<path d="M1.26103 2.08862L0.413793 2.48276L0.807931 1.63552L1.65517 1.24138M1.03448 0.827586C0.898633 0.827586 0.764113 0.854343 0.638603 0.906331C0.513094 0.958319 0.399054 1.03452 0.302993 1.13058C0.10899 1.32458 0 1.58771 0 1.86207C0 2.13643 0.10899 2.39955 0.302993 2.59356C0.399054 2.68962 0.513094 2.76582 0.638603 2.81781C0.764113 2.86979 0.898633 2.89655 1.03448 2.89655C1.30884 2.89655 1.57197 2.78756 1.76597 2.59356C1.95998 2.39955 2.06897 2.13643 2.06897 1.86207C2.06897 1.72622 2.04221 1.5917 1.99022 1.46619C1.93823 1.34068 1.86203 1.22664 1.76597 1.13058C1.66991 1.03452 1.55587 0.958319 1.43036 0.906331C1.30485 0.854343 1.17033 0.827586 1.03448 0.827586ZM1.03448 1.74828C1.0043 1.74828 0.975359 1.76026 0.954019 1.7816C0.932678 1.80294 0.92069 1.83189 0.92069 1.86207C0.92069 1.89225 0.932678 1.92119 0.954019 1.94253C0.975359 1.96387 1.0043 1.97586 1.03448 1.97586C1.06466 1.97586 1.09361 1.96387 1.11495 1.94253C1.13629 1.92119 1.14828 1.89225 1.14828 1.86207C1.14828 1.83189 1.13629 1.80294 1.11495 1.7816C1.09361 1.76026 1.06466 1.74828 1.03448 1.74828Z" fill="url(#paint0_linear_55_121)"/>
<path d="M2.98895 0.496551L2.84347 0.220689H2.88362C2.89134 0.220689 2.89874 0.217783 2.9042 0.212609C2.90965 0.207436 2.91272 0.200419 2.91272 0.193103C2.91272 0.185787 2.90965 0.17877 2.9042 0.173597C2.89874 0.168423 2.89134 0.165517 2.88362 0.165517H2.83766C2.8064 0.133236 2.76873 0.107117 2.72682 0.088656C2.6849 0.0701949 2.63955 0.0597538 2.59337 0.0579306L2.59268 0.0551719C2.59268 0.0405393 2.58655 0.026506 2.57563 0.0161591C2.56472 0.00581231 2.54992 -4.76837e-07 2.53449 -4.76837e-07C2.51905 -4.76837e-07 2.50425 0.00581231 2.49334 0.0161591C2.48243 0.026506 2.4763 0.0405393 2.4763 0.0551719V0.0579306C2.38225 0.0616384 2.29351 0.100214 2.22917 0.165351L2.18535 0.165517C2.17763 0.165517 2.17023 0.168423 2.16478 0.173597C2.15932 0.17877 2.15625 0.185787 2.15625 0.193103C2.15625 0.200419 2.15932 0.207436 2.16478 0.212609C2.17023 0.217783 2.17763 0.220689 2.18535 0.220689H2.2255L2.08003 0.496551H2.06897C2.06897 0.557241 2.14694 0.606896 2.24354 0.606896C2.34013 0.606896 2.41811 0.557241 2.41811 0.496551H2.40705L2.25867 0.215724C2.26235 0.213678 2.2655 0.21089 2.26792 0.207558C2.29365 0.178886 2.32549 0.155698 2.36134 0.139514C2.3972 0.123331 2.43625 0.114518 2.47595 0.113655L2.4763 0.717241H2.41811V0.772413H2.30173V0.827586H2.76725V0.772413H2.65087V0.717241H2.59268V0.113655C2.63192 0.114359 2.67055 0.123065 2.70594 0.139183C2.74132 0.1553 2.77263 0.178451 2.79774 0.207062C2.80043 0.211388 2.80431 0.214936 2.80897 0.217324L2.66192 0.496551H2.65087C2.65087 0.557241 2.72884 0.606896 2.82544 0.606896C2.92203 0.606896 3 0.557241 3 0.496551H2.98895ZM2.35992 0.496551H2.12716L2.24354 0.279172L2.35992 0.496551ZM2.70906 0.496551L2.82544 0.279172L2.94181 0.496551H2.70906Z" fill="url(#paint1_linear_55_121)"/>
<defs>
<linearGradient id="paint0_linear_55_121" x1="1.03448" y1="0.827586" x2="1.03448" y2="2.89655" gradientUnits="userSpaceOnUse">
<stop stop-color="#002B5A"/>
<stop offset="1" stop-color="#005CC0"/>
</linearGradient>
<linearGradient id="paint1_linear_55_121" x1="2.53449" y1="-4.76837e-07" x2="2.53449" y2="0.827586" gradientUnits="userSpaceOnUse">
<stop stop-color="#002B5A"/>
<stop offset="1" stop-color="#005CC0"/>
</linearGradient>
</defs>
</svg>
