<svg width="3" height="4" viewBox="0 0 3 4" fill="none" xmlns="http://www.w3.org/2000/svg">
<path d="M1.37305 0V1.30957C1.37319 1.53756 1.48083 1.64648 1.70898 1.64648H3V3.26562C3 3.63656 2.81642 3.82417 2.44727 3.82422H0.552734C0.185462 3.82414 0 3.63828 0 3.26562V0.560547C0 0.189566 0.185462 7.5828e-05 0.552734 0H1.37305ZM1.46777 2.14258C1.45986 2.15009 1.4552 2.1603 1.45508 2.1709C1.45508 2.18166 1.45974 2.19258 1.46777 2.2002C1.47578 2.20776 1.48674 2.21189 1.49805 2.21191H1.5625L1.37598 2.63477C1.37147 2.64514 1.36985 2.65675 1.37012 2.66797C1.37255 2.73097 1.40036 2.7912 1.44824 2.83496C1.4961 2.8786 1.56054 2.90234 1.62695 2.90234C1.69318 2.90225 1.75693 2.87845 1.80469 2.83496C1.85257 2.7912 1.88136 2.73097 1.88379 2.66797C1.88406 2.65675 1.88146 2.64514 1.87695 2.63477L1.69043 2.21191H2.01172V3.10449H1.66895C1.63504 3.1046 1.60211 3.11789 1.57812 3.14062C1.55423 3.16343 1.54102 3.19441 1.54102 3.22656C1.54102 3.25872 1.55423 3.2897 1.57812 3.3125C1.60211 3.33523 1.63504 3.34852 1.66895 3.34863H2.44043C2.47437 3.34855 2.50724 3.33526 2.53125 3.3125C2.55518 3.28969 2.56836 3.25874 2.56836 3.22656C2.56836 3.19439 2.55518 3.16344 2.53125 3.14062C2.50724 3.11787 2.47437 3.10458 2.44043 3.10449H2.09766V2.21191H2.41895L2.23242 2.63477C2.22791 2.64514 2.22629 2.65675 2.22656 2.66797C2.22899 2.73097 2.25681 2.7912 2.30469 2.83496C2.35242 2.87846 2.41621 2.90223 2.48242 2.90234C2.54881 2.90234 2.61328 2.87857 2.66113 2.83496C2.70901 2.7912 2.73683 2.73097 2.73926 2.66797C2.73953 2.65675 2.73791 2.64514 2.7334 2.63477L2.54688 2.21191H2.61133C2.62264 2.21191 2.63358 2.20775 2.6416 2.2002C2.64963 2.19258 2.6543 2.18166 2.6543 2.1709C2.65418 2.16029 2.64952 2.15009 2.6416 2.14258C2.63358 2.13499 2.62266 2.13086 2.61133 2.13086H1.49805C1.48672 2.13088 1.47578 2.13498 1.46777 2.14258ZM1.77637 2.61816H1.47656L1.62695 2.27637L1.77637 2.61816ZM2.63281 2.61816H2.33301L2.48242 2.27637L2.63281 2.61816ZM1.61621 0.0195312C1.69109 0.0321618 1.76571 0.0844081 1.84766 0.169922L2.83203 1.16992C2.91582 1.25728 2.96799 1.32921 2.98047 1.40234H1.71387C1.64981 1.40226 1.61623 1.3697 1.61621 1.30566V0.0195312Z" fill="url(#paint0_linear_57_156)"/>
<defs>
<linearGradient id="paint0_linear_57_156" x1="1.5" y1="0" x2="1.5" y2="3.82422" gradientUnits="userSpaceOnUse">
<stop stop-color="#2974C7"/>
<stop offset="1" stop-color="#002B5A"/>
</linearGradient>
</defs>
</svg>
