<svg width="3" height="4" viewBox="0 0 3 4" fill="none" xmlns="http://www.w3.org/2000/svg">
<path d="M0.954102 0C1.13478 0 1.30869 0.0715473 1.43652 0.199219C1.56435 0.327043 1.63667 0.500875 1.63672 0.681641V1.02246C1.63672 1.11288 1.6724 1.19974 1.73633 1.26367C1.80026 1.3276 1.88712 1.36328 1.97754 1.36328H2.31836C2.49912 1.36333 2.67296 1.43565 2.80078 1.56348C2.92845 1.69131 3 1.86522 3 2.0459V3.47754C2.99986 3.66557 2.84723 3.81831 2.65918 3.81836H0.34082C0.152768 3.81831 0.000144098 3.66557 0 3.47754V0.34082C4.79514e-05 0.152709 0.152527 4.79773e-05 0.34082 0H0.954102ZM1.25977 2.71289L0.969727 2.40625L0.727539 2.66211L1.25977 3.22461L2.34863 2.07422L2.10645 1.81836L1.25977 2.71289ZM1.67676 0.0576172C1.98088 0.137666 2.25809 0.297157 2.48047 0.519531C2.70284 0.741906 2.86233 1.01912 2.94238 1.32324C2.76919 1.17311 2.54756 1.09055 2.31836 1.09082H1.97754C1.9399 1.09082 1.90918 1.0601 1.90918 1.02246V0.681641C1.90946 0.452436 1.82689 0.230809 1.67676 0.0576172Z" fill="url(#paint0_linear_57_191)"/>
<defs>
<linearGradient id="paint0_linear_57_191" x1="1.5" y1="0" x2="1.5" y2="3.81836" gradientUnits="userSpaceOnUse">
<stop stop-color="#002B5A"/>
<stop offset="1" stop-color="#005CC0"/>
</linearGradient>
</defs>
</svg>
