<svg width="29" height="75" viewBox="0 0 29 75" fill="none" xmlns="http://www.w3.org/2000/svg">
<path d="M0.541728 74.747H2.39744C2.75919 74.747 2.93917 74.5635 2.93917 74.2001V72.6134H1.67402C1.45035 72.6134 1.34552 72.5068 1.34552 72.2831V71.0005H0.541728C0.181769 71.0005 0 71.1857 0 71.5493V74.2001C0 74.5653 0.181769 74.747 0.541728 74.747ZM1.67931 72.374H2.91994C2.90771 72.3024 2.85701 72.2324 2.77492 72.1469L1.81031 71.1666C1.72994 71.0827 1.65657 71.032 1.58314 71.0197V72.2797C1.58314 72.3426 1.61639 72.374 1.67931 72.374Z" fill="url(#paint0_linear_57_178)"/>
<path d="M28.0545 0C28.0459 0 28.0376 0.00366368 28.0314 0.0101851C28.0253 0.0167065 28.0219 0.0255513 28.0219 0.034774C28.0219 0.0439966 28.0253 0.0528415 28.0314 0.0593629C28.0376 0.0658843 28.0459 0.0695479 28.0545 0.0695479H28.1034L27.9617 0.43224C27.9583 0.441166 27.9566 0.450758 27.9568 0.460407C27.9587 0.514388 27.9801 0.565501 28.0165 0.602993C28.053 0.640485 28.1017 0.661434 28.1523 0.661434C28.203 0.661434 28.2517 0.640485 28.2881 0.602993C28.3246 0.565501 28.346 0.514388 28.3478 0.460407C28.3481 0.450758 28.3464 0.441166 28.3429 0.43224L28.2012 0.0695479H28.4458V0.834575H28.1849C28.159 0.834575 28.1341 0.845566 28.1158 0.86513C28.0974 0.884695 28.0871 0.911229 28.0871 0.938897C28.0871 0.966565 28.0974 0.9931 28.1158 1.01266C28.1341 1.03223 28.159 1.04322 28.1849 1.04322H28.7719C28.7978 1.04322 28.8227 1.03223 28.841 1.01266C28.8594 0.9931 28.8697 0.966565 28.8697 0.938897C28.8697 0.911229 28.8594 0.884695 28.841 0.86513C28.8227 0.845566 28.7978 0.834575 28.7719 0.834575H28.511V0.0695479H28.7556L28.6138 0.43224C28.6104 0.441166 28.6087 0.450758 28.609 0.460407C28.6108 0.514388 28.6322 0.565501 28.6687 0.602993C28.7051 0.640485 28.7538 0.661434 28.8045 0.661434C28.8551 0.661434 28.9038 0.640485 28.9403 0.602993C28.9767 0.565501 28.9981 0.514388 29 0.460407C29.0002 0.450758 28.9985 0.441166 28.9951 0.43224L28.8534 0.0695479H28.9023C28.9109 0.0695479 28.9192 0.0658843 28.9254 0.0593629C28.9315 0.0528415 28.9349 0.0439966 28.9349 0.034774C28.9349 0.0255513 28.9315 0.0167065 28.9254 0.0101851C28.9192 0.00366368 28.9109 0 28.9023 0H28.0545ZM28.1523 0.125186L28.2664 0.417288H28.0382L28.1523 0.125186ZM28.9186 0.417288H28.6903L28.8045 0.125186L28.9186 0.417288Z" fill="url(#paint1_linear_57_178)"/>
<path d="M25.5417 4.74647H27.3974C27.7592 4.74647 27.9392 4.56299 27.9392 4.19952V2.61288H26.674C26.4503 2.61288 26.3455 2.50627 26.3455 2.2826V1H25.5417C25.1818 1 25 1.1852 25 1.54874V4.19952C25 4.5647 25.1818 4.74647 25.5417 4.74647ZM26.6793 2.37348H27.9199C27.9077 2.30183 27.857 2.2319 27.7749 2.14631L26.8103 1.16604C26.7299 1.08216 26.6566 1.03146 26.5831 1.01916V2.27917C26.5831 2.34202 26.6164 2.37348 26.6793 2.37348Z" fill="url(#paint2_linear_57_178)"/>
<path d="M3.42663 70.1737C3.50013 70.07 3.58048 70 3.68962 70C3.79875 70 3.8791 70.07 3.9526 70.1737C4.02557 70.2767 4.10292 70.4291 4.20197 70.6241L4.23199 70.6833C4.31395 70.8448 4.37853 70.9719 4.41239 71.074C4.44687 71.1777 4.45472 71.2704 4.40308 71.3528C4.35151 71.4349 4.26447 71.4691 4.15525 71.4851C4.04766 71.5008 3.90342 71.5008 3.71994 71.5008H3.65929C3.47581 71.5008 3.33158 71.5008 3.22398 71.4851C3.11477 71.4691 3.02772 71.4349 2.97615 71.3527C2.92451 71.2704 2.93236 71.1777 2.96692 71.074C3.00078 70.972 3.06528 70.8448 3.14732 70.6833L3.17734 70.6242C3.27632 70.4291 3.35351 70.2767 3.42663 70.1737ZM3.74734 70.481C3.74734 70.4657 3.74126 70.451 3.73043 70.4402C3.71961 70.4294 3.70493 70.4233 3.68962 70.4233C3.67431 70.4233 3.65962 70.4294 3.6488 70.4402C3.63797 70.451 3.63189 70.4657 3.63189 70.481V70.9043C3.63189 70.9196 3.63797 70.9343 3.6488 70.9452C3.65962 70.956 3.67431 70.9621 3.68962 70.9621C3.70493 70.9621 3.71961 70.956 3.73043 70.9452C3.74126 70.9343 3.74734 70.9196 3.74734 70.9043V70.481ZM3.74734 71.1158C3.74734 71.1004 3.74126 71.0858 3.73043 71.0749C3.71961 71.0641 3.70493 71.058 3.68962 71.058C3.67431 71.058 3.65962 71.0641 3.6488 71.0749C3.63797 71.0858 3.63189 71.1004 3.63189 71.1158V71.1542C3.63189 71.1695 3.63797 71.1842 3.6488 71.1951C3.65962 71.2059 3.67431 71.212 3.68962 71.212C3.70493 71.212 3.71961 71.2059 3.73043 71.1951C3.74126 71.1842 3.74734 71.1695 3.74734 71.1542V71.1158Z" fill="url(#paint3_linear_57_178)"/>
<defs>
<linearGradient id="paint0_linear_57_178" x1="1.46959" y1="71.0005" x2="1.46959" y2="74.747" gradientUnits="userSpaceOnUse">
<stop stop-color="#002B5A"/>
<stop offset="1" stop-color="#005CC0"/>
</linearGradient>
<linearGradient id="paint1_linear_57_178" x1="28.4784" y1="0" x2="28.4784" y2="1.04322" gradientUnits="userSpaceOnUse">
<stop stop-color="#002B5A"/>
<stop offset="1" stop-color="#005CC0"/>
</linearGradient>
<linearGradient id="paint2_linear_57_178" x1="26.4696" y1="1" x2="26.4696" y2="4.74647" gradientUnits="userSpaceOnUse">
<stop stop-color="#002B5A"/>
<stop offset="1" stop-color="#005CC0"/>
</linearGradient>
<linearGradient id="paint3_linear_57_178" x1="3.68962" y1="70" x2="3.68962" y2="71.5008" gradientUnits="userSpaceOnUse">
<stop stop-color="#002B5A"/>
<stop offset="1" stop-color="#005CC0"/>
</linearGradient>
</defs>
</svg>
