<svg width="3" height="4" viewBox="0 0 3 4" fill="none" xmlns="http://www.w3.org/2000/svg">
<path d="M1.77273 2.11364C1.77273 2.18106 1.75273 2.24697 1.71527 2.30304C1.67781 2.3591 1.62457 2.40279 1.56228 2.4286C1.49999 2.4544 1.43144 2.46115 1.36531 2.448C1.29918 2.43484 1.23844 2.40237 1.19076 2.3547C1.14308 2.30702 1.11061 2.24627 1.09746 2.18014C1.08431 2.11401 1.09106 2.04547 1.11686 1.98318C1.14266 1.92088 1.18636 1.86764 1.24242 1.83018C1.29848 1.79272 1.36439 1.77273 1.43182 1.77273C1.52223 1.77273 1.60894 1.80864 1.67288 1.87258C1.73681 1.93651 1.77273 2.02322 1.77273 2.11364ZM3 1.09091V3.27273C3 3.34506 2.97127 3.41443 2.92012 3.46557C2.86897 3.51672 2.7996 3.54545 2.72727 3.54545H0.272727C0.200396 3.54545 0.131026 3.51672 0.07988 3.46557C0.0287337 3.41443 0 3.34506 0 3.27273V0.272727C0 0.200396 0.0287337 0.131026 0.07988 0.07988C0.131026 0.0287337 0.200396 4.21634e-08 0.272727 4.21634e-08H1.90909C1.927 -1.40435e-05 1.94474 0.00350125 1.9613 0.0103451C1.97785 0.0171889 1.9929 0.0272272 2.00557 0.0398864L2.96011 0.994432C2.97277 1.00711 2.98281 1.02215 2.98966 1.0387C2.9965 1.05526 3.00001 1.073 3 1.09091ZM2.14193 2.6308L1.95102 2.44006C2.0315 2.31218 2.06204 2.15913 2.03681 2.01015C2.01158 1.86118 1.93234 1.72672 1.81424 1.63247C1.69614 1.53823 1.54746 1.49079 1.3966 1.49924C1.24574 1.50768 1.10328 1.57142 0.996439 1.67826C0.889598 1.7851 0.825866 1.92756 0.81742 2.07842C0.808975 2.22928 0.856407 2.37796 0.950655 2.49606C1.0449 2.61416 1.17936 2.6934 1.32833 2.71863C1.47731 2.74386 1.63036 2.71332 1.75824 2.63284L1.94898 2.82375C1.96165 2.83642 1.97669 2.84647 1.99324 2.85333C2.00979 2.86018 2.02754 2.86371 2.04545 2.86371C2.06337 2.86371 2.08111 2.86018 2.09767 2.85333C2.11422 2.84647 2.12926 2.83642 2.14193 2.82375C2.1546 2.81108 2.16465 2.79604 2.17151 2.77949C2.17836 2.76293 2.18189 2.74519 2.18189 2.72727C2.18189 2.70936 2.17836 2.69161 2.17151 2.67506C2.16465 2.65851 2.1546 2.64347 2.14193 2.6308ZM2.65909 1.09091L1.90909 0.340909V1.09091H2.65909Z" fill="url(#paint0_linear_57_207)"/>
<defs>
<linearGradient id="paint0_linear_57_207" x1="1.5" y1="0" x2="1.5" y2="3.54545" gradientUnits="userSpaceOnUse">
<stop stop-color="#002B5A"/>
<stop offset="1" stop-color="#005CC0"/>
</linearGradient>
</defs>
</svg>
