<svg width="4" height="5" viewBox="0 0 4 5" fill="none" xmlns="http://www.w3.org/2000/svg">
<path d="M3.47256 1.3375C3.31763 1.29849 3.18972 1.20959 3.08883 1.0708C2.98794 0.932014 2.93752 0.777935 2.93756 0.608562V0.200625L3.47256 0L4.00756 0.200625V0.608562C4.00756 0.777979 3.95714 0.932081 3.85629 1.07087C3.75544 1.20966 3.62753 1.29853 3.47256 1.3375Z" fill="url(#paint0_linear_57_202)"/>
<path d="M0.541431 4.74441H2.39613C2.75768 4.74441 2.93756 4.56103 2.93756 4.19777V2.612H1.6731C1.44955 2.612 1.34478 2.50544 1.34478 2.28189V1H0.541431C0.181669 1 0 1.1851 0 1.54844V4.19777C0 4.56274 0.181669 4.74441 0.541431 4.74441ZM1.67839 2.37273H2.91833C2.90611 2.30112 2.85544 2.23122 2.7734 2.14568L1.80931 1.16595C1.72899 1.08212 1.65566 1.03145 1.58227 1.01915V2.27847C1.58227 2.34128 1.6155 2.37273 1.67839 2.37273Z" fill="url(#paint1_linear_57_202)"/>
<defs>
<linearGradient id="paint0_linear_57_202" x1="3.47256" y1="0" x2="3.47256" y2="1.3375" gradientUnits="userSpaceOnUse">
<stop stop-color="#002B5A"/>
<stop offset="1" stop-color="#005CC0"/>
</linearGradient>
<linearGradient id="paint1_linear_57_202" x1="1.46878" y1="1" x2="1.46878" y2="4.74441" gradientUnits="userSpaceOnUse">
<stop stop-color="#002B5A"/>
<stop offset="1" stop-color="#005CC0"/>
</linearGradient>
</defs>
</svg>
