<svg width="3" height="4" viewBox="0 0 3 4" fill="none" xmlns="http://www.w3.org/2000/svg">
<path d="M0.803973 2.39137C0.72262 2.41362 0.673599 2.47611 0.673599 2.53504C0.673599 2.59397 0.72262 2.65646 0.803973 2.67862V2.39137ZM0.934346 2.82603V3.1132C1.0157 3.09104 1.06472 3.02854 1.06472 2.96961C1.06472 2.91069 1.0157 2.84819 0.934346 2.82603Z" fill="url(#paint0_linear_57_192)"/>
<path fill-rule="evenodd" clip-rule="evenodd" d="M1.73831 2.75233C1.73831 3.23236 1.34919 3.62148 0.869156 3.62148C0.389121 3.62148 0 3.23236 0 2.75233C0 2.27229 0.389121 1.88317 0.869156 1.88317C1.34919 1.88317 1.73831 2.27229 1.73831 2.75233ZM0.869156 2.16565C0.886444 2.16565 0.903025 2.17251 0.91525 2.18474C0.927474 2.19696 0.934342 2.21354 0.934342 2.23083V2.25839C1.07601 2.28376 1.19509 2.39024 1.19509 2.53504C1.19509 2.55233 1.18822 2.56891 1.176 2.58113C1.16377 2.59336 1.14719 2.60022 1.1299 2.60022C1.11261 2.60022 1.09603 2.59336 1.08381 2.58113C1.07158 2.56891 1.06472 2.55233 1.06472 2.53504C1.06472 2.47611 1.0157 2.41362 0.934342 2.39137V2.69296C1.07601 2.71834 1.19509 2.82481 1.19509 2.96962C1.19509 3.11442 1.07601 3.22089 0.934342 3.24627V3.27382C0.934342 3.29111 0.927474 3.30769 0.91525 3.31991C0.903025 3.33214 0.886444 3.33901 0.869156 3.33901C0.851867 3.33901 0.835287 3.33214 0.823062 3.31991C0.810837 3.30769 0.803969 3.29111 0.803969 3.27382V3.24627C0.662297 3.22089 0.543222 3.11442 0.543222 2.96962C0.543222 2.95233 0.55009 2.93575 0.562315 2.92352C0.57454 2.9113 0.59112 2.90443 0.608409 2.90443C0.625698 2.90443 0.642278 2.9113 0.654503 2.92352C0.666728 2.93575 0.673596 2.95233 0.673596 2.96962C0.673596 3.02854 0.722616 3.09104 0.803969 3.1132V2.81169C0.662297 2.78631 0.543222 2.67984 0.543222 2.53504C0.543222 2.39024 0.662297 2.28376 0.803969 2.25839V2.23083C0.803969 2.21354 0.810837 2.19696 0.823062 2.18474C0.835287 2.17251 0.851867 2.16565 0.869156 2.16565Z" fill="url(#paint1_linear_57_192)"/>
<path d="M1.45247 0V1.24609C1.4525 1.46323 1.55377 1.56632 1.77083 1.56641H3.00032V3.1084C3.00027 3.46137 2.8253 3.63963 2.47395 3.63965H1.3597C1.67176 3.46676 1.88313 3.13398 1.88313 2.75195C1.88293 2.1922 1.42922 1.73844 0.869461 1.73828C0.585896 1.73828 0.328874 1.85437 0.144852 2.04199V0.533203C0.144852 0.180036 0.321529 0 0.671219 0H1.45247ZM1.68294 0.0185547C1.75424 0.0305342 1.82561 0.0797033 1.90364 0.161133L2.84016 1.11328C2.91981 1.19633 2.96981 1.26447 2.98177 1.33398H1.77669C1.71556 1.33398 1.68294 1.30325 1.68294 1.24219V0.0185547Z" fill="url(#paint2_linear_57_192)"/>
<path fill-rule="evenodd" clip-rule="evenodd" d="M1.73831 2.75233C1.73831 3.23236 1.34919 3.62148 0.869156 3.62148C0.389121 3.62148 0 3.23236 0 2.75233C0 2.27229 0.389121 1.88317 0.869156 1.88317C1.34919 1.88317 1.73831 2.27229 1.73831 2.75233ZM0.869156 2.16565C0.886444 2.16565 0.903025 2.17251 0.91525 2.18474C0.927474 2.19696 0.934342 2.21354 0.934342 2.23083V2.25839C1.07601 2.28376 1.19509 2.39024 1.19509 2.53504C1.19509 2.55233 1.18822 2.56891 1.176 2.58113C1.16377 2.59336 1.14719 2.60022 1.1299 2.60022C1.11261 2.60022 1.09603 2.59336 1.08381 2.58113C1.07158 2.56891 1.06472 2.55233 1.06472 2.53504C1.06472 2.47611 1.0157 2.41362 0.934342 2.39137V2.69296C1.07601 2.71834 1.19509 2.82481 1.19509 2.96962C1.19509 3.11442 1.07601 3.22089 0.934342 3.24627V3.27382C0.934342 3.29111 0.927474 3.30769 0.91525 3.31991C0.903025 3.33214 0.886444 3.33901 0.869156 3.33901C0.851867 3.33901 0.835287 3.33214 0.823062 3.31991C0.810837 3.30769 0.803969 3.29111 0.803969 3.27382V3.24627C0.662297 3.22089 0.543222 3.11442 0.543222 2.96962C0.543222 2.95233 0.55009 2.93575 0.562315 2.92352C0.57454 2.9113 0.59112 2.90443 0.608409 2.90443C0.625698 2.90443 0.642278 2.9113 0.654503 2.92352C0.666728 2.93575 0.673596 2.95233 0.673596 2.96962C0.673596 3.02854 0.722616 3.09104 0.803969 3.1132V2.81169C0.662297 2.78631 0.543222 2.67984 0.543222 2.53504C0.543222 2.39024 0.662297 2.28376 0.803969 2.25839V2.23083C0.803969 2.21354 0.810837 2.19696 0.823062 2.18474C0.835287 2.17251 0.851867 2.16565 0.869156 2.16565Z" fill="url(#paint3_linear_57_192)"/>
<defs>
<linearGradient id="paint0_linear_57_192" x1="0.869159" y1="2.39137" x2="0.869159" y2="3.1132" gradientUnits="userSpaceOnUse">
<stop stop-color="#2974C7"/>
<stop offset="1" stop-color="#002B5A"/>
</linearGradient>
<linearGradient id="paint1_linear_57_192" x1="0.869156" y1="1.88317" x2="0.869156" y2="3.62148" gradientUnits="userSpaceOnUse">
<stop stop-color="#2974C7"/>
<stop offset="1" stop-color="#002B5A"/>
</linearGradient>
<linearGradient id="paint2_linear_57_192" x1="1.57251" y1="0" x2="1.57251" y2="3.63959" gradientUnits="userSpaceOnUse">
<stop stop-color="#2974C7"/>
<stop offset="1" stop-color="#002B5A"/>
</linearGradient>
<linearGradient id="paint3_linear_57_192" x1="0.869156" y1="1.88317" x2="0.869156" y2="3.62148" gradientUnits="userSpaceOnUse">
<stop stop-color="#2974C7"/>
<stop offset="1" stop-color="#002B5A"/>
</linearGradient>
</defs>
</svg>
