<svg width="50" height="10" viewBox="0 0 50 10" fill="none" xmlns="http://www.w3.org/2000/svg">
<g clip-path="url(#clip0_94_1594)">
<mask id="mask0_94_1594" style="mask-type:luminance" maskUnits="userSpaceOnUse" x="0" y="0" width="50" height="10">
<path d="M50 0H0V10H50V0Z" fill="white"/>
</mask>
<g mask="url(#mask0_94_1594)">
<path d="M15.4496 7.19366C15.3038 7.57513 15.0751 7.87976 14.6397 7.96797V7.97287H15.9083C15.4837 7.89583 15.5268 7.57552 15.6609 7.19542C15.7362 6.99331 15.8437 6.70378 15.9189 6.5054L15.9854 6.32721C16.3096 5.46076 16.6249 4.61823 16.9617 3.73297C17.2899 4.59615 17.6136 5.46089 17.9329 6.32721L17.9991 6.5054C18.0744 6.70574 18.1819 6.99547 18.2555 7.19718C18.4132 7.61669 18.4579 7.8923 18.0083 7.97287H20.2087C19.7589 7.8923 19.5241 7.58414 19.3772 7.19542C18.7322 5.5035 18.0565 3.72082 17.4117 2.02713L15.4496 7.19366Z" fill="black"/>
<path d="M21.5518 7.19366C21.403 7.58258 21.1684 7.89073 20.7168 7.97287H22.0104C21.5858 7.89583 21.6287 7.57552 21.763 7.19542C21.8381 6.99331 21.9458 6.70378 22.0208 6.5054L22.0873 6.32721C22.4116 5.46076 22.7268 4.61823 23.0636 3.73297C23.3918 4.59615 23.7155 5.46089 24.0348 6.32721L24.101 6.5054C24.1763 6.70574 24.2838 6.99547 24.3572 7.19718C24.5149 7.61669 24.5596 7.8923 24.11 7.97287H26.3104C25.8606 7.8923 25.626 7.58414 25.4789 7.19542C24.8339 5.5035 24.1585 3.72082 23.5134 2.02713L21.5518 7.19366Z" fill="black"/>
<path d="M35.4617 2.11789C35.9115 2.19846 35.9992 2.60444 35.9992 2.98944V7.10113C35.9992 7.48633 35.9115 7.8923 35.4617 7.97267H39.8354V6.50031C39.8171 6.85405 39.6553 7.18706 39.3844 7.42863C39.1134 7.67021 38.7545 7.80131 38.384 7.79409H37.0367V2.29589H38.384C38.7545 2.28867 39.1134 2.41977 39.3844 2.66135C39.6553 2.90292 39.8171 3.23594 39.8354 3.58968V2.11789H35.4617Z" fill="black"/>
<path d="M42.6213 4.95638H39.3138C38.615 4.95638 38.2134 4.80583 38.1098 4.03505V6.05414C38.2136 5.28336 38.615 5.13457 39.3138 5.13457H42.6213C43.3199 5.13457 43.7215 5.28356 43.8255 6.05414V4.03505C43.7215 4.80583 43.3201 4.95638 42.6213 4.95638Z" fill="black"/>
<path d="M40.3479 2.11789C40.7977 2.19846 40.8837 2.60444 40.8837 2.98963V4.32263H41.9229V2.29608H43.2686C43.6393 2.28875 43.9984 2.41976 44.2697 2.66131C44.541 2.90286 44.7032 3.23594 44.7218 3.58987V2.11789H40.3479Z" fill="black"/>
<path d="M40.8837 5.76951V7.10152C40.8837 7.48672 40.7977 7.89269 40.3479 7.97306H44.7216V6.5003C44.7029 6.85421 44.5408 7.18727 44.2695 7.4288C43.9982 7.67034 43.6391 7.80137 43.2684 7.79409H41.9227V5.76951H40.8837Z" fill="black"/>
<path d="M45.7393 3.40678C45.7322 2.58346 46.7144 2.02772 47.6394 2.02772C48.2636 2.00664 48.8843 2.12574 49.4516 2.37547V3.59183C49.3397 3.20836 49.1045 2.86822 48.7793 2.61951C48.454 2.37079 48.0552 2.22611 47.6392 2.20591C47.106 2.20591 46.6804 2.44761 46.6804 3.10529C46.6804 4.24794 50.0002 4.62823 50.0002 6.47502C50.0002 7.31794 49.2618 8.06657 47.6556 8.06657C46.976 8.06476 46.3117 7.87301 45.7447 7.51495V6.11864C46.0854 7.74567 49.0247 8.65407 49.0319 6.85355C49.0372 5.36138 45.7551 5.19691 45.7391 3.40658" fill="black"/>
<path d="M29.3554 2.11652H31.5558C31.106 2.19689 31.1509 2.4727 31.3085 2.8922C31.724 4.01897 32.1756 5.23318 32.6021 6.35642C33.0391 5.20906 33.4746 4.04328 33.9047 2.89377C34.039 2.51348 34.0803 2.19336 33.6573 2.11632H34.9495C34.4997 2.19846 34.2651 2.50681 34.1164 2.89534L32.1527 8.06167C31.5095 6.36798 30.8322 4.5853 30.1871 2.89358C30.0403 2.50485 29.8054 2.19669 29.3559 2.11632" fill="black"/>
<path d="M27.562 5.43665C29.4272 4.8321 29.2767 2.11632 26.5461 2.11632H25.7796V2.29412H26.5461C28.1533 2.29412 28.0959 5.40058 26.5461 5.40058H26.2271C26.4005 5.44312 26.7641 5.53584 27.4151 6.56303C27.5201 6.72848 27.5911 6.83884 27.5911 6.83884C27.7494 7.09133 27.9043 7.34558 28.053 7.56415C28.4509 8.18909 29.6262 8.09656 30.4199 7.97346C28.8431 7.97346 28.8289 6.10334 27.562 5.43724" fill="black"/>
<path d="M5.78091 1.06973L6.11626 0.749221L5.74235 0.391861L5.36844 0.749221L5.70379 1.06973L5.36844 1.38965L5.71425 1.72015L5.36844 2.05065L5.74235 2.40899L6.11626 2.05163L5.77106 1.72074L6.11687 1.39023L5.78091 1.06973Z" fill="black"/>
<path d="M7.72472 0L7.60597 0.00646894L7.58545 0.00764511H7.57746L7.56577 0.00862525C7.41781 0.0219562 7.27817 0.0801144 7.16723 0.174619C7.05628 0.269123 6.97983 0.395031 6.94901 0.533982C6.94066 0.585849 6.93804 0.638413 6.94122 0.690804V1.50628C6.94122 1.80988 6.81503 2.10104 6.59041 2.31571C6.3658 2.53039 6.06115 2.65099 5.7435 2.65099C5.42584 2.65099 5.1212 2.53039 4.89658 2.31571C4.67197 2.10104 4.54578 1.80988 4.54578 1.50628V0.732754C4.55009 0.664767 4.54658 0.596533 4.53532 0.529277C4.50545 0.399745 4.43582 0.281678 4.33534 0.190184C4.23485 0.09869 4.10809 0.037931 3.97128 0.0156823C3.95419 0.0128072 3.93696 0.0105855 3.91959 0.00901731L3.9079 0.00803717H3.8999L3.87939 0.006861L3.76022 0C3.82649 0.0722196 3.87548 0.157378 3.9038 0.249544C3.92178 0.318735 3.93088 0.389764 3.93087 0.461059C3.92903 0.687472 3.92431 0.970733 3.91692 1.3081C3.90605 1.79817 4.15854 2.1914 4.66741 2.47682C4.90235 2.60516 5.15587 2.69956 5.41974 2.75694C5.44025 2.76086 5.47471 2.76733 5.52229 2.77302C5.66855 2.79283 5.81701 2.79283 5.96327 2.77302C6.01044 2.76733 6.04531 2.76086 6.06582 2.75694C6.32969 2.69955 6.58321 2.60516 6.81815 2.47682C7.32702 2.1916 7.57951 1.79836 7.56864 1.3081C7.56146 0.983475 7.55674 0.707467 7.5549 0.484778C7.55298 0.399696 7.56389 0.314794 7.5873 0.232686C7.61607 0.146999 7.66283 0.0678222 7.72472 0Z" fill="black"/>
<path d="M9.55405 3.05275L10.0114 3.17292L10.1515 2.68559L9.64163 2.5517L9.51611 2.98884L9.05872 2.86868L8.92909 3.31954L8.45735 3.19585L8.31726 3.68318L8.82716 3.81706L8.95678 3.3662L9.42853 3.48989L9.55405 3.05275Z" fill="black"/>
<path d="M11.4882 4.13816L11.4236 4.0427C11.4193 4.03623 11.4158 4.03094 11.4121 4.02584L11.4078 4.01937L11.401 4.01035C11.3157 3.89402 11.1938 3.80678 11.0529 3.76136C10.9121 3.71594 10.7598 3.71472 10.6181 3.75787C10.5671 3.77652 10.5182 3.80024 10.4723 3.82863L10.3408 3.90018L10.0235 4.07289L9.77577 4.20756L9.73086 4.23186C9.45476 4.38206 9.12755 4.42129 8.82119 4.34091C8.51484 4.26052 8.25444 4.06712 8.09729 3.80325C7.94013 3.53937 7.89909 3.22664 7.9832 2.93384C8.0673 2.64105 8.26966 2.39218 8.54575 2.24198L8.62246 2.20023L8.8087 2.09888L9.03924 1.97342L9.24886 1.85933C9.31282 1.82927 9.37314 1.79259 9.42873 1.74995C9.53171 1.66112 9.60463 1.54496 9.63817 1.41632C9.67171 1.28768 9.66435 1.1524 9.61702 1.02778C9.61114 1.0121 9.60431 0.996676 9.59651 0.981516L9.59179 0.971323L9.5881 0.964462C9.58544 0.958777 9.58236 0.953092 9.57867 0.946427L9.52575 0.844688C9.49285 0.935443 9.43965 1.01826 9.36987 1.08737C9.3158 1.1365 9.25567 1.17916 9.19081 1.2144C8.98406 1.32496 8.72337 1.46139 8.41346 1.62175C7.96222 1.85521 7.72963 2.25943 7.72184 2.8232C7.72131 3.08185 7.76084 3.33915 7.83916 3.58673C7.84531 3.60497 7.857 3.63751 7.87526 3.67946C7.92954 3.81072 8.00294 3.93399 8.09329 4.04564C8.1218 4.0819 8.14497 4.10817 8.15831 4.12268C8.34098 4.31353 8.5522 4.47749 8.78511 4.60922C9.29623 4.89091 9.77864 4.9062 10.219 4.6547C10.5107 4.48827 10.7595 4.34791 10.9607 4.23618C11.0373 4.19233 11.1202 4.15932 11.2068 4.13816C11.2992 4.11992 11.3946 4.11992 11.487 4.13816" fill="black"/>
<path d="M1.93415 3.05275L1.47676 3.17292L1.33667 2.68559L1.84656 2.5517L1.97229 2.98884L2.42968 2.86868L2.5591 3.31954L3.03085 3.19585L3.17094 3.68318L2.66104 3.81706L2.53141 3.3662L2.05967 3.48989L1.93415 3.05275Z" fill="black"/>
<path d="M0 4.13816L0.0646085 4.0427C0.0689157 4.03623 0.0724025 4.03093 0.0760944 4.02584L0.0804017 4.01898L0.0871702 4.00996C0.172477 3.89363 0.294443 3.80639 0.435278 3.76097C0.576112 3.71555 0.728447 3.71433 0.870061 3.75747C0.921126 3.77613 0.970003 3.79985 1.01589 3.82824L1.14736 3.89979L1.46466 4.07249L1.71243 4.20716L1.75735 4.23147C2.03345 4.38162 2.36064 4.42079 2.66696 4.34037C2.97327 4.25996 3.23362 4.06653 3.39072 3.80266C3.54782 3.53878 3.5888 3.22607 3.50466 2.93331C3.42052 2.64055 3.21814 2.39173 2.94205 2.24159L2.86534 2.19983L2.6791 2.09849L2.44856 1.97303L2.23894 1.85894C2.17497 1.82888 2.11465 1.7922 2.05906 1.74955C1.95609 1.66073 1.88317 1.54457 1.84963 1.41593C1.81609 1.28729 1.82345 1.15201 1.87077 1.02739C1.87665 1.0117 1.88349 0.996283 1.89129 0.981123L1.896 0.97093L1.89969 0.964069C1.90236 0.958384 1.90544 0.952699 1.90913 0.946034L1.96205 0.844296C1.99495 0.93505 2.04814 1.01787 2.11793 1.08698C2.172 1.13611 2.23213 1.17876 2.29699 1.21401C2.50373 1.32457 2.76442 1.461 3.07434 1.62135C3.52557 1.85482 3.75816 2.25903 3.76596 2.82281C3.76649 3.08146 3.72695 3.33876 3.64864 3.58634C3.64248 3.60457 3.63079 3.63711 3.61274 3.67906C3.58852 3.74582 3.55645 3.80974 3.51716 3.8696C3.48327 3.93268 3.44198 3.99187 3.3941 4.04603C3.36559 4.08229 3.34241 4.10856 3.32908 4.12307C3.14641 4.31392 2.93519 4.47788 2.70228 4.60961C2.19115 4.8913 1.70874 4.90659 1.26838 4.65509C0.976716 4.48866 0.727922 4.3483 0.526713 4.23657C0.450042 4.19273 0.367142 4.15972 0.280585 4.13855C0.188169 4.12031 0.0928263 4.12031 0.000410213 4.13855" fill="black"/>
<path d="M5.7073 8.93105L5.37195 9.25156L5.74586 9.60892L6.11977 9.25156L5.78442 8.93105L6.11977 8.61055L5.77396 8.28004L6.11977 7.94954L5.74586 7.59218L5.37195 7.94954L5.71776 8.28004L5.37195 8.61055L5.7073 8.93105Z" fill="black"/>
<path d="M3.76371 10.0002L3.88246 9.99373L3.90297 9.99255H3.91097L3.92266 9.99157C4.07062 9.97824 4.21026 9.92008 4.3212 9.82558C4.43215 9.73107 4.5086 9.60516 4.53942 9.46621C4.54778 9.41435 4.55039 9.36178 4.54721 9.30939V8.49391C4.54721 8.19032 4.6734 7.89915 4.89802 7.68448C5.12263 7.46981 5.42728 7.3492 5.74493 7.3492C6.06259 7.3492 6.36723 7.46981 6.59185 7.68448C6.81646 7.89915 6.94265 8.19032 6.94265 8.49391V9.26724C6.93834 9.33523 6.94185 9.40346 6.95311 9.47072C6.98296 9.6002 7.05253 9.71823 7.15293 9.80972C7.25333 9.90121 7.38 9.96199 7.51674 9.98431C7.53384 9.98719 7.55107 9.98941 7.56843 9.99098L7.58012 9.99196H7.58812L7.60863 9.99314L7.72739 9.99961C7.66112 9.92739 7.61213 9.84223 7.58381 9.75006C7.56583 9.68087 7.55673 9.60984 7.55674 9.53855C7.55858 9.31214 7.5633 9.02887 7.57068 8.69151C7.58156 8.20144 7.32907 7.8082 6.8202 7.52279C6.58545 7.3945 6.33214 7.3001 6.06849 7.24266C6.04798 7.23874 6.01352 7.23227 5.96593 7.22659C5.81967 7.20677 5.67122 7.20677 5.52496 7.22659C5.47778 7.23227 5.44291 7.23874 5.4224 7.24266C5.15854 7.30005 4.90502 7.39445 4.67007 7.52279C4.1612 7.80801 3.90872 8.20124 3.91959 8.69151C3.92677 9.01613 3.93148 9.29214 3.93333 9.51483C3.93525 9.59991 3.92433 9.68481 3.90092 9.76692C3.87208 9.85278 3.82518 9.93209 3.76309 10" fill="black"/>
<path d="M1.93415 6.94725L1.47676 6.82708L1.33667 7.31441L1.84656 7.4483L1.97229 7.01115L2.42968 7.13132L2.5591 6.68045L3.03085 6.80415L3.17094 6.31682L2.66104 6.18293L2.53141 6.6338L2.06008 6.5101L1.93415 6.94725Z" fill="black"/>
<path d="M0 5.86184L0.0646085 5.9573C0.0689157 5.96377 0.0724025 5.96907 0.0760944 5.97416L0.0804017 5.98063L0.0871702 5.98965C0.172477 6.10598 0.294443 6.19322 0.435278 6.23864C0.576112 6.28406 0.728447 6.28528 0.870061 6.24213C0.921126 6.22348 0.970003 6.19976 1.01589 6.17137L1.14736 6.09982L1.46466 5.92712L1.71243 5.79244L1.75735 5.76814C2.03345 5.61799 2.36064 5.57882 2.66696 5.65924C2.97327 5.73965 3.23362 5.93308 3.39072 6.19695C3.54782 6.46083 3.5888 6.77354 3.50466 7.0663C3.42052 7.35906 3.21814 7.60788 2.94205 7.75802L2.86534 7.79978L2.6791 7.90112L2.44856 8.02658L2.23894 8.14067C2.17497 8.17073 2.11465 8.20741 2.05906 8.25005C1.95609 8.33888 1.88317 8.45504 1.84963 8.58368C1.81609 8.71232 1.82345 8.8476 1.87077 8.97222C1.87665 8.98791 1.88349 9.00333 1.89129 9.01848L1.896 9.02868L1.89969 9.03554C1.90236 9.04123 1.90544 9.04691 1.90913 9.05357L1.96205 9.15531C1.99495 9.06456 2.04814 8.98174 2.11793 8.91263C2.172 8.8635 2.23213 8.82084 2.29699 8.7856C2.50373 8.67504 2.76442 8.53861 3.07434 8.37826C3.52557 8.14479 3.75816 7.74057 3.76596 7.1768C3.76649 6.91815 3.72695 6.66085 3.64864 6.41327C3.64248 6.39504 3.63079 6.36249 3.61274 6.32054C3.58852 6.25378 3.55645 6.18986 3.51716 6.13001C3.48327 6.06693 3.44198 6.00774 3.3941 5.95358C3.36559 5.91732 3.34241 5.89105 3.32908 5.87654C3.14641 5.68569 2.93519 5.52173 2.70228 5.39C2.19115 5.10831 1.70874 5.09301 1.26838 5.34452C0.976716 5.51095 0.727922 5.6513 0.526713 5.76304C0.450042 5.80688 0.367142 5.83989 0.280585 5.86106C0.188169 5.8793 0.0928263 5.8793 0.000410213 5.86106" fill="black"/>
<path d="M9.55405 6.94725L10.0114 6.82708L10.1515 7.31441L9.64163 7.4483L9.51611 7.01115L9.05872 7.13132L8.92909 6.68045L8.45735 6.80415L8.31726 6.31682L8.82716 6.18293L8.95678 6.6338L9.42853 6.5101L9.55405 6.94725Z" fill="black"/>
<path d="M11.4882 5.86184L11.4236 5.95731C11.4193 5.96377 11.4158 5.96907 11.4121 5.97416L11.4078 5.98063L11.401 5.98965C11.3157 6.10598 11.1938 6.19322 11.0529 6.23864C10.9121 6.28406 10.7598 6.28528 10.6182 6.24214C10.5671 6.22348 10.5182 6.19976 10.4723 6.17137L10.3409 6.09982L10.0236 5.92712L9.77579 5.79244L9.73087 5.76814C9.45478 5.61799 9.12758 5.57882 8.82127 5.65924C8.51495 5.73965 8.25461 5.93308 8.09751 6.19695C7.94041 6.46083 7.89942 6.77354 7.98356 7.0663C8.0677 7.35906 8.27008 7.60788 8.54618 7.75802L8.62288 7.79978L8.80912 7.90112L9.03966 8.02658L9.24928 8.14067C9.31325 8.17073 9.37357 8.20741 9.42916 8.25005C9.53213 8.33888 9.60506 8.45504 9.6386 8.58368C9.67214 8.71232 9.66477 8.8476 9.61745 8.97222C9.61157 8.98791 9.60473 9.00333 9.59694 9.01849L9.59222 9.02868L9.58853 9.03554C9.58586 9.04123 9.58278 9.04691 9.57909 9.05357L9.52617 9.15531C9.49327 9.06456 9.44008 8.98174 9.37029 8.91263C9.31622 8.8635 9.25609 8.82084 9.19123 8.7856C8.98449 8.67504 8.7238 8.53861 8.41388 8.37826C7.96265 8.14479 7.73006 7.74057 7.72226 7.1768C7.72173 6.91815 7.76127 6.66085 7.83958 6.41327C7.84574 6.39504 7.85743 6.3625 7.87568 6.32055C7.92996 6.18928 8.00336 6.06601 8.09371 5.95437C8.12222 5.9181 8.1454 5.89183 8.15873 5.87732C8.3414 5.68648 8.55263 5.52252 8.78553 5.39078C9.29666 5.10909 9.77907 5.0938 10.2194 5.34531C10.5111 5.51173 10.7599 5.65209 10.9611 5.76383C11.0378 5.80767 11.1207 5.84068 11.2072 5.86184C11.2996 5.88009 11.395 5.88009 11.4874 5.86184" fill="black"/>
</g>
</g>
<defs>
<clipPath id="clip0_94_1594">
<rect width="50" height="10" fill="white"/>
</clipPath>
</defs>
</svg>
