<svg width="4" height="4" viewBox="0 0 4 4" fill="none" xmlns="http://www.w3.org/2000/svg">
<path d="M2 0C3.10437 0 4 0.790343 4 1.76562C3.99988 2.74081 3.10445 3.53125 2 3.53125C1.85485 3.53125 1.71161 3.5181 1.5752 3.49219C1.43308 3.5626 0.503729 4.01342 0.0341797 3.81934C-0.00171315 3.69012 0.523941 3.49873 0.605469 3.0293C0.232765 2.70857 6.31489e-05 2.26146 0 1.76562C0 0.790357 0.895494 2.26264e-05 2 0ZM2.03125 0.338867C1.93795 0.339078 1.86232 0.414464 1.8623 0.507812V0.62207L1.21387 0.729492C1.17434 0.736085 1.13886 0.756362 1.11328 0.786133L1.09082 0.819336L0.695312 1.5957C0.683228 1.61947 0.677739 1.64619 0.677734 1.67285C0.677734 1.82168 0.73762 1.96401 0.84375 2.06836C0.949649 2.17235 1.09276 2.23035 1.24121 2.23047C1.38981 2.2304 1.53369 2.17249 1.63965 2.06836C1.74568 1.96403 1.80566 1.82161 1.80566 1.67285C1.80566 1.64623 1.79916 1.61944 1.78711 1.5957L1.49707 1.02539L1.8623 0.96582V2.53906H1.37305C1.27984 2.53921 1.20436 2.61483 1.2041 2.70801C1.2041 2.8014 1.27969 2.87778 1.37305 2.87793H2.69043L2.75586 2.86426C2.81645 2.83848 2.85938 2.778 2.85938 2.70801C2.85918 2.63822 2.81631 2.57845 2.75586 2.55273L2.69043 2.53906H2.20117V0.96582L2.56543 1.02539L2.27539 1.5957C2.26331 1.61947 2.25782 1.64619 2.25781 1.67285C2.25781 1.82168 2.3177 1.96401 2.42383 2.06836C2.52975 2.17234 2.67282 2.23038 2.82129 2.23047C2.96992 2.2304 3.11376 2.17253 3.21973 2.06836C3.32576 1.96403 3.38574 1.82161 3.38574 1.67285C3.38574 1.64623 3.37924 1.61944 3.36719 1.5957L2.97266 0.819336C2.95443 0.783493 2.92392 0.755649 2.8877 0.740234L2.84863 0.729492L2.20117 0.623047V0.507812C2.20116 0.414425 2.12461 0.339014 2.03125 0.338867ZM1.46289 1.70703C1.45558 1.75157 1.43575 1.79423 1.40234 1.82715C1.36031 1.86839 1.30181 1.89153 1.24121 1.8916C1.18076 1.89148 1.12304 1.86825 1.08105 1.82715C1.04752 1.79418 1.02683 1.75169 1.01953 1.70703L1.24121 1.26953L1.46289 1.70703ZM3.04297 1.70703C3.03566 1.75158 3.01584 1.79423 2.98242 1.82715C2.94038 1.86843 2.88192 1.89153 2.82129 1.8916C2.76082 1.89152 2.70314 1.86824 2.66113 1.82715C2.62709 1.79368 2.60561 1.7505 2.59863 1.70508L2.82129 1.26953L3.04297 1.70703Z" fill="url(#paint0_linear_28_250)"/>
<defs>
<linearGradient id="paint0_linear_28_250" x1="2" y1="0" x2="2" y2="3.86736" gradientUnits="userSpaceOnUse">
<stop stop-color="#2974C7"/>
<stop offset="1" stop-color="#002B5A"/>
</linearGradient>
</defs>
</svg>
