<svg width="4" height="4" viewBox="0 0 4 4" fill="none" xmlns="http://www.w3.org/2000/svg">
<path d="M3.9302 1.43484L3.87794 1.38258C3.91175 1.31232 3.92334 1.23343 3.91117 1.15641C3.899 1.0794 3.86365 1.00793 3.80983 0.951519C3.77315 0.914902 3.72907 0.886562 3.68053 0.868407C3.63199 0.850252 3.58012 0.842702 3.52842 0.846265C3.47983 0.849009 3.43211 0.860356 3.38748 0.879777V0H0V3.87141H3.38748V1.91393L3.76131 1.54009L3.79325 1.57191C3.79744 1.57607 3.80076 1.58102 3.80303 1.58647C3.8053 1.59192 3.80647 1.59777 3.80647 1.60367C3.80647 1.60957 3.8053 1.61542 3.80303 1.62087C3.80076 1.62632 3.79744 1.63127 3.79325 1.63543L3.50858 1.92022C3.49042 1.93836 3.48021 1.96298 3.4802 1.98865C3.48019 2.01432 3.49038 2.03895 3.50852 2.05711C3.52667 2.07527 3.55128 2.08548 3.57695 2.08549C3.60263 2.0855 3.62725 2.07531 3.64541 2.05717L3.9302 1.77238C3.9749 1.72758 4 1.66689 4 1.60361C4 1.54033 3.9749 1.47963 3.9302 1.43484ZM0.725888 0.750085H2.66183V0.943655H0.725888V0.750085ZM0.725888 1.23401H2.66183V1.42758H0.725888V1.23401ZM0.725888 1.71794H1.99619V1.91151H0.725888V1.71794ZM2.51545 3.3749H1.57131C1.46218 3.3749 1.36007 3.36461 1.30587 3.27521C1.25034 3.18387 1.30551 3.07777 1.3458 3.0001C1.35294 2.98643 1.33709 2.96949 1.31894 2.98824C1.26571 3.04292 1.18102 3.1414 1.11291 3.22053C1.04092 3.30424 1.01237 3.33703 0.997129 3.35082C0.981002 3.36956 0.959097 3.38239 0.934869 3.3873C0.910641 3.3922 0.885469 3.3889 0.863323 3.37792C0.843455 3.36642 0.82789 3.34875 0.819001 3.32758C0.810111 3.30642 0.808385 3.28293 0.814084 3.26069C0.819165 3.23045 0.905546 2.89388 0.983821 2.5913C0.879777 2.77604 0.549498 3.32929 0.534012 3.3553C0.522493 3.3746 0.503779 3.38853 0.481987 3.39403C0.460194 3.39954 0.437109 3.39616 0.417809 3.38464C0.398509 3.37312 0.384576 3.3544 0.379074 3.33261C0.373572 3.31082 0.376952 3.28773 0.388471 3.26843C0.392706 3.26154 0.806462 2.56819 0.858605 2.46754C0.875603 2.4273 0.90724 2.39502 0.947124 2.37721C0.987007 2.3594 1.03216 2.3574 1.07347 2.3716C1.11075 2.38675 1.14091 2.41548 1.15786 2.45198C1.1748 2.48848 1.17729 2.53005 1.16481 2.56831C1.12126 2.73624 1.07686 2.90851 1.04262 3.04256C1.09791 2.97868 1.15574 2.91311 1.19747 2.87016C1.22961 2.83156 1.2735 2.80455 1.32244 2.79325C1.37138 2.78196 1.42267 2.787 1.46847 2.80762C1.49697 2.82206 1.51981 2.84564 1.53332 2.87459C1.54683 2.90354 1.55024 2.93619 1.543 2.96731C1.5314 3.00584 1.51566 3.043 1.49606 3.07813C1.46375 3.14527 1.47912 3.2054 1.57131 3.2054H2.51532C2.53778 3.2054 2.55933 3.21432 2.57521 3.23021C2.59109 3.24609 2.60001 3.26763 2.60001 3.29009C2.60001 3.31255 2.59109 3.33409 2.57521 3.34997C2.55933 3.36585 2.53791 3.3749 2.51545 3.3749ZM2.26368 2.76394L1.94865 2.84706C1.94406 2.84833 1.93922 2.84835 1.93462 2.84712C1.93003 2.84588 1.92585 2.84344 1.92252 2.84004C1.9191 2.83672 1.91663 2.83255 1.91537 2.82795C1.91412 2.82335 1.91412 2.8185 1.91538 2.81391L1.99571 2.49948L2.79298 1.70221L3.05914 1.96837L2.26368 2.76394ZM3.65086 1.37665L3.19597 1.83154L2.92981 1.56538L3.3847 1.11049C3.42538 1.06867 3.48012 1.04341 3.53834 1.03959L3.54923 1.03923C3.57208 1.0388 3.59478 1.04294 3.61601 1.05139C3.63725 1.05985 3.65658 1.07245 3.67287 1.08847C3.70784 1.12975 3.72514 1.18314 3.72102 1.23708C3.7169 1.29102 3.69169 1.34116 3.65086 1.37665Z" fill="url(#paint0_linear_28_231)"/>
<defs>
<linearGradient id="paint0_linear_28_231" x1="2" y1="0" x2="2" y2="3.87141" gradientUnits="userSpaceOnUse">
<stop stop-color="#2974C7"/>
<stop offset="1" stop-color="#002B5A"/>
</linearGradient>
</defs>
</svg>
