<svg width="4" height="5" viewBox="0 0 4 5" fill="none" xmlns="http://www.w3.org/2000/svg">
<path d="M2.31934 0C2.46395 0.000123995 2.60288 0.0565928 2.70508 0.15625L3.84082 1.26074C3.89137 1.31006 3.93163 1.3692 3.95898 1.43359C3.98625 1.49794 4.00003 1.5671 4 1.63672V3.71875C4 3.85965 3.94214 3.9951 3.83984 4.09473C3.73759 4.19413 3.59859 4.25 3.4541 4.25H0.545898C0.401408 4.25 0.262414 4.19413 0.160156 4.09473C0.0578637 3.9951 2.8363e-08 3.85965 0 3.71875V0.53125C0 0.390354 0.0578637 0.254902 0.160156 0.155273C0.262414 0.0558678 0.401408 0 0.545898 0H2.31934ZM2 1C1.82718 1.00008 1.67953 1.05782 1.55762 1.17383C1.4357 1.28986 1.375 1.43102 1.375 1.5957V1.83301H1V3.5H3V1.83301H2.625V1.5957C2.62517 1.43118 2.56438 1.29002 2.44238 1.17383C2.3204 1.0577 2.17279 0.999921 2 1ZM2 2.42871C2.06892 2.42887 2.12792 2.45252 2.17676 2.49902C2.22539 2.54548 2.24992 2.60157 2.25 2.66699C2.25 2.73239 2.22566 2.78846 2.17676 2.83496C2.12776 2.88155 2.06875 2.9043 2 2.9043C1.93158 2.90461 1.87249 2.88187 1.82324 2.83496C1.77414 2.78815 1.74983 2.73205 1.75 2.66699C1.75025 2.60191 1.77473 2.54578 1.82324 2.49902C1.87199 2.4522 1.93108 2.42855 2 2.42871ZM2 1.23828C2.10406 1.23828 2.19275 1.2725 2.26562 1.3418C2.33854 1.41124 2.375 1.4965 2.375 1.5957V1.83301H1.625V1.5957C1.625 1.4965 1.66146 1.41124 1.73438 1.3418C1.80725 1.2725 1.89594 1.23828 2 1.23828Z" fill="url(#paint0_linear_28_185)"/>
<defs>
<linearGradient id="paint0_linear_28_185" x1="2" y1="0" x2="2" y2="4.25" gradientUnits="userSpaceOnUse">
<stop stop-color="#2974C7"/>
<stop offset="1" stop-color="#002B5A"/>
</linearGradient>
</defs>
</svg>
