<svg width="4" height="6" viewBox="0 0 4 6" fill="none" xmlns="http://www.w3.org/2000/svg">
<g clip-path="url(#clip0_27_146)">
<path d="M0.666667 0C0.298958 0 0 0.298958 0 0.666667V4.66667C0 5.03438 0.298958 5.33333 0.666667 5.33333H3.33333C3.70104 5.33333 4 5.03438 4 4.66667V1.66667H2.66667C2.48229 1.66667 2.33333 1.51771 2.33333 1.33333V0H0.666667ZM2.66667 0V1.33333H4L2.66667 0ZM0.833333 0.666667H1.5C1.59167 0.666667 1.66667 0.741667 1.66667 0.833333C1.66667 0.925 1.59167 1 1.5 1H0.833333C0.741667 1 0.666667 0.925 0.666667 0.833333C0.666667 0.741667 0.741667 0.666667 0.833333 0.666667ZM0.833333 1.33333H1.5C1.59167 1.33333 1.66667 1.40833 1.66667 1.5C1.66667 1.59167 1.59167 1.66667 1.5 1.66667H0.833333C0.741667 1.66667 0.666667 1.59167 0.666667 1.5C0.666667 1.40833 0.741667 1.33333 0.833333 1.33333ZM1.39792 3.97708C1.33438 4.18854 1.13958 4.33333 0.91875 4.33333H0.833333C0.741667 4.33333 0.666667 4.25833 0.666667 4.16667C0.666667 4.075 0.741667 4 0.833333 4H0.91875C0.992708 4 1.05729 3.95208 1.07812 3.88125L1.23333 3.36563C1.26875 3.24792 1.37708 3.16667 1.5 3.16667C1.62292 3.16667 1.73125 3.24688 1.76667 3.36563L1.8875 3.76771C1.96458 3.70313 2.0625 3.66667 2.16667 3.66667C2.33229 3.66667 2.48333 3.76042 2.55729 3.90833L2.60313 4H3.16667C3.25833 4 3.33333 4.075 3.33333 4.16667C3.33333 4.25833 3.25833 4.33333 3.16667 4.33333H2.5C2.43646 4.33333 2.37917 4.29792 2.35104 4.24167L2.25938 4.05729C2.24167 4.02187 2.20625 4 2.16771 4C2.12917 4 2.09271 4.02187 2.07604 4.05729L1.98438 4.24167C1.95417 4.30313 1.88854 4.33958 1.82083 4.33333C1.75313 4.32708 1.69479 4.28021 1.67604 4.21563L1.5 3.63542L1.39792 3.97708Z" fill="url(#paint0_linear_27_146)"/>
</g>
<defs>
<linearGradient id="paint0_linear_27_146" x1="2" y1="0" x2="2" y2="5.33333" gradientUnits="userSpaceOnUse">
<stop stop-color="#2974C7"/>
<stop offset="1" stop-color="#002B5A"/>
</linearGradient>
<clipPath id="clip0_27_146">
<rect width="4" height="5.33333" fill="white"/>
</clipPath>
</defs>
</svg>
