<svg width="4" height="5" viewBox="0 0 4 5" fill="none" xmlns="http://www.w3.org/2000/svg">
<path d="M1.07189 3.1883C0.963428 3.21797 0.898071 3.30128 0.898071 3.37985C0.898071 3.45842 0.963428 3.54174 1.07189 3.57129V3.1883ZM1.24571 3.76782V4.15069C1.35418 4.12114 1.41953 4.03782 1.41953 3.95926C1.41953 3.88069 1.35418 3.79737 1.24571 3.76782Z" fill="url(#paint0_linear_26_87)"/>
<path fill-rule="evenodd" clip-rule="evenodd" d="M2.31762 3.66956C2.31762 4.30957 1.79882 4.82837 1.15881 4.82837C0.518798 4.82837 0 4.30957 0 3.66956C0 3.02955 0.518798 2.51075 1.15881 2.51075C1.79882 2.51075 2.31762 3.02955 2.31762 3.66956ZM1.15881 2.88736C1.18186 2.88736 1.20396 2.89652 1.22026 2.91282C1.23656 2.92912 1.24572 2.95122 1.24572 2.97427V3.01101C1.4346 3.04484 1.59336 3.1868 1.59336 3.37986C1.59336 3.40291 1.5842 3.42501 1.56791 3.44131C1.55161 3.45761 1.5295 3.46677 1.50645 3.46677C1.4834 3.46677 1.46129 3.45761 1.445 3.44131C1.4287 3.42501 1.41954 3.40291 1.41954 3.37986C1.41954 3.30129 1.35418 3.21797 1.24572 3.1883V3.59041C1.4346 3.62425 1.59336 3.7662 1.59336 3.95926C1.59336 4.15232 1.4346 4.29427 1.24572 4.32811V4.36484C1.24572 4.38789 1.23656 4.41 1.22026 4.4263C1.20396 4.4426 1.18186 4.45175 1.15881 4.45175C1.13576 4.45175 1.11365 4.4426 1.09735 4.4263C1.08105 4.41 1.0719 4.38789 1.0719 4.36484V4.32811C0.883012 4.29427 0.724255 4.15232 0.724255 3.95926C0.724255 3.93621 0.733412 3.9141 0.749711 3.8978C0.76601 3.88151 0.788116 3.87235 0.811166 3.87235C0.834216 3.87235 0.856322 3.88151 0.872621 3.8978C0.88892 3.9141 0.898076 3.93621 0.898076 3.95926C0.898076 4.03783 0.963433 4.12115 1.0719 4.15069V3.7487C0.883012 3.71487 0.724255 3.57291 0.724255 3.37986C0.724255 3.1868 0.883012 3.04484 1.0719 3.01101V2.97427C1.0719 2.95122 1.08105 2.92912 1.09735 2.91282C1.11365 2.89652 1.13576 2.88736 1.15881 2.88736Z" fill="url(#paint1_linear_26_87)"/>
<path d="M1.93629 0V1.66113C1.93629 1.95075 2.07157 2.08879 2.3611 2.08887H3.99977V4.14453C3.99963 4.61492 3.76683 4.85245 3.2986 4.85254H1.81325C2.22902 4.62204 2.51038 4.17897 2.51051 3.66992C2.51051 2.92331 1.90554 2.31746 1.15895 2.31738C0.780347 2.31738 0.438554 2.47384 0.19313 2.72461V0.710938C0.19313 0.240239 0.428398 0.000166817 0.894302 0H1.93629ZM2.24391 0.0244141C2.33893 0.0403992 2.43388 0.106354 2.53786 0.214844L3.78688 1.48438C3.8932 1.59523 3.95952 1.6865 3.97536 1.7793H2.36794C2.28675 1.7792 2.24406 1.73826 2.24391 1.65723V0.0244141Z" fill="url(#paint2_linear_26_87)"/>
<path fill-rule="evenodd" clip-rule="evenodd" d="M2.31762 3.66956C2.31762 4.30957 1.79882 4.82837 1.15881 4.82837C0.518798 4.82837 0 4.30957 0 3.66956C0 3.02955 0.518798 2.51075 1.15881 2.51075C1.79882 2.51075 2.31762 3.02955 2.31762 3.66956ZM1.15881 2.88736C1.18186 2.88736 1.20396 2.89652 1.22026 2.91282C1.23656 2.92912 1.24572 2.95122 1.24572 2.97427V3.01101C1.4346 3.04484 1.59336 3.1868 1.59336 3.37986C1.59336 3.40291 1.5842 3.42501 1.56791 3.44131C1.55161 3.45761 1.5295 3.46677 1.50645 3.46677C1.4834 3.46677 1.46129 3.45761 1.445 3.44131C1.4287 3.42501 1.41954 3.40291 1.41954 3.37986C1.41954 3.30129 1.35418 3.21797 1.24572 3.1883V3.59041C1.4346 3.62425 1.59336 3.7662 1.59336 3.95926C1.59336 4.15232 1.4346 4.29427 1.24572 4.32811V4.36484C1.24572 4.38789 1.23656 4.41 1.22026 4.4263C1.20396 4.4426 1.18186 4.45175 1.15881 4.45175C1.13576 4.45175 1.11365 4.4426 1.09735 4.4263C1.08105 4.41 1.0719 4.38789 1.0719 4.36484V4.32811C0.883012 4.29427 0.724255 4.15232 0.724255 3.95926C0.724255 3.93621 0.733412 3.9141 0.749711 3.8978C0.76601 3.88151 0.788116 3.87235 0.811166 3.87235C0.834216 3.87235 0.856322 3.88151 0.872621 3.8978C0.88892 3.9141 0.898076 3.93621 0.898076 3.95926C0.898076 4.03783 0.963433 4.12115 1.0719 4.15069V3.7487C0.883012 3.71487 0.724255 3.57291 0.724255 3.37986C0.724255 3.1868 0.883012 3.04484 1.0719 3.01101V2.97427C1.0719 2.95122 1.08105 2.92912 1.09735 2.91282C1.11365 2.89652 1.13576 2.88736 1.15881 2.88736Z" fill="url(#paint3_linear_26_87)"/>
<defs>
<linearGradient id="paint0_linear_26_87" x1="1.1588" y1="3.1883" x2="1.1588" y2="4.15069" gradientUnits="userSpaceOnUse">
<stop stop-color="#2974C7"/>
<stop offset="1" stop-color="#002B5A"/>
</linearGradient>
<linearGradient id="paint1_linear_26_87" x1="1.15881" y1="2.51075" x2="1.15881" y2="4.82837" gradientUnits="userSpaceOnUse">
<stop stop-color="#2974C7"/>
<stop offset="1" stop-color="#002B5A"/>
</linearGradient>
<linearGradient id="paint2_linear_26_87" x1="2.09656" y1="0" x2="2.09656" y2="4.85251" gradientUnits="userSpaceOnUse">
<stop stop-color="#2974C7"/>
<stop offset="1" stop-color="#002B5A"/>
</linearGradient>
<linearGradient id="paint3_linear_26_87" x1="1.15881" y1="2.51075" x2="1.15881" y2="4.82837" gradientUnits="userSpaceOnUse">
<stop stop-color="#2974C7"/>
<stop offset="1" stop-color="#002B5A"/>
</linearGradient>
</defs>
</svg>
