<svg width="4" height="6" viewBox="0 0 4 6" fill="none" xmlns="http://www.w3.org/2000/svg">
<path d="M2.19531 0C2.37211 3.77583e-05 2.542 0.0702796 2.66699 0.195312L3.80469 1.33301C3.92972 1.458 3.99996 1.62789 4 1.80469V4.66699C3.99991 4.84361 3.92953 5.01276 3.80469 5.1377C3.67966 5.26272 3.50982 5.33301 3.33301 5.33301H0.666992C0.490181 5.33301 0.320337 5.26272 0.195312 5.1377C0.0704667 5.01276 8.6188e-05 4.84361 0 4.66699V0.666992C0 0.490181 0.0702883 0.320337 0.195312 0.195312C0.320337 0.0702883 0.490181 0 0.666992 0H2.19531ZM3.23535 1.76465C3.1214 1.6507 2.94581 1.63613 2.81641 1.72168L2.76465 1.76465L0.764648 3.76465C0.634475 3.89482 0.634474 4.10518 0.764648 4.23535C0.894823 4.36552 1.10518 4.36552 1.23535 4.23535L3.23535 2.23535L3.27832 2.18359C3.36387 2.05419 3.3493 1.8786 3.23535 1.76465ZM2.72168 3.11133C2.42671 3.11158 2.18011 3.32048 2.12305 3.59863L2.11133 3.72168L2.12305 3.8457C2.18013 4.12384 2.42672 4.33275 2.72168 4.33301C3.05919 4.33301 3.33301 4.05919 3.33301 3.72168C3.33276 3.42671 3.12384 3.18013 2.8457 3.12305L2.72168 3.11133ZM1.27734 1.66699C0.982301 1.6672 0.735757 1.87608 0.678711 2.1543L0.666992 2.27734L0.678711 2.40137C0.735798 2.67953 0.982338 2.88847 1.27734 2.88867C1.61485 2.88867 1.88867 2.61485 1.88867 2.27734C1.88847 1.98234 1.67953 1.7358 1.40137 1.67871L1.27734 1.66699Z" fill="url(#paint0_linear_28_226)"/>
<defs>
<linearGradient id="paint0_linear_28_226" x1="2" y1="0" x2="2" y2="5.33301" gradientUnits="userSpaceOnUse">
<stop stop-color="#2974C7"/>
<stop offset="1" stop-color="#002B5A"/>
</linearGradient>
</defs>
</svg>
