<svg width="4" height="4" viewBox="0 0 4 4" fill="none" xmlns="http://www.w3.org/2000/svg">
<path d="M2.60866 0C2.70086 0 2.78953 0.0363987 2.85475 0.101562C2.91994 0.166752 2.95627 0.255468 2.95631 0.347656V0.695312H3.6526C3.74468 0.695425 3.83259 0.732748 3.89772 0.797852C3.96295 0.863082 4.00026 0.951696 4.00026 1.04395V2.95605C4.00026 3.0483 3.96295 3.13692 3.89772 3.20215C3.83259 3.26725 3.74468 3.30458 3.6526 3.30469H0.8694C0.777212 3.30464 0.688496 3.26734 0.623306 3.20215C0.558275 3.13695 0.521744 3.04815 0.521744 2.95605V2.91895C0.604754 2.94246 0.691944 2.95604 0.782486 2.95605C1.31076 2.95605 1.73952 2.52827 1.73952 2C1.73952 1.47173 1.31076 1.04395 0.782486 1.04395C0.692038 1.04396 0.604678 1.05661 0.521744 1.08008V1.04395C0.521744 0.850958 0.676436 0.695403 0.8694 0.695312H1.56569V0.347656C1.56578 0.154692 1.72036 0 1.91335 0H2.60866ZM1.91335 0.695312H2.60866V0.347656H1.91335V0.695312Z" fill="url(#paint0_linear_26_102)"/>
<defs>
<linearGradient id="paint0_linear_26_102" x1="2.261" y1="0" x2="2.261" y2="3.30469" gradientUnits="userSpaceOnUse">
<stop stop-color="#2974C7"/>
<stop offset="1" stop-color="#002B5A"/>
</linearGradient>
</defs>
</svg>
