<svg width="4" height="6" viewBox="0 0 4 6" fill="none" xmlns="http://www.w3.org/2000/svg">
<path d="M2.19531 0C2.37211 3.77583e-05 2.542 0.0702796 2.66699 0.195312L3.80469 1.33301C3.92972 1.458 3.99996 1.62789 4 1.80469V2.5166C3.90921 2.40312 3.77944 2.33314 3.63867 2.33301C3.37711 2.33301 3.14959 2.57579 3.14941 2.89355C3.14941 3.21542 3.37576 3.46484 3.63867 3.46484C3.78029 3.46471 3.90938 3.39096 4 3.27344V3.75195C3.89027 3.71738 3.76851 3.69727 3.63672 3.69727C3.00354 3.69744 2.6084 4.15933 2.6084 4.49414C2.60842 4.60825 2.67717 4.66699 2.86914 4.66699H4L3.9873 4.79688C3.96177 4.92513 3.89848 5.04383 3.80469 5.1377C3.67966 5.26272 3.50982 5.33301 3.33301 5.33301H0.666992C0.490181 5.33301 0.320337 5.26272 0.195312 5.1377C0.0704667 5.01276 8.60776e-05 4.84361 0 4.66699V0.666992C0 0.490181 0.0702882 0.320337 0.195312 0.195312C0.320337 0.0702882 0.490181 0 0.666992 0H2.19531ZM2.22949 3.69336C1.67809 3.69337 1.33301 4.12587 1.33301 4.48535C1.33316 4.60195 1.39491 4.66699 1.54883 4.66699H2.47754C2.3504 4.47104 2.50565 4.07577 2.76855 3.86035C2.6329 3.76449 2.45787 3.69336 2.22949 3.69336ZM2.23047 2.50977C2.00324 2.50999 1.80246 2.72175 1.80371 2.99805C1.80384 3.27672 2.00203 3.49485 2.23047 3.49512L2.31445 3.48535C2.50478 3.43979 2.65625 3.24157 2.65625 2.99512C2.65625 2.71615 2.45666 2.50977 2.23047 2.50977Z" fill="url(#paint0_linear_28_161)"/>
<defs>
<linearGradient id="paint0_linear_28_161" x1="2" y1="0" x2="2" y2="5.33301" gradientUnits="userSpaceOnUse">
<stop stop-color="#2974C7"/>
<stop offset="1" stop-color="#002B5A"/>
</linearGradient>
</defs>
</svg>
