<svg width="4" height="5" viewBox="0 0 4 5" fill="none" xmlns="http://www.w3.org/2000/svg">
<path d="M1.69824 1.61914C1.69831 1.90132 1.83102 2.03613 2.11328 2.03613H3.70996V4.03809C3.70996 4.49683 3.48294 4.72849 3.02637 4.72852H0.683594C0.22937 4.72844 0 4.49895 0 4.03809V0.692383C8.20402e-05 0.233755 0.229451 7.81668e-05 0.683594 0H1.69824V1.61914ZM1.29883 3.36035V3.83496C1.29883 3.87988 1.31687 3.92331 1.34863 3.95508C1.38028 3.9866 1.42311 4.00477 1.46777 4.00488H2.48438C2.52929 4.00488 2.57273 3.98683 2.60449 3.95508C2.63626 3.92331 2.6543 3.87988 2.6543 3.83496V3.36035L1.97656 2.68262L1.29883 3.36035ZM1.97656 2.44727C1.94662 2.44727 1.91766 2.4593 1.89648 2.48047L1.14551 3.23047C1.14034 3.23568 1.1366 3.24224 1.13379 3.24902C1.13098 3.25585 1.12891 3.26312 1.12891 3.27051C1.12891 3.2779 1.13097 3.28516 1.13379 3.29199C1.1366 3.29878 1.14033 3.30533 1.14551 3.31055C1.15603 3.32107 1.17068 3.32706 1.18555 3.32715C1.19297 3.32715 1.20115 3.32511 1.20801 3.32227C1.21456 3.31947 1.22052 3.31556 1.22559 3.31055L1.97656 2.55957L2.72656 3.31055C2.73711 3.32109 2.7517 3.32708 2.7666 3.32715C2.78153 3.32715 2.79605 3.32106 2.80664 3.31055C2.81724 3.29995 2.82323 3.28549 2.82324 3.27051C2.82324 3.25551 2.81724 3.24107 2.80664 3.23047L2.54102 2.96484V2.59277C2.54097 2.57787 2.53496 2.56328 2.52441 2.55273C2.51384 2.54225 2.49927 2.53613 2.48438 2.53613H2.37207C2.35725 2.53613 2.34259 2.54235 2.33203 2.55273C2.32149 2.56328 2.31548 2.57787 2.31543 2.59277V2.73926L2.05664 2.48047C2.03551 2.45935 2.00644 2.44732 1.97656 2.44727ZM1.99805 0.0244141C2.09075 0.0399418 2.1837 0.10409 2.28516 0.209961L3.50293 1.44727C3.60629 1.55507 3.67004 1.64314 3.68555 1.7334H2.12012C2.04069 1.7334 1.99805 1.69359 1.99805 1.61426V0.0244141Z" fill="url(#paint0_linear_26_128)"/>
<defs>
<linearGradient id="paint0_linear_26_128" x1="1.85498" y1="0" x2="1.85498" y2="4.72852" gradientUnits="userSpaceOnUse">
<stop stop-color="#2974C7"/>
<stop offset="1" stop-color="#002B5A"/>
</linearGradient>
</defs>
</svg>
