<svg width="3" height="4" viewBox="0 0 3 4" fill="none" xmlns="http://www.w3.org/2000/svg">
<path d="M1.73926 0C1.84772 9.54829e-05 1.95265 0.0433758 2.0293 0.120117L2.87988 0.970703C2.91781 1.00866 2.94821 1.05395 2.96875 1.10352C2.98929 1.15317 3.00002 1.20701 3 1.26074V2.86328C3 2.97178 2.9566 3.0766 2.87988 3.15332C2.8032 3.22982 2.69915 3.27246 2.59082 3.27246H0.40918C0.300849 3.27246 0.196802 3.22982 0.120117 3.15332C0.0433978 3.0766 0 2.97178 0 2.86328V0.40918C0 0.300682 0.0433978 0.196837 0.120117 0.120117C0.196837 0.0433978 0.300682 0 0.40918 0H1.73926ZM1.2002 0.818359V1.0498C0.978913 1.10385 0.818609 1.26445 0.818359 1.4541C0.818359 1.74895 1.10662 1.81976 1.33789 1.87598C1.57749 1.93212 1.69037 1.9743 1.69043 2.09082C1.69043 2.20537 1.5411 2.30273 1.36328 2.30273C1.18562 2.3026 1.03613 2.20529 1.03613 2.09082H0.818359C0.818359 2.28067 0.978741 2.442 1.2002 2.49609V2.72754H1.52734V2.49609C1.74877 2.44199 1.90918 2.28065 1.90918 2.09082C1.90912 1.79605 1.6209 1.72613 1.38965 1.66992C1.14975 1.61373 1.03613 1.57074 1.03613 1.4541C1.03652 1.33982 1.18585 1.24232 1.36328 1.24219C1.54087 1.24219 1.69004 1.33975 1.69043 1.4541H1.90918C1.90893 1.26449 1.74854 1.10389 1.52734 1.0498V0.818359H1.2002Z" fill="url(#paint0_linear_54_60)"/>
<defs>
<linearGradient id="paint0_linear_54_60" x1="1.5" y1="0" x2="1.5" y2="3.27246" gradientUnits="userSpaceOnUse">
<stop stop-color="#002B5A"/>
<stop offset="1" stop-color="#005CC0"/>
</linearGradient>
</defs>
</svg>
