<svg width="4" height="4" viewBox="0 0 4 4" fill="none" xmlns="http://www.w3.org/2000/svg">
<path d="M2.48913 2.03183L2.77074 2.27362C2.82997 2.32452 2.85963 2.34992 2.88452 2.37867C2.92415 2.42449 2.95533 2.47691 2.97626 2.53329C2.98927 2.56844 2.99709 2.60593 3.01263 2.681C3.02828 2.75659 3.03183 2.89536 3.03183 2.94616M1.5427 2.03183L1.26109 2.27362C1.20186 2.32452 1.1723 2.34992 1.14741 2.37867C1.10788 2.42434 1.07681 2.4767 1.05567 2.53329C1.04257 2.56844 1.03485 2.60593 1.0193 2.681C1.00366 2.75659 1 2.89536 1 2.94616" stroke="url(#paint0_linear_54_73)" stroke-width="0.152387" stroke-linecap="round" stroke-linejoin="round"/>
<path d="M2.47308 1.82865C2.47308 2.10925 2.26837 2.33661 2.01592 2.33661C1.76346 2.33661 1.55876 2.10914 1.55876 1.82865M2.47308 1.82865C2.47308 1.61957 2.39353 1.36214 2.2191 1.36214C2.13956 1.36214 2.11751 1.47308 2.01592 1.47308C1.91433 1.47308 1.89228 1.36214 1.81274 1.36214C1.6383 1.36214 1.55876 1.61957 1.55876 1.82865M2.47308 1.82865V1.93024C2.47309 1.96509 2.48207 1.99934 2.49914 2.02972C2.51621 2.06009 2.54081 2.08556 2.57057 2.10369C2.60032 2.12182 2.63424 2.13199 2.66907 2.13322C2.70389 2.13445 2.73844 2.12671 2.76941 2.11074C2.80038 2.09477 2.82671 2.0711 2.84589 2.04201C2.86507 2.01292 2.87645 1.97938 2.87893 1.94463C2.88141 1.90987 2.87491 1.87506 2.86006 1.84355C2.8452 1.81203 2.82249 1.78486 2.79411 1.76465C2.83265 1.73045 2.85988 1.68533 2.87218 1.63529C2.88448 1.58525 2.88127 1.53265 2.86297 1.48448C2.84467 1.43631 2.81215 1.39484 2.76973 1.36559C2.72731 1.33634 2.677 1.32068 2.62547 1.32069C2.62547 1.09617 2.37149 0.914326 2.01592 0.914326C1.66035 0.914326 1.40637 1.09617 1.40637 1.32069C1.35484 1.32068 1.30452 1.33634 1.2621 1.36559C1.21968 1.39484 1.18716 1.43631 1.16887 1.48448C1.15057 1.53265 1.14735 1.58525 1.15965 1.63529C1.17195 1.68533 1.19918 1.73045 1.23773 1.76465C1.20934 1.78486 1.18663 1.81203 1.17178 1.84355C1.15692 1.87506 1.15042 1.90987 1.15291 1.94463C1.15539 1.97938 1.16676 2.01292 1.18594 2.04201C1.20512 2.0711 1.23146 2.09477 1.26243 2.11074C1.29339 2.12671 1.32795 2.13445 1.36277 2.13322C1.39759 2.13199 1.43151 2.12182 1.46127 2.10369C1.49103 2.08556 1.51563 2.06009 1.5327 2.02972C1.54977 1.99934 1.55874 1.96509 1.55876 1.93024V1.82865M2.22215 2.33661L2.33776 2.67867C2.40989 2.89181 2.37596 2.94616 2.1422 2.94616H1.88964C1.65588 2.94616 1.62205 2.89181 1.69408 2.67867L1.80979 2.33661" stroke="url(#paint1_linear_54_73)" stroke-width="0.152387" stroke-linecap="round" stroke-linejoin="round"/>
<path d="M3.51591 9.53674e-07C3.24856 9.53674e-07 3.03183 0.21673 3.03183 0.484085C3.03183 0.75144 3.24856 0.968169 3.51591 0.968169C3.78327 0.968169 4 0.75144 4 0.484085C4 0.21673 3.78327 9.53674e-07 3.51591 9.53674e-07ZM3.55771 0.746544V0.814723H3.4925V0.74731C3.38548 0.732655 3.33862 0.644725 3.33862 0.644725L3.40523 0.589002C3.40523 0.589002 3.44777 0.663043 3.52471 0.663043C3.56721 0.663043 3.59945 0.640295 3.59945 0.601426C3.59945 0.510564 3.35464 0.521589 3.35464 0.353022C3.35464 0.279746 3.4126 0.226955 3.49247 0.214465V0.146352H3.55768V0.214465C3.61337 0.221792 3.67932 0.251102 3.67932 0.314153V0.362514H3.59285V0.339066C3.59285 0.314885 3.56204 0.298765 3.52757 0.298765C3.48361 0.298765 3.4514 0.320747 3.4514 0.351523C3.4514 0.444583 3.6962 0.421867 3.6962 0.598494C3.6962 0.671104 3.64198 0.734054 3.55771 0.746544Z" fill="url(#paint2_linear_54_73)"/>
<defs>
<linearGradient id="paint0_linear_54_73" x1="2.01592" y1="2.03183" x2="2.01592" y2="2.94616" gradientUnits="userSpaceOnUse">
<stop stop-color="#002B5A"/>
<stop offset="1" stop-color="#005CC0"/>
</linearGradient>
<linearGradient id="paint1_linear_54_73" x1="2.01592" y1="0.914326" x2="2.01592" y2="2.94616" gradientUnits="userSpaceOnUse">
<stop stop-color="#002B5A"/>
<stop offset="1" stop-color="#005CC0"/>
</linearGradient>
<linearGradient id="paint2_linear_54_73" x1="3.51591" y1="9.53674e-07" x2="3.51591" y2="0.968169" gradientUnits="userSpaceOnUse">
<stop stop-color="#002B5A"/>
<stop offset="1" stop-color="#005CC0"/>
</linearGradient>
</defs>
</svg>
