<svg width="3" height="4" viewBox="0 0 3 4" fill="none" xmlns="http://www.w3.org/2000/svg">
<path fill-rule="evenodd" clip-rule="evenodd" d="M0 1.05386C0 0.960696 0.0370106 0.871345 0.10289 0.805466C0.168769 0.739586 0.258121 0.702576 0.351288 0.702576H1.15679C1.24995 0.702596 1.33929 0.739619 1.40515 0.805503L2.0048 1.40515C2.07068 1.47102 2.10771 1.56035 2.10773 1.65351V3.16159C2.10773 3.25476 2.07072 3.34411 2.00484 3.40999C1.93896 3.47587 1.84961 3.51288 1.75644 3.51288H0.351288C0.258121 3.51288 0.168769 3.47587 0.10289 3.40999C0.0370106 3.34411 0 3.25476 0 3.16159V1.05386Z" fill="url(#paint0_linear_54_74)"/>
<path d="M2.98701 0.816636L2.56053 0.390158L2.62272 0.327075L2.65471 0.358616C2.65882 0.362735 2.6637 0.366002 2.66907 0.368231C2.67445 0.370461 2.68021 0.371608 2.68603 0.371608C2.69185 0.371608 2.69761 0.370461 2.70298 0.368231C2.70836 0.366002 2.71324 0.362735 2.71735 0.358616L2.74889 0.327075C2.75301 0.322965 2.75627 0.318083 2.7585 0.312709C2.76073 0.307335 2.76188 0.301574 2.76188 0.295755C2.76188 0.289937 2.76073 0.284176 2.7585 0.278802C2.75627 0.273428 2.75301 0.268546 2.74889 0.264436L2.49744 0.0129918C2.49333 0.00887343 2.48845 0.0056061 2.48308 0.0033768C2.4777 0.0011475 2.47194 0 2.46613 0C2.46031 0 2.45455 0.0011475 2.44917 0.0033768C2.4438 0.0056061 2.43892 0.00887343 2.43481 0.0129918L2.40326 0.0445334C2.38594 0.061859 2.38594 0.0898466 2.40326 0.107172L2.43481 0.137825L2.37172 0.201353C2.36761 0.197234 2.36273 0.193967 2.35736 0.191738C2.35198 0.189509 2.34622 0.188361 2.3404 0.188361C2.33458 0.188361 2.32882 0.189509 2.32345 0.191738C2.31808 0.193967 2.31319 0.197234 2.30908 0.201353C2.29176 0.218678 2.29176 0.24711 2.30908 0.264436L2.24644 0.327075L2.2149 0.295533C2.19758 0.278208 2.16915 0.278208 2.15182 0.295533L2.12072 0.327075C2.1034 0.344401 2.1034 0.372832 2.12072 0.390158L2.37172 0.641158C2.38905 0.658484 2.41748 0.658484 2.43481 0.641158L2.4659 0.610061C2.47012 0.605962 2.47347 0.601058 2.47576 0.595641C2.47805 0.590223 2.47923 0.584401 2.47923 0.578519C2.47923 0.572637 2.47805 0.566815 2.47576 0.561398C2.47347 0.55598 2.47012 0.551076 2.4659 0.546978L2.43481 0.515436L2.49744 0.452797L2.92437 0.879719C2.92848 0.883837 2.93336 0.887105 2.93873 0.889334C2.94411 0.891563 2.94987 0.892711 2.95569 0.892711C2.9615 0.892711 2.96727 0.891563 2.97264 0.889334C2.97801 0.887105 2.9829 0.883837 2.98701 0.879719C3.00433 0.862393 3.00433 0.833962 2.98701 0.816636ZM2.20069 0.759772C2.17712 0.759772 2.15452 0.769133 2.13786 0.785796C2.1212 0.802458 2.11184 0.825057 2.11184 0.848622V0.893046H2.55609V0.848622C2.55609 0.825057 2.54672 0.802458 2.53006 0.785796C2.5134 0.769133 2.4908 0.759772 2.46724 0.759772H2.20069Z" fill="url(#paint1_linear_54_74)"/>
<defs>
<linearGradient id="paint0_linear_54_74" x1="1.05386" y1="0.702576" x2="1.05386" y2="3.51288" gradientUnits="userSpaceOnUse">
<stop stop-color="#002B5A"/>
<stop offset="1" stop-color="#005CC0"/>
</linearGradient>
<linearGradient id="paint1_linear_54_74" x1="2.55386" y1="0" x2="2.55386" y2="0.893046" gradientUnits="userSpaceOnUse">
<stop stop-color="#002B5A"/>
<stop offset="1" stop-color="#005CC0"/>
</linearGradient>
</defs>
</svg>
