<svg width="4" height="5" viewBox="0 0 4 5" fill="none" xmlns="http://www.w3.org/2000/svg">
<path d="M2.37241 0.931033V0.434482H2.18621C2.13682 0.434482 2.08946 0.4541 2.05454 0.48902C2.01962 0.523941 2 0.571303 2 0.620689V1.73793C2.00009 1.74946 2.00339 1.76073 2.00953 1.77049C2.01567 1.78024 2.02441 1.7881 2.03476 1.79317C2.04473 1.79771 2.05573 1.79952 2.06663 1.79843C2.07753 1.79734 2.08795 1.79339 2.09683 1.78696L2.41648 1.55172H3.25069C3.27421 1.55242 3.29763 1.54828 3.31949 1.53955C3.34135 1.53083 3.36118 1.51771 3.37777 1.50101C3.39435 1.48432 3.40733 1.46439 3.4159 1.44247C3.42447 1.42055 3.42845 1.3971 3.42759 1.37358V1.30345H2.74483C2.64606 1.30345 2.55133 1.26421 2.48149 1.19437C2.41165 1.12453 2.37241 1.0298 2.37241 0.931033Z" fill="url(#paint0_linear_54_50)"/>
<path d="M3.8 -1.90735e-06H2.74483C2.69545 -1.90735e-06 2.64808 0.0196163 2.61316 0.0545368C2.57824 0.0894574 2.55862 0.13682 2.55862 0.186205V0.931033C2.55862 0.980418 2.57824 1.02778 2.61316 1.0627C2.64808 1.09762 2.69545 1.11724 2.74483 1.11724H3.58587L3.88256 1.34752C3.89138 1.35404 3.90177 1.3581 3.91267 1.3593C3.92357 1.3605 3.9346 1.35879 3.94462 1.35434C3.95519 1.34931 3.96411 1.3414 3.97037 1.33152C3.97663 1.32163 3.97997 1.31018 3.98 1.29848V0.186205C3.98003 0.137877 3.96127 0.0914311 3.92768 0.0566836C3.89409 0.0219361 3.8483 0.00160903 3.8 -1.90735e-06Z" fill="url(#paint1_linear_54_50)"/>
<path d="M0 3.875C0 3.56469 0.749563 3.375 1.125 3.375C1.5005 3.375 2.25 3.56469 2.25 3.875V4.25H0V3.875Z" fill="url(#paint2_linear_54_50)"/>
<path fill-rule="evenodd" clip-rule="evenodd" d="M1.125 3.25C1.47019 3.25 1.75 2.97019 1.75 2.625C1.75 2.27981 1.47019 2 1.125 2C0.779813 2 0.5 2.27981 0.5 2.625C0.5 2.97019 0.779813 3.25 1.125 3.25Z" fill="url(#paint3_linear_54_50)"/>
<defs>
<linearGradient id="paint0_linear_54_50" x1="2.71385" y1="0.434482" x2="2.71385" y2="1.79874" gradientUnits="userSpaceOnUse">
<stop stop-color="#002B5A"/>
<stop offset="1" stop-color="#005CC0"/>
</linearGradient>
<linearGradient id="paint1_linear_54_50" x1="3.26931" y1="-1.90735e-06" x2="3.26931" y2="1.35968" gradientUnits="userSpaceOnUse">
<stop stop-color="#002B5A"/>
<stop offset="1" stop-color="#005CC0"/>
</linearGradient>
<linearGradient id="paint2_linear_54_50" x1="1.125" y1="3.375" x2="1.125" y2="4.25" gradientUnits="userSpaceOnUse">
<stop stop-color="#002B5A"/>
<stop offset="1" stop-color="#005CC0"/>
</linearGradient>
<linearGradient id="paint3_linear_54_50" x1="1.125" y1="2" x2="1.125" y2="3.25" gradientUnits="userSpaceOnUse">
<stop stop-color="#002B5A"/>
<stop offset="1" stop-color="#005CC0"/>
</linearGradient>
</defs>
</svg>
