<svg width="2" height="2" viewBox="0 0 2 2" fill="none" xmlns="http://www.w3.org/2000/svg">
<path d="M0 1.608C0 1.4094 0.47972 1.288 0.72 1.288C0.96032 1.288 1.44 1.4094 1.44 1.608V1.848H0V1.608Z" fill="url(#paint0_linear_55_99)"/>
<path fill-rule="evenodd" clip-rule="evenodd" d="M0.72 1.208C0.94092 1.208 1.12 1.02892 1.12 0.808C1.12 0.58708 0.94092 0.408 0.72 0.408C0.49908 0.408 0.32 0.58708 0.32 0.808C0.32 1.02892 0.49908 1.208 0.72 1.208Z" fill="url(#paint1_linear_55_99)"/>
<path d="M1.77594 0C1.79079 0 1.80548 0.00609953 1.81598 0.0166016C1.82622 0.0269948 1.83152 0.04107 1.8316 0.0556641V0.112305H1.94391C1.95873 0.112305 1.97345 0.117466 1.98395 0.12793C1.99444 0.138424 1.99956 0.153128 1.99957 0.167969V0.475586C1.99957 0.490363 1.99435 0.505139 1.98395 0.515625C1.97345 0.526127 1.95876 0.532227 1.94391 0.532227H1.49567C1.48099 0.532139 1.46702 0.525977 1.4566 0.515625C1.4461 0.505123 1.44 0.490438 1.44 0.475586V0.167969C1.44002 0.137016 1.46475 0.112484 1.49567 0.112305H1.60797V0.0556641C1.60815 0.0248629 1.63284 0.000194657 1.66364 0H1.77594ZM1.7066 0.167969C1.62156 0.167969 1.55232 0.237226 1.55231 0.322266C1.55247 0.407183 1.62165 0.475586 1.7066 0.475586C1.79128 0.475262 1.85976 0.406982 1.85992 0.322266C1.85991 0.237426 1.79137 0.168294 1.7066 0.167969ZM1.71442 0.22168C1.71643 0.223788 1.71829 0.226582 1.71832 0.229492V0.234375C1.74301 0.239085 1.76406 0.257944 1.76422 0.283203C1.76422 0.286189 1.7624 0.289813 1.76031 0.291992C1.75826 0.29387 1.75529 0.294855 1.7525 0.294922C1.74968 0.294921 1.74679 0.293848 1.74469 0.291992C1.74252 0.289826 1.74078 0.286266 1.74078 0.283203C1.74063 0.273007 1.73221 0.261871 1.71832 0.257812V0.311523C1.74305 0.31625 1.76414 0.335027 1.76422 0.360352C1.76422 0.385733 1.74307 0.404428 1.71832 0.40918V0.414062C1.71832 0.417048 1.71651 0.420673 1.71442 0.422852C1.71242 0.424764 1.70937 0.425654 1.7066 0.425781C1.70361 0.425781 1.69999 0.424911 1.69781 0.422852C1.69565 0.420686 1.69489 0.417124 1.69489 0.414062V0.40918C1.66978 0.404683 1.64899 0.386008 1.64899 0.360352C1.64902 0.357408 1.64987 0.354654 1.65192 0.352539C1.65398 0.350536 1.65688 0.348724 1.65973 0.348633C1.66272 0.348742 1.66642 0.350444 1.66852 0.352539L1.67731 0.375977C1.68136 0.380448 1.68777 0.383804 1.69489 0.385742V0.332031C1.66978 0.327534 1.64899 0.30886 1.64899 0.283203C1.64915 0.2577 1.66988 0.238854 1.69489 0.234375V0.229492C1.69491 0.226611 1.69586 0.223785 1.69781 0.22168C1.69999 0.219593 1.70362 0.217773 1.7066 0.217773C1.70945 0.217953 1.71239 0.219654 1.71442 0.22168ZM1.71832 0.385742C1.73228 0.381636 1.74078 0.370607 1.74078 0.360352C1.7407 0.350121 1.73226 0.339031 1.71832 0.334961V0.385742ZM1.69489 0.257812C1.68061 0.261717 1.67161 0.27285 1.67145 0.283203C1.67145 0.293644 1.68047 0.304667 1.69489 0.308594V0.257812ZM1.66364 0.112305H1.77594V0.0556641H1.66364V0.112305Z" fill="url(#paint2_linear_55_99)"/>
<defs>
<linearGradient id="paint0_linear_55_99" x1="0.72" y1="1.288" x2="0.72" y2="1.848" gradientUnits="userSpaceOnUse">
<stop stop-color="#002B5A"/>
<stop offset="1" stop-color="#005CC0"/>
</linearGradient>
<linearGradient id="paint1_linear_55_99" x1="0.72" y1="0.408" x2="0.72" y2="1.208" gradientUnits="userSpaceOnUse">
<stop stop-color="#002B5A"/>
<stop offset="1" stop-color="#005CC0"/>
</linearGradient>
<linearGradient id="paint2_linear_55_99" x1="1.71979" y1="0" x2="1.71979" y2="0.532227" gradientUnits="userSpaceOnUse">
<stop stop-color="#002B5A"/>
<stop offset="1" stop-color="#005CC0"/>
</linearGradient>
</defs>
</svg>
