<svg width="4" height="4" viewBox="0 0 4 4" fill="none" xmlns="http://www.w3.org/2000/svg">
<path d="M0.245395 1.72546L1.22699 2.34854L2.20858 1.72546V1.47623L1.22699 2.09931L0.245395 1.47623M0.245395 1.22699H2.20858C2.34478 1.22699 2.45398 1.3379 2.45398 1.47623V2.97163C2.45398 3.03773 2.42813 3.10112 2.3821 3.14786C2.33608 3.1946 2.27366 3.22086 2.20858 3.22086H0.245395C0.180311 3.22086 0.117893 3.1946 0.071872 3.14786C0.0258508 3.10112 -3.57628e-06 3.03773 -3.57628e-06 2.97163V1.47623C-3.57628e-06 1.41013 0.0258508 1.34673 0.071872 1.29999C0.117893 1.25325 0.180311 1.22699 0.245395 1.22699Z" fill="url(#paint0_linear_54_65)"/>
<path d="M3.98195 1.13422L3.38962 0.541885L3.47601 0.45427L3.52043 0.498078C3.52614 0.503798 3.53292 0.508336 3.54038 0.511432C3.54785 0.514528 3.55585 0.516122 3.56393 0.516122C3.57201 0.516122 3.58001 0.514528 3.58748 0.511432C3.59494 0.508336 3.60172 0.503798 3.60743 0.498078L3.65124 0.45427C3.65696 0.448562 3.66149 0.441782 3.66459 0.434318C3.66769 0.426853 3.66928 0.418852 3.66928 0.410771C3.66928 0.40269 3.66769 0.394689 3.66459 0.387224C3.66149 0.37976 3.65696 0.37298 3.65124 0.367272L3.30201 0.0180441C3.2963 0.0123242 3.28952 0.00778623 3.28206 0.00468999C3.27459 0.00159374 3.26659 0 3.25851 0C3.25043 0 3.24243 0.00159374 3.23496 0.00468999C3.2275 0.00778623 3.22072 0.0123242 3.21501 0.0180441L3.1712 0.0618518C3.14714 0.0859152 3.14714 0.124787 3.1712 0.14885L3.21501 0.191424L3.1274 0.279656C3.12169 0.273936 3.11491 0.269398 3.10744 0.266302C3.09998 0.263206 3.09198 0.261612 3.0839 0.261612C3.07582 0.261612 3.06781 0.263206 3.06035 0.266302C3.05289 0.269398 3.04611 0.273936 3.0404 0.279656C3.01633 0.30372 3.01633 0.343208 3.0404 0.367272L2.9534 0.45427L2.90959 0.410462C2.88553 0.386399 2.84604 0.386399 2.82198 0.410462L2.77879 0.45427C2.75472 0.478334 2.75472 0.517822 2.77879 0.541885L3.1274 0.890496C3.15146 0.914559 3.19095 0.914559 3.21501 0.890496L3.2582 0.847305C3.26406 0.841612 3.26872 0.834802 3.2719 0.827277C3.27508 0.819753 3.27672 0.811667 3.27672 0.803498C3.27672 0.795329 3.27508 0.787243 3.2719 0.779718C3.26872 0.772193 3.26406 0.765383 3.2582 0.75969L3.21501 0.715882L3.30201 0.628884L3.89495 1.22183C3.90066 1.22755 3.90744 1.23209 3.91491 1.23518C3.92237 1.23828 3.93037 1.23987 3.93845 1.23987C3.94653 1.23987 3.95454 1.23828 3.962 1.23518C3.96946 1.23209 3.97624 1.22755 3.98195 1.22183C4.00602 1.19777 4.00602 1.15828 3.98195 1.13422ZM2.88985 1.05524C2.85712 1.05524 2.82573 1.06824 2.80259 1.09138C2.77945 1.11452 2.76645 1.14591 2.76645 1.17864V1.24034H3.38345V1.17864C3.38345 1.14591 3.37045 1.11452 3.34731 1.09138C3.32417 1.06824 3.29278 1.05524 3.26005 1.05524H2.88985Z" fill="url(#paint1_linear_54_65)"/>
<defs>
<linearGradient id="paint0_linear_54_65" x1="1.22699" y1="1.22699" x2="1.22699" y2="3.22086" gradientUnits="userSpaceOnUse">
<stop stop-color="#002B5A"/>
<stop offset="1" stop-color="#005CC0"/>
</linearGradient>
<linearGradient id="paint1_linear_54_65" x1="3.38037" y1="0" x2="3.38037" y2="1.24034" gradientUnits="userSpaceOnUse">
<stop stop-color="#002B5A"/>
<stop offset="1" stop-color="#005CC0"/>
</linearGradient>
</defs>
</svg>
