<svg width="3" height="3" viewBox="0 0 3 3" fill="none" xmlns="http://www.w3.org/2000/svg">
<path d="M2.67272 0.204544V0.327272L2.83636 0.163635L2.67272 -9.53674e-07V0.122726C2.58593 0.122726 2.50268 0.157207 2.44131 0.218582C2.37993 0.279958 2.34545 0.363201 2.34545 0.449999C2.34545 0.514226 2.36427 0.573954 2.39618 0.624272L2.45591 0.564544C2.43702 0.529322 2.42718 0.489963 2.42727 0.449999C2.42727 0.3849 2.45313 0.322468 2.49916 0.276436C2.54519 0.230405 2.60763 0.204544 2.67272 0.204544ZM2.94927 0.275726L2.88954 0.335454C2.90754 0.369817 2.91818 0.40909 2.91818 0.449999C2.91818 0.515098 2.89232 0.57753 2.84629 0.623562C2.80026 0.669593 2.73782 0.695454 2.67272 0.695454V0.572726L2.50909 0.736363L2.67272 0.899999V0.777272C2.75952 0.777272 2.84277 0.742791 2.90414 0.681416C2.96552 0.62004 3 0.536797 3 0.449999C3 0.385772 2.98118 0.326044 2.94927 0.275726Z" fill="url(#paint0_linear_54_84)"/>
<path d="M2.07273 1.97045C2.07273 1.94875 2.06411 1.92794 2.04876 1.9126C2.03342 1.89726 2.01261 1.88864 1.99091 1.88864H1.66364C1.64194 1.88864 1.62113 1.89726 1.60578 1.9126C1.59044 1.92794 1.58182 1.94875 1.58182 1.97045V2.70682H1.41818V0.93409C1.41818 0.854672 1.41796 0.803181 1.41295 0.765436C1.40815 0.729981 1.4004 0.718854 1.39418 0.712636C1.38796 0.706418 1.37684 0.698672 1.34138 0.693872C1.30353 0.688854 1.25215 0.688636 1.17273 0.688636C1.09331 0.688636 1.04182 0.688854 1.00407 0.693872C0.968618 0.698672 0.957491 0.706418 0.951273 0.712636C0.945055 0.718854 0.937309 0.729981 0.932509 0.765436C0.927491 0.80329 0.927273 0.854672 0.927273 0.93409V2.70682H0.763636V1.425C0.763636 1.4033 0.755016 1.38249 0.739672 1.36715C0.724328 1.3518 0.703518 1.34318 0.681818 1.34318H0.354545C0.332846 1.34318 0.312035 1.3518 0.296691 1.36715C0.281347 1.38249 0.272727 1.4033 0.272727 1.425V2.70682H0.0818182C0.0601186 2.70682 0.0393079 2.71544 0.023964 2.73078C0.00862011 2.74613 0 2.76694 0 2.78864C0 2.81034 0.00862011 2.83115 0.023964 2.84649C0.0393079 2.86183 0.0601186 2.87045 0.0818182 2.87045H2.26364C2.28534 2.87045 2.30615 2.86183 2.32149 2.84649C2.33683 2.83115 2.34545 2.81034 2.34545 2.78864C2.34545 2.76694 2.33683 2.74613 2.32149 2.73078C2.30615 2.71544 2.28534 2.70682 2.26364 2.70682H2.07273V1.97045Z" fill="url(#paint1_linear_54_84)"/>
<defs>
<linearGradient id="paint0_linear_54_84" x1="2.67272" y1="-9.53674e-07" x2="2.67272" y2="0.899999" gradientUnits="userSpaceOnUse">
<stop stop-color="#002B5A"/>
<stop offset="1" stop-color="#005CC0"/>
</linearGradient>
<linearGradient id="paint1_linear_54_84" x1="1.17273" y1="0.688636" x2="1.17273" y2="2.87045" gradientUnits="userSpaceOnUse">
<stop stop-color="#002B5A"/>
<stop offset="1" stop-color="#005CC0"/>
</linearGradient>
</defs>
</svg>
