<svg width="4" height="4" viewBox="0 0 4 4" fill="none" xmlns="http://www.w3.org/2000/svg">
<path d="M1.3305 2.62239H1.33776C1.49319 2.62653 1.61753 2.75295 1.61753 2.90838C1.61753 3.04102 1.52738 3.15189 1.40511 3.18505V3.30111C1.40511 3.34256 1.37195 3.37572 1.3305 3.37572C1.28905 3.37572 1.2559 3.34256 1.2559 3.30111V3.18505C1.19502 3.16867 1.14123 3.13269 1.10284 3.08269C1.06444 3.03268 1.04358 2.97143 1.04347 2.90838C1.04347 2.86694 1.07663 2.83378 1.11808 2.83378C1.15953 2.83378 1.19269 2.86694 1.19269 2.90838C1.19269 2.98506 1.25382 3.0462 1.32947 3.0462C1.40511 3.0462 1.46728 2.98403 1.46728 2.90838C1.46728 2.83274 1.40511 2.77057 1.32947 2.77057H1.32221C1.24767 2.76854 1.17685 2.73754 1.1248 2.68414C1.07276 2.63073 1.04358 2.55914 1.04347 2.48457C1.04347 2.35194 1.13362 2.24106 1.2559 2.2079V2.09185C1.2559 2.0504 1.28905 2.01724 1.3305 2.01724C1.37195 2.01724 1.40511 2.0504 1.40511 2.09185V2.2079C1.52738 2.24106 1.61753 2.35194 1.61753 2.48457C1.61753 2.52602 1.58438 2.55918 1.54293 2.55918C1.50148 2.55918 1.46832 2.52602 1.46832 2.48457C1.46832 2.40893 1.40615 2.34676 1.3305 2.34676C1.25486 2.34676 1.19269 2.40893 1.19269 2.48457C1.19269 2.56022 1.25486 2.62239 1.3305 2.62239Z" fill="url(#paint0_linear_52_33)"/>
<path d="M0.780476 1.1463L1.06916 1.48411L1.03797 1.51892C0.44381 1.65218 0 2.18283 0 2.8172C0 3.37489 0.452618 3.8275 1.01031 3.8275H1.64965C2.20734 3.8275 2.65996 3.37499 2.65996 2.8173C2.661 2.18283 2.21719 1.65218 1.62302 1.51892C1.62546 1.49703 1.6215 1.47489 1.61162 1.4552L1.85721 1.17407L1.87306 1.14962C1.89157 1.10924 1.89631 1.0639 1.88654 1.02057C1.87677 0.977234 1.85303 0.938311 1.81898 0.909784C1.78494 0.881256 1.74246 0.864705 1.69808 0.862674C1.65371 0.860643 1.6099 0.873246 1.57339 0.898544L1.48603 0.794922C1.46644 0.772994 1.44244 0.755441 1.41561 0.743407C1.38878 0.731373 1.35971 0.725128 1.3303 0.725079C1.3009 0.72503 1.27181 0.731178 1.24493 0.743123C1.21806 0.755068 1.19401 0.772541 1.17434 0.794404L1.08284 0.896575C1.04643 0.870751 1.00251 0.857646 0.957899 0.859287C0.913284 0.860928 0.870453 0.877223 0.836031 0.905653C0.801609 0.934083 0.777513 0.973062 0.767471 1.01656C0.757428 1.06006 0.761999 1.10566 0.780476 1.1463ZM1.17413 1.28982L0.998392 1.08672C1.03923 1.10636 1.08542 1.11192 1.12975 1.10255C1.17408 1.09318 1.21406 1.06939 1.24346 1.03491L1.32635 0.92735L1.41837 1.03636C1.44706 1.06972 1.48576 1.09292 1.52871 1.1025C1.57166 1.11208 1.61655 1.10753 1.6567 1.08952L1.48178 1.28982H1.17413ZM0.207243 2.8172C0.207243 2.19671 0.710013 1.69394 1.3305 1.69394C1.95098 1.69394 2.45375 2.19671 2.45272 2.81699V2.8172C2.45263 3.03016 2.368 3.23437 2.21741 3.38496C2.06683 3.53554 1.86261 3.62018 1.64965 3.62026H1.01031C0.797347 3.62018 0.593132 3.53554 0.442546 3.38496C0.29196 3.23437 0.207325 3.03016 0.207243 2.8172Z" fill="url(#paint1_linear_52_33)"/>
<path d="M3.90165 1.15323L3.29939 0.550968L3.38722 0.461884L3.43239 0.506426C3.43819 0.512242 3.44509 0.516856 3.45268 0.520004C3.46027 0.523152 3.4684 0.524773 3.47662 0.524773C3.48483 0.524773 3.49297 0.523152 3.50056 0.520004C3.50815 0.516856 3.51504 0.512242 3.52085 0.506426L3.56539 0.461884C3.5712 0.45608 3.57582 0.449186 3.57897 0.441597C3.58211 0.434008 3.58373 0.425872 3.58373 0.417656C3.58373 0.409439 3.58211 0.401304 3.57897 0.393715C3.57582 0.386125 3.5712 0.379231 3.56539 0.373428L3.21031 0.0183465C3.2045 0.0125308 3.19761 0.00791674 3.19002 0.0047686C3.18243 0.00162045 3.17429 0 3.16608 0C3.15786 0 3.14973 0.00162045 3.14214 0.0047686C3.13455 0.00791674 3.12765 0.0125308 3.12185 0.0183465L3.07731 0.0628885C3.05284 0.0873552 3.05284 0.126878 3.07731 0.151345L3.12185 0.194632L3.03277 0.284344C3.02696 0.278528 3.02007 0.273914 3.01248 0.270766C3.00489 0.267617 2.99675 0.265997 2.98854 0.265997C2.98032 0.265997 2.97219 0.267617 2.9646 0.270766C2.95701 0.273914 2.95011 0.278528 2.94431 0.284344C2.91984 0.30881 2.91984 0.348961 2.94431 0.373428L2.85585 0.461884L2.81131 0.417342C2.78684 0.392875 2.74669 0.392875 2.72223 0.417342L2.67831 0.461884C2.65385 0.486351 2.65385 0.526501 2.67831 0.550968L3.03277 0.905422C3.05723 0.929888 3.09738 0.929888 3.12185 0.905422L3.16576 0.861507C3.17172 0.855719 3.17646 0.848794 3.17969 0.841143C3.18292 0.833493 3.18459 0.825271 3.18459 0.816965C3.18459 0.808659 3.18292 0.800437 3.17969 0.792787C3.17646 0.785136 3.17172 0.778211 3.16576 0.772423L3.12185 0.727881L3.21031 0.639425L3.81319 1.24231C3.819 1.24813 3.82589 1.25274 3.83348 1.25589C3.84107 1.25904 3.8492 1.26066 3.85742 1.26066C3.86564 1.26066 3.87377 1.25904 3.88136 1.25589C3.88895 1.25274 3.89584 1.24813 3.90165 1.24231C3.92611 1.21784 3.92611 1.17769 3.90165 1.15323ZM2.79124 1.07292C2.75796 1.07292 2.72605 1.08614 2.70252 1.10967C2.67898 1.1332 2.66577 1.16512 2.66577 1.19839V1.26113H3.29312V1.19839C3.29312 1.16512 3.2799 1.1332 3.25637 1.10967C3.23284 1.08614 3.20092 1.07292 3.16765 1.07292H2.79124Z" fill="url(#paint2_linear_52_33)"/>
<defs>
<linearGradient id="paint0_linear_52_33" x1="1.3305" y1="2.01724" x2="1.3305" y2="3.37572" gradientUnits="userSpaceOnUse">
<stop stop-color="#002B5A"/>
<stop offset="1" stop-color="#005CC0"/>
</linearGradient>
<linearGradient id="paint1_linear_52_33" x1="1.32998" y1="0.725079" x2="1.32998" y2="3.8275" gradientUnits="userSpaceOnUse">
<stop stop-color="#002B5A"/>
<stop offset="1" stop-color="#005CC0"/>
</linearGradient>
<linearGradient id="paint2_linear_52_33" x1="3.28998" y1="0" x2="3.28998" y2="1.26113" gradientUnits="userSpaceOnUse">
<stop stop-color="#002B5A"/>
<stop offset="1" stop-color="#005CC0"/>
</linearGradient>
</defs>
</svg>
