<svg width="3" height="4" viewBox="0 0 3 4" fill="none" xmlns="http://www.w3.org/2000/svg">
<path d="M1.08939 2.74924H2.63971C2.59153 2.52955 2.46238 2.36832 2.19669 2.25442C2.18369 2.24909 2.17318 2.23904 2.16728 2.22629C2.16137 2.21354 2.16051 2.19903 2.16486 2.18567C2.16884 2.1739 2.17672 2.16385 2.1872 2.15717C2.19768 2.1505 2.21013 2.14762 2.22247 2.14899L2.76535 2.21072C2.78885 2.21336 2.8126 2.20906 2.83369 2.19834C2.85477 2.18763 2.87225 2.17098 2.88397 2.15044L2.98407 1.97554C2.99639 1.95397 3.00178 1.92914 2.9995 1.90442C2.99723 1.87969 2.98741 1.85626 2.97136 1.8373L2.36034 1.11516V0.847298C1.61423 1.15632 1.08939 1.89141 1.08939 2.74924ZM0.968348 2.87028H2.78399V3.23341H2.90503V3.47549H0.847305V3.23341H0.968348V2.87028ZM2.29982 1.65986C2.29982 1.69196 2.28707 1.72275 2.26437 1.74545C2.24167 1.76815 2.21088 1.7809 2.17878 1.7809C2.14667 1.7809 2.11589 1.76815 2.09319 1.74545C2.07049 1.72275 2.05773 1.69196 2.05773 1.65986C2.05773 1.62775 2.07049 1.59697 2.09319 1.57427C2.11589 1.55157 2.14667 1.53881 2.17878 1.53881C2.21088 1.53881 2.24167 1.55157 2.26437 1.57427C2.28707 1.59697 2.29982 1.62775 2.29982 1.65986Z" fill="url(#paint0_linear_53_40)"/>
<path d="M0.576769 0C0.258224 0 0 0.258224 0 0.576768C0 0.895311 0.258224 1.15354 0.576769 1.15354C0.895313 1.15354 1.15354 0.895311 1.15354 0.576768C1.15354 0.258224 0.895313 0 0.576769 0ZM0.626572 0.889478V0.970711H0.548871V0.89039C0.421366 0.872929 0.36553 0.768164 0.36553 0.768164L0.444898 0.701772C0.444898 0.701772 0.495575 0.78999 0.587245 0.78999C0.637882 0.78999 0.676296 0.762886 0.676296 0.716574C0.676296 0.608316 0.384618 0.621452 0.384618 0.420611C0.384618 0.333306 0.453669 0.270407 0.548831 0.255525V0.174372H0.626533V0.255525C0.692884 0.264256 0.771459 0.299178 0.771459 0.3743V0.431921H0.668439V0.403983C0.668439 0.375173 0.631731 0.355966 0.590658 0.355966C0.538275 0.355966 0.499901 0.382157 0.499901 0.418825C0.499901 0.529702 0.791579 0.502638 0.791579 0.713082C0.791579 0.799593 0.726973 0.874596 0.626572 0.889478Z" fill="url(#paint1_linear_53_40)"/>
<defs>
<linearGradient id="paint0_linear_53_40" x1="1.92366" y1="0.847298" x2="1.92366" y2="3.47549" gradientUnits="userSpaceOnUse">
<stop stop-color="#002B5A"/>
<stop offset="1" stop-color="#005CC0"/>
</linearGradient>
<linearGradient id="paint1_linear_53_40" x1="0.576769" y1="0" x2="0.576769" y2="1.15354" gradientUnits="userSpaceOnUse">
<stop stop-color="#002B5A"/>
<stop offset="1" stop-color="#005CC0"/>
</linearGradient>
</defs>
</svg>
