<svg width="2" height="3" viewBox="0 0 2 3" fill="none" xmlns="http://www.w3.org/2000/svg">
<path d="M1.28205 1.00732C1.28205 0.958748 1.26276 0.912163 1.22841 0.877815C1.19406 0.843468 1.14748 0.824172 1.0989 0.824172H1.05311V0.779672C1.05311 0.755033 1.03417 0.733885 1.00953 0.732654C1.00334 0.732356 0.997152 0.733318 0.991343 0.735481C0.985535 0.737645 0.980227 0.740965 0.975739 0.745241C0.971252 0.749516 0.96768 0.754659 0.965239 0.760356C0.962798 0.766053 0.961539 0.772186 0.961538 0.778385V0.824172H0.320513V0.779672C0.320513 0.755033 0.301568 0.733885 0.276929 0.732654C0.270738 0.732356 0.264551 0.733318 0.258743 0.735481C0.252934 0.737645 0.247626 0.740965 0.243139 0.745241C0.238652 0.749516 0.235079 0.754659 0.232638 0.760356C0.230197 0.766053 0.228938 0.772186 0.228938 0.778385V0.824172H0.18315C0.134576 0.824172 0.0879908 0.843468 0.0536435 0.877815C0.0192961 0.912163 0 0.958748 0 1.00732V1.04166C0 1.0447 0.00120601 1.04761 0.00335272 1.04976C0.00549943 1.0519 0.00841098 1.05311 0.0114469 1.05311H1.2706C1.27364 1.05311 1.27655 1.0519 1.2787 1.04976C1.28085 1.04761 1.28205 1.0447 1.28205 1.04166V1.00732ZM0 1.8315C0 1.88007 0.0192961 1.92666 0.0536435 1.961C0.0879908 1.99535 0.134576 2.01465 0.18315 2.01465H1.0989C1.14748 2.01465 1.19406 1.99535 1.22841 1.961C1.26276 1.92666 1.28205 1.88007 1.28205 1.8315V1.15327C1.28205 1.15099 1.28115 1.14881 1.27954 1.1472C1.27793 1.14559 1.27574 1.14468 1.27347 1.14468H0.00858517C0.00630824 1.14468 0.00412457 1.14559 0.00251454 1.1472C0.00090451 1.14881 0 1.15099 0 1.15327V1.8315ZM0.984432 1.23626C0.998016 1.23626 1.01129 1.24029 1.02259 1.24783C1.03388 1.25538 1.04269 1.26611 1.04789 1.27866C1.05308 1.29121 1.05444 1.30502 1.05179 1.31834C1.04914 1.33166 1.0426 1.3439 1.033 1.35351C1.02339 1.36311 1.01115 1.36965 0.997831 1.3723C0.984508 1.37495 0.970699 1.37359 0.958149 1.36839C0.945599 1.3632 0.934873 1.35439 0.927326 1.3431C0.919779 1.3318 0.915751 1.31853 0.915751 1.30494C0.915751 1.28673 0.922987 1.26926 0.935867 1.25638C0.948748 1.2435 0.966217 1.23626 0.984432 1.23626ZM0.984432 1.4652C0.998016 1.4652 1.01129 1.46923 1.02259 1.47677C1.03388 1.48432 1.04269 1.49505 1.04789 1.5076C1.05308 1.52015 1.05444 1.53396 1.05179 1.54728C1.04914 1.5606 1.0426 1.57284 1.033 1.58244C1.02339 1.59205 1.01115 1.59859 0.997831 1.60124C0.984508 1.60389 0.970699 1.60253 0.958149 1.59733C0.945599 1.59213 0.934873 1.58333 0.927326 1.57204C0.919779 1.56074 0.915751 1.54746 0.915751 1.53388C0.915751 1.51566 0.922987 1.49819 0.935867 1.48531C0.948748 1.47243 0.966217 1.4652 0.984432 1.4652ZM0.755495 1.23626C0.769078 1.23626 0.782357 1.24029 0.793652 1.24783C0.804946 1.25538 0.813749 1.26611 0.818948 1.27866C0.824146 1.29121 0.825506 1.30502 0.822856 1.31834C0.820206 1.33166 0.813665 1.3439 0.80406 1.35351C0.794454 1.36311 0.782216 1.36965 0.768894 1.3723C0.755571 1.37495 0.741761 1.37359 0.729211 1.36839C0.716662 1.3632 0.705935 1.35439 0.698388 1.3431C0.690841 1.3318 0.686813 1.31853 0.686813 1.30494C0.686813 1.28673 0.694049 1.26926 0.70693 1.25638C0.71981 1.2435 0.737279 1.23626 0.755495 1.23626ZM0.755495 1.4652C0.769078 1.4652 0.782357 1.46923 0.793652 1.47677C0.804946 1.48432 0.813749 1.49505 0.818948 1.5076C0.824146 1.52015 0.825506 1.53396 0.822856 1.54728C0.820206 1.5606 0.813665 1.57284 0.80406 1.58244C0.794454 1.59205 0.782216 1.59859 0.768894 1.60124C0.755571 1.60389 0.741761 1.60253 0.729211 1.59733C0.716662 1.59213 0.705935 1.58333 0.698388 1.57204C0.690841 1.56074 0.686813 1.54746 0.686813 1.53388C0.686813 1.51566 0.694049 1.49819 0.70693 1.48531C0.71981 1.47243 0.737279 1.4652 0.755495 1.4652ZM0.755495 1.69414C0.769078 1.69414 0.782357 1.69816 0.793652 1.70571C0.804946 1.71326 0.813749 1.72398 0.818948 1.73653C0.824146 1.74908 0.825506 1.76289 0.822856 1.77622C0.820206 1.78954 0.813665 1.80178 0.80406 1.81138C0.794454 1.82099 0.782216 1.82753 0.768894 1.83018C0.755571 1.83283 0.741761 1.83147 0.729211 1.82627C0.716662 1.82107 0.705935 1.81227 0.698388 1.80097C0.690841 1.78968 0.686813 1.7764 0.686813 1.76282C0.686813 1.7446 0.694049 1.72713 0.70693 1.71425C0.71981 1.70137 0.737279 1.69414 0.755495 1.69414ZM0.526557 1.4652C0.540141 1.4652 0.553419 1.46923 0.564714 1.47677C0.576009 1.48432 0.584812 1.49505 0.59001 1.5076C0.595208 1.52015 0.596569 1.53396 0.593918 1.54728C0.591268 1.5606 0.584727 1.57284 0.575122 1.58244C0.565517 1.59205 0.553279 1.59859 0.539956 1.60124C0.526633 1.60389 0.512823 1.60253 0.500274 1.59733C0.487724 1.59213 0.476997 1.58333 0.46945 1.57204C0.461904 1.56074 0.457875 1.54746 0.457875 1.53388C0.457875 1.51566 0.465111 1.49819 0.477992 1.48531C0.490872 1.47243 0.508341 1.4652 0.526557 1.4652ZM0.526557 1.69414C0.540141 1.69414 0.553419 1.69816 0.564714 1.70571C0.576009 1.71326 0.584812 1.72398 0.59001 1.73653C0.595208 1.74908 0.596569 1.76289 0.593918 1.77622C0.591268 1.78954 0.584727 1.80178 0.575122 1.81138C0.565517 1.82099 0.553279 1.82753 0.539956 1.83018C0.526633 1.83283 0.512823 1.83147 0.500274 1.82627C0.487724 1.82107 0.476997 1.81227 0.46945 1.80097C0.461904 1.78968 0.457875 1.7764 0.457875 1.76282C0.457875 1.7446 0.465111 1.72713 0.477992 1.71425C0.490872 1.70137 0.508341 1.69414 0.526557 1.69414ZM0.297619 1.4652C0.311203 1.4652 0.324482 1.46923 0.335776 1.47677C0.347071 1.48432 0.355874 1.49505 0.361072 1.5076C0.366271 1.52015 0.367631 1.53396 0.364981 1.54728C0.362331 1.5606 0.355789 1.57284 0.346184 1.58244C0.336579 1.59205 0.324341 1.59859 0.311018 1.60124C0.297695 1.60389 0.283886 1.60253 0.271336 1.59733C0.258786 1.59213 0.248059 1.58333 0.240513 1.57204C0.232966 1.56074 0.228938 1.54746 0.228938 1.53388C0.228938 1.51566 0.236174 1.49819 0.249054 1.48531C0.261934 1.47243 0.279404 1.4652 0.297619 1.4652ZM0.297619 1.69414C0.311203 1.69414 0.324482 1.69816 0.335776 1.70571C0.347071 1.71326 0.355874 1.72398 0.361072 1.73653C0.366271 1.74908 0.367631 1.76289 0.364981 1.77622C0.362331 1.78954 0.355789 1.80178 0.346184 1.81138C0.336579 1.82099 0.324341 1.82753 0.311018 1.83018C0.297695 1.83283 0.283886 1.83147 0.271336 1.82627C0.258786 1.82107 0.248059 1.81227 0.240513 1.80097C0.232966 1.78968 0.228938 1.7764 0.228938 1.76282C0.228938 1.7446 0.236174 1.72713 0.249054 1.71425C0.261934 1.70137 0.279404 1.69414 0.297619 1.69414Z" fill="url(#paint0_linear_55_107)"/>
<path d="M1.64116 0.512102H1.64312C1.68507 0.51322 1.71864 0.547342 1.71864 0.589294C1.71864 0.625094 1.6943 0.65502 1.6613 0.66397V0.695295C1.6613 0.706482 1.65235 0.715432 1.64116 0.715432C1.62998 0.715432 1.62103 0.706482 1.62103 0.695295V0.66397C1.60459 0.659547 1.59008 0.649837 1.57971 0.63634C1.56935 0.622844 1.56372 0.606311 1.56369 0.589294C1.56369 0.578107 1.57264 0.569157 1.58383 0.569157C1.59501 0.569157 1.60396 0.578107 1.60396 0.589294C1.60396 0.609991 1.62047 0.626492 1.64088 0.626492C1.6613 0.626492 1.67808 0.609711 1.67808 0.589294C1.67808 0.568877 1.6613 0.552096 1.64088 0.552096H1.63893C1.61881 0.55155 1.59969 0.543182 1.58564 0.528768C1.57159 0.514354 1.56372 0.495031 1.56369 0.474904C1.56369 0.439104 1.58802 0.409178 1.62103 0.400228V0.368904C1.62103 0.357716 1.62998 0.348766 1.64116 0.348766C1.65235 0.348766 1.6613 0.357716 1.6613 0.368904V0.400228C1.6943 0.409178 1.71864 0.439104 1.71864 0.474904C1.71864 0.486091 1.70969 0.495041 1.6985 0.495041C1.68731 0.495041 1.67836 0.486091 1.67836 0.474904C1.67836 0.454487 1.66158 0.437706 1.64116 0.437706C1.62075 0.437706 1.60396 0.454487 1.60396 0.474904C1.60396 0.495321 1.62075 0.512102 1.64116 0.512102Z" fill="url(#paint1_linear_55_107)"/>
<path d="M1.49271 0.113692L1.57063 0.204869L1.56221 0.214267C1.40184 0.250234 1.28205 0.39346 1.28205 0.564682C1.28205 0.715208 1.40422 0.837374 1.55474 0.837374H1.72731C1.87783 0.837374 2 0.715236 2 0.56471C2.00028 0.39346 1.88049 0.250234 1.72012 0.214267C1.72078 0.208356 1.71971 0.202382 1.71704 0.197066L1.78333 0.121188L1.78761 0.114587C1.7926 0.103689 1.79388 0.0914506 1.79125 0.0797548C1.78861 0.068059 1.7822 0.0575534 1.77301 0.0498536C1.76382 0.0421539 1.75236 0.0376864 1.74038 0.0371383C1.7284 0.0365901 1.71658 0.0399917 1.70672 0.0468199L1.68315 0.0188515C1.67786 0.0129329 1.67138 0.00819511 1.66414 0.00494698C1.6569 0.00169886 1.64905 1.32719e-05 1.64111 7.8059e-08C1.63317 -1.31157e-05 1.62532 0.00164638 1.61807 0.00487041C1.61082 0.00809444 1.60433 0.0128106 1.59902 0.0187117L1.57432 0.0462885C1.56449 0.0393183 1.55264 0.0357811 1.5406 0.036224C1.52856 0.036667 1.51699 0.0410653 1.5077 0.0487387C1.49841 0.0564121 1.49191 0.0669331 1.4892 0.0786743C1.48649 0.0904155 1.48772 0.102723 1.49271 0.113692ZM1.59896 0.152428L1.55153 0.0976105C1.56255 0.102911 1.57501 0.104413 1.58698 0.101884C1.59895 0.0993539 1.60974 0.0929342 1.61767 0.0836263L1.64005 0.0545951L1.66488 0.0840178C1.67263 0.0930231 1.68307 0.099285 1.69466 0.101871C1.70626 0.104456 1.71837 0.103227 1.72921 0.0983656L1.682 0.152428H1.59896ZM1.33799 0.564682C1.33799 0.397208 1.47369 0.261505 1.64117 0.261505C1.80864 0.261505 1.94434 0.397208 1.94406 0.564626V0.564682C1.94404 0.622162 1.9212 0.677282 1.88055 0.717927C1.83991 0.758571 1.78479 0.781415 1.72731 0.781437H1.55474C1.49726 0.781415 1.44214 0.758571 1.4015 0.717927C1.36085 0.677282 1.33801 0.622162 1.33799 0.564682Z" fill="url(#paint2_linear_55_107)"/>
<defs>
<linearGradient id="paint0_linear_55_107" x1="0.641026" y1="0.732601" x2="0.641026" y2="2.01465" gradientUnits="userSpaceOnUse">
<stop stop-color="#002B5A"/>
<stop offset="1" stop-color="#005CC0"/>
</linearGradient>
<linearGradient id="paint1_linear_55_107" x1="1.64116" y1="0.348766" x2="1.64116" y2="0.715432" gradientUnits="userSpaceOnUse">
<stop stop-color="#002B5A"/>
<stop offset="1" stop-color="#005CC0"/>
</linearGradient>
<linearGradient id="paint2_linear_55_107" x1="1.64103" y1="0" x2="1.64103" y2="0.837374" gradientUnits="userSpaceOnUse">
<stop stop-color="#002B5A"/>
<stop offset="1" stop-color="#005CC0"/>
</linearGradient>
</defs>
</svg>
