<svg width="4" height="3" viewBox="0 0 4 3" fill="none" xmlns="http://www.w3.org/2000/svg">
<path d="M1.072 1.524H3.088M1.072 2.244H3.088M1 1.884C1 2.02583 1.02794 2.16627 1.08221 2.2973C1.13649 2.42833 1.21604 2.54739 1.31632 2.64767C1.41661 2.74796 1.53567 2.82751 1.6667 2.88179C1.79773 2.93606 1.93817 2.964 2.08 2.964C2.22183 2.964 2.36227 2.93606 2.4933 2.88179C2.62433 2.82751 2.74339 2.74796 2.84368 2.64767C2.94396 2.54739 3.02351 2.42833 3.07779 2.2973C3.13207 2.16627 3.16 2.02583 3.16 1.884C3.16 1.59757 3.04621 1.32286 2.84368 1.12032C2.64114 0.917784 2.36643 0.803999 2.08 0.803999C1.79357 0.803999 1.51886 0.917784 1.31632 1.12032C1.11379 1.32286 1 1.59757 1 1.884Z" stroke="url(#paint0_linear_55_114)" stroke-width="0.08" stroke-linecap="round" stroke-linejoin="round"/>
<path d="M2.01999 0.803999C1.81783 1.12795 1.71066 1.50214 1.71066 1.884C1.71066 2.26586 1.81783 2.64005 2.01999 2.964M2.13999 0.803999C2.34215 1.12795 2.44933 1.50214 2.44933 1.884C2.44933 2.26586 2.34215 2.64005 2.13999 2.964" stroke="url(#paint1_linear_55_114)" stroke-width="0.08" stroke-linecap="round" stroke-linejoin="round"/>
<path d="M3.28001 0.864H3.42401C3.42401 0.94176 3.52265 1.008 3.64001 1.008C3.75737 1.008 3.85601 0.94176 3.85601 0.864C3.85601 0.7848 3.78113 0.756 3.62273 0.71784C3.47009 0.67968 3.28001 0.63216 3.28001 0.432C3.28001 0.30312 3.38585 0.19368 3.53201 0.15696V0H3.74801V0.15696C3.89417 0.19368 4.00001 0.30312 4.00001 0.432H3.85601C3.85601 0.35424 3.75737 0.288 3.64001 0.288C3.52265 0.288 3.42401 0.35424 3.42401 0.432C3.42401 0.5112 3.49889 0.54 3.65729 0.57816C3.80993 0.61632 4.00001 0.66384 4.00001 0.864C4.00001 0.99288 3.89417 1.10232 3.74801 1.13904V1.296H3.53201V1.13904C3.38585 1.10232 3.28001 0.99288 3.28001 0.864Z" fill="url(#paint2_linear_55_114)"/>
<defs>
<linearGradient id="paint0_linear_55_114" x1="2.08" y1="0.803999" x2="2.08" y2="2.964" gradientUnits="userSpaceOnUse">
<stop stop-color="#002B5A"/>
<stop offset="1" stop-color="#005CC0"/>
</linearGradient>
<linearGradient id="paint1_linear_55_114" x1="2.07999" y1="0.803999" x2="2.07999" y2="2.964" gradientUnits="userSpaceOnUse">
<stop stop-color="#002B5A"/>
<stop offset="1" stop-color="#005CC0"/>
</linearGradient>
<linearGradient id="paint2_linear_55_114" x1="3.64001" y1="0" x2="3.64001" y2="1.296" gradientUnits="userSpaceOnUse">
<stop stop-color="#002B5A"/>
<stop offset="1" stop-color="#005CC0"/>
</linearGradient>
</defs>
</svg>
