<svg width="4" height="5" viewBox="0 0 4 5" fill="none" xmlns="http://www.w3.org/2000/svg">
<path d="M2 0C2.28889 0 2.53362 0.18656 2.62695 0.444336H3.55566C3.67347 0.444365 3.7868 0.490929 3.87012 0.574219C3.95342 0.657517 3.99994 0.770876 4 0.888672V2.4375L3.0166 3.40137L2.49316 2.88965C2.43116 2.82916 2.33047 2.82902 2.26855 2.88965C2.20656 2.9504 2.20656 3.0496 2.26855 3.11035L2.90332 3.73242C2.96523 3.79309 3.06591 3.79291 3.12793 3.73242L4 2.87695V4C4 4.11785 3.95343 4.23111 3.87012 4.31445C3.78679 4.39778 3.6735 4.44431 3.55566 4.44434H0.444336C0.326501 4.44431 0.213207 4.39778 0.129883 4.31445C0.0465673 4.23111 0 4.11785 0 4V0.888672C5.74521e-05 0.770876 0.0465845 0.657517 0.129883 0.574219C0.213202 0.490929 0.326527 0.444365 0.444336 0.444336H1.37305C1.46638 0.18656 1.71111 6.41893e-09 2 0ZM2 0.444336C1.94106 0.444336 1.88445 0.468091 1.84277 0.509766C1.8012 0.551425 1.77734 0.608132 1.77734 0.666992C1.77743 0.725812 1.80118 0.782621 1.84277 0.824219C1.88443 0.865792 1.94114 0.888672 2 0.888672C2.05886 0.888672 2.11557 0.865792 2.15723 0.824219C2.19882 0.782621 2.22257 0.725812 2.22266 0.666992C2.22266 0.608132 2.1988 0.551425 2.15723 0.509766C2.11555 0.468091 2.05894 0.444336 2 0.444336Z" fill="url(#paint0_linear_26_65)"/>
<defs>
<linearGradient id="paint0_linear_26_65" x1="2" y1="0" x2="2" y2="4.44434" gradientUnits="userSpaceOnUse">
<stop stop-color="#2974C7"/>
<stop offset="1" stop-color="#002B5A"/>
</linearGradient>
</defs>
</svg>
