<svg width="4" height="6" viewBox="0 0 4 6" fill="none" xmlns="http://www.w3.org/2000/svg">
<path d="M1.83105 0V1.74512C1.83105 2.04951 1.97391 2.19531 2.27832 2.19531H4V4.35449C3.9999 4.84893 3.75492 5.09863 3.2627 5.09863H0.737305C0.24751 5.09863 9.83833e-05 4.85126 0 4.35449V0.74707C0 0.252335 0.247412 0 0.737305 0H1.83105ZM1.99707 2.84082C1.98214 2.84093 1.96762 2.84647 1.95703 2.85645C1.94633 2.86659 1.94043 2.88116 1.94043 2.89551C1.94055 2.9097 1.94643 2.92355 1.95703 2.93359C1.96763 2.9436 1.98212 2.94911 1.99707 2.94922H2.08301L1.83496 3.51367C1.82895 3.52754 1.82579 3.54263 1.82617 3.55762C1.82945 3.64147 1.86699 3.72101 1.93066 3.7793C1.9945 3.83764 2.08027 3.87012 2.16895 3.87012C2.2575 3.87007 2.34247 3.83752 2.40625 3.7793C2.47004 3.721 2.50745 3.64154 2.51074 3.55762C2.51113 3.54268 2.5089 3.5275 2.50293 3.51367L2.25488 2.94922H2.68262V4.13965H2.22559C2.18026 4.13972 2.13655 4.15711 2.10449 4.1875C2.07261 4.21786 2.05476 4.25892 2.05469 4.30176C2.05469 4.34479 2.07241 4.38655 2.10449 4.41699C2.13655 4.44738 2.18026 4.46478 2.22559 4.46484H3.25391C3.29916 4.46473 3.34299 4.44733 3.375 4.41699C3.40702 4.38656 3.4248 4.34475 3.4248 4.30176C3.42473 4.25897 3.40682 4.21785 3.375 4.1875C3.34299 4.15716 3.29916 4.13976 3.25391 4.13965H2.79688V2.94922H3.22461L2.97656 3.51367C2.97057 3.52752 2.96739 3.54266 2.96777 3.55762C2.97106 3.64156 3.00945 3.72099 3.07324 3.7793C3.13706 3.8375 3.22198 3.87012 3.31055 3.87012C3.39912 3.87011 3.48404 3.83751 3.54785 3.7793C3.61165 3.72099 3.65004 3.64156 3.65332 3.55762C3.6537 3.54266 3.65052 3.52752 3.64453 3.51367L3.39648 2.94922H3.48145C3.49659 2.94922 3.51175 2.94374 3.52246 2.93359C3.53304 2.92355 3.53894 2.90969 3.53906 2.89551C3.53906 2.88116 3.53317 2.86659 3.52246 2.85645C3.51176 2.84631 3.49657 2.84082 3.48145 2.84082H1.99707ZM2.36816 3.49023H1.96875L2.16895 3.03613L2.36816 3.49023ZM3.51074 3.49023H3.11035L3.31055 3.03613L3.51074 3.49023ZM2.1543 0.0263672C2.2542 0.0431015 2.35454 0.111527 2.46387 0.225586L3.77637 1.55957C3.88806 1.67602 3.95697 1.77166 3.97363 1.86914H2.28516C2.19987 1.86903 2.15444 1.82636 2.1543 1.74121V0.0263672Z" fill="url(#paint0_linear_26_31)"/>
<defs>
<linearGradient id="paint0_linear_26_31" x1="2" y1="0" x2="2" y2="5.09863" gradientUnits="userSpaceOnUse">
<stop stop-color="#2974C7"/>
<stop offset="1" stop-color="#002B5A"/>
</linearGradient>
</defs>
</svg>
