<svg width="4" height="4" viewBox="0 0 4 4" fill="none" xmlns="http://www.w3.org/2000/svg">
<path d="M1.74984 0H3.20971C3.49218 0 3.76716 0.141835 3.90465 0.390047C3.98787 0.539949 4.01788 0.71422 3.98968 0.88382C3.96148 1.05342 3.87677 1.20811 3.74966 1.32211V2.09967C3.74966 2.21364 3.61467 2.26936 3.53718 2.18831L2.87474 1.51966H1.77984C1.41737 1.51966 1.0849 1.27145 1.01491 0.911798C0.922416 0.425506 1.28738 0 1.74984 0ZM0.749932 1.77294H2.2198C2.58227 1.77294 2.91724 2.02115 2.98473 2.3808C3.00678 2.49119 3.00438 2.60516 2.97768 2.71449C2.95098 2.82382 2.90066 2.92579 2.83035 3.01302C2.76004 3.10025 2.67149 3.17058 2.57109 3.21893C2.47069 3.26728 2.36096 3.29244 2.2498 3.2926H1.1249L0.462458 3.96379C0.444988 3.98114 0.422875 3.99292 0.398861 3.99766C0.374847 4.0024 0.349987 3.9999 0.327364 3.99046C0.304741 3.98102 0.285349 3.96506 0.271593 3.94457C0.257837 3.92407 0.250321 3.89993 0.249977 3.87514V3.09758C0.0924914 2.95574 0 2.75059 0 2.5353C-9.53674e-07 2.33355 0.0789292 2.14002 0.219497 1.99712C0.360066 1.85423 0.550808 1.77361 0.749932 1.77294Z" fill="url(#paint0_linear_26_19)"/>
<defs>
<linearGradient id="paint0_linear_26_19" x1="2" y1="0" x2="2" y2="4" gradientUnits="userSpaceOnUse">
<stop stop-color="#2974C7"/>
<stop offset="1" stop-color="#002B5A"/>
</linearGradient>
</defs>
</svg>
