<svg width="4" height="5" viewBox="0 0 4 5" fill="none" xmlns="http://www.w3.org/2000/svg">
<path fill-rule="evenodd" clip-rule="evenodd" d="M0 1.40515C0 1.28093 0.0493474 1.16179 0.137186 1.07395C0.225026 0.986115 0.344161 0.936768 0.468384 0.936768H1.54239C1.6666 0.936794 1.78572 0.986159 1.87354 1.074L2.67307 1.87354C2.76091 1.96135 2.81028 2.08047 2.8103 2.20468V4.21546C2.8103 4.33968 2.76096 4.45881 2.67312 4.54665C2.58528 4.63449 2.46614 4.68384 2.34192 4.68384H0.468384C0.344161 4.68384 0.225026 4.63449 0.137186 4.54665C0.0493474 4.45881 0 4.33968 0 4.21546V1.40515Z" fill="url(#paint0_linear_44_114)"/>
<path d="M3.98267 1.08885L3.41404 0.520211L3.49696 0.4361L3.53961 0.478155C3.54509 0.483646 3.5516 0.488003 3.55877 0.490975C3.56593 0.493948 3.57361 0.495478 3.58137 0.495478C3.58913 0.495478 3.59681 0.493948 3.60398 0.490975C3.61114 0.488003 3.61765 0.483646 3.62313 0.478155L3.66519 0.4361C3.67068 0.43062 3.67503 0.424111 3.67801 0.416945C3.68098 0.40978 3.68251 0.402098 3.68251 0.394341C3.68251 0.386583 3.68098 0.378901 3.67801 0.371736C3.67503 0.36457 3.67068 0.358061 3.66519 0.352581L3.32993 0.0173224C3.32445 0.0118312 3.31794 0.00747479 3.31077 0.00450239C3.30361 0.00152999 3.29592 0 3.28817 0C3.28041 0 3.27273 0.00152999 3.26556 0.00450239C3.2584 0.00747479 3.25189 0.0118312 3.24641 0.0173224L3.20435 0.0593778C3.18125 0.0824787 3.18125 0.119796 3.20435 0.142896L3.24641 0.183767L3.1623 0.26847C3.15682 0.262979 3.15031 0.258623 3.14314 0.25565C3.13598 0.252678 3.1283 0.251148 3.12054 0.251148C3.11278 0.251148 3.1051 0.252678 3.09793 0.25565C3.09077 0.258623 3.08426 0.262979 3.07878 0.26847C3.05568 0.291571 3.05568 0.32948 3.07878 0.352581L2.99526 0.4361L2.9532 0.394044C2.9301 0.370944 2.89219 0.370944 2.86909 0.394044L2.82763 0.4361C2.80453 0.459201 2.80453 0.49711 2.82763 0.520211L3.1623 0.854877C3.1854 0.877978 3.22331 0.877978 3.24641 0.854877L3.28787 0.813414C3.2935 0.807949 3.29797 0.801411 3.30102 0.794187C3.30407 0.786964 3.30565 0.779201 3.30565 0.771359C3.30565 0.763517 3.30407 0.755754 3.30102 0.74853C3.29797 0.741307 3.2935 0.734769 3.28787 0.729303L3.24641 0.687248L3.32993 0.603729L3.89916 1.17296C3.90464 1.17845 3.91114 1.18281 3.91831 1.18578C3.92548 1.18875 3.93316 1.19028 3.94092 1.19028C3.94867 1.19028 3.95635 1.18875 3.96352 1.18578C3.97069 1.18281 3.97719 1.17845 3.98267 1.17296C4.00578 1.14986 4.00578 1.11195 3.98267 1.08885ZM2.93425 1.01303C2.90283 1.01303 2.8727 1.02551 2.85048 1.04773C2.82826 1.06994 2.81578 1.10008 2.81578 1.1315V1.19073H3.40811V1.1315C3.40811 1.10008 3.39563 1.06994 3.37342 1.04773C3.3512 1.02551 3.32107 1.01303 3.28965 1.01303H2.93425Z" fill="url(#paint1_linear_44_114)"/>
<defs>
<linearGradient id="paint0_linear_44_114" x1="1.40515" y1="0.936768" x2="1.40515" y2="4.68384" gradientUnits="userSpaceOnUse">
<stop stop-color="#002B5A"/>
<stop offset="1" stop-color="#005CC0"/>
</linearGradient>
<linearGradient id="paint1_linear_44_114" x1="3.40515" y1="0" x2="3.40515" y2="1.19073" gradientUnits="userSpaceOnUse">
<stop stop-color="#002B5A"/>
<stop offset="1" stop-color="#005CC0"/>
</linearGradient>
</defs>
</svg>
