<svg width="4" height="4" viewBox="0 0 4 4" fill="none" xmlns="http://www.w3.org/2000/svg">
<path d="M2.61538 1.23077V2.3077C2.61538 2.3893 2.58297 2.46756 2.52526 2.52527C2.46756 2.58297 2.3893 2.61539 2.30769 2.61539H0.615385V2.76923C0.615385 2.85084 0.647802 2.9291 0.705506 2.9868C0.763209 3.04451 0.841472 3.07693 0.923077 3.07693H2.46154L3.07692 3.69231V1.53846C3.07692 1.45686 3.04451 1.3786 2.9868 1.32089C2.9291 1.26319 2.85084 1.23077 2.76923 1.23077H2.61538ZM0.923077 2.15385H0V3.07693L0.923077 2.15385Z" fill="url(#paint0_linear_43_61)"/>
<path d="M2.15385 0.615385H0.307692C0.137759 0.615385 0 0.753144 0 0.923077V2.15385C0 2.32378 0.137759 2.46154 0.307692 2.46154H2.15385C2.32378 2.46154 2.46154 2.32378 2.46154 2.15385V0.923077C2.46154 0.753144 2.32378 0.615385 2.15385 0.615385Z" fill="url(#paint1_linear_43_61)"/>
<path d="M3.98903 0.553846L3.8448 0.246154H3.88461C3.89226 0.246154 3.8996 0.242912 3.90501 0.237142C3.91042 0.231371 3.91346 0.223545 3.91346 0.215385C3.91346 0.207224 3.91042 0.199398 3.90501 0.193627C3.8996 0.187857 3.89226 0.184615 3.88461 0.184615H3.83903C3.80805 0.14861 3.7707 0.119477 3.72914 0.0988861C3.68758 0.0782948 3.64263 0.066649 3.59684 0.0646154L3.59615 0.0615385C3.59615 0.0452174 3.59007 0.0295649 3.57925 0.0180242C3.56843 0.0064835 3.55376 0 3.53846 0C3.52316 0 3.50848 0.0064835 3.49766 0.0180242C3.48684 0.0295649 3.48077 0.0452174 3.48077 0.0615385V0.0646154C3.38753 0.0687511 3.29954 0.111778 3.23575 0.184431L3.1923 0.184615C3.18465 0.184615 3.17732 0.187857 3.17191 0.193627C3.1665 0.199398 3.16346 0.207224 3.16346 0.215385C3.16346 0.223545 3.1665 0.231371 3.17191 0.237142C3.17732 0.242912 3.18465 0.246154 3.1923 0.246154H3.23211L3.08788 0.553846H3.07692C3.07692 0.621538 3.15423 0.676923 3.25 0.676923C3.34577 0.676923 3.42307 0.621538 3.42307 0.553846H3.41211L3.265 0.240615C3.26864 0.238333 3.27177 0.235224 3.27417 0.231508C3.29968 0.199527 3.33125 0.173663 3.36679 0.155612C3.40234 0.137562 3.44106 0.127732 3.48042 0.126769L3.48077 0.8H3.42307V0.861538H3.30769V0.923077H3.76923V0.861538H3.65384V0.8H3.59615V0.126769C3.63506 0.127554 3.67336 0.137266 3.70844 0.155243C3.74352 0.17322 3.77456 0.199042 3.79946 0.230954C3.80212 0.235779 3.80597 0.239737 3.81059 0.2424L3.6648 0.553846H3.65384C3.65384 0.621538 3.73115 0.676923 3.82692 0.676923C3.92269 0.676923 4 0.621538 4 0.553846H3.98903ZM3.36538 0.553846H3.13461L3.25 0.311385L3.36538 0.553846ZM3.71153 0.553846L3.82692 0.311385L3.9423 0.553846H3.71153Z" fill="url(#paint2_linear_43_61)"/>
<defs>
<linearGradient id="paint0_linear_43_61" x1="1.53846" y1="1.23077" x2="1.53846" y2="3.69231" gradientUnits="userSpaceOnUse">
<stop stop-color="#002B5A"/>
<stop offset="1" stop-color="#005CC0"/>
</linearGradient>
<linearGradient id="paint1_linear_43_61" x1="1.23077" y1="0.615385" x2="1.23077" y2="2.46154" gradientUnits="userSpaceOnUse">
<stop stop-color="#002B5A"/>
<stop offset="1" stop-color="#005CC0"/>
</linearGradient>
<linearGradient id="paint2_linear_43_61" x1="3.53846" y1="0" x2="3.53846" y2="0.923077" gradientUnits="userSpaceOnUse">
<stop stop-color="#002B5A"/>
<stop offset="1" stop-color="#005CC0"/>
</linearGradient>
</defs>
</svg>
