<svg width="4" height="4" viewBox="0 0 4 4" fill="none" xmlns="http://www.w3.org/2000/svg">
<path fill-rule="evenodd" clip-rule="evenodd" d="M0.1172 1.18387C-7.94729e-09 1.30093 0 1.4896 0 1.86667V2.66667C0 3.04373 -7.94729e-09 3.2324 0.1172 3.34947C0.234267 3.46667 0.422933 3.46667 0.8 3.46667H1.86667C2.24373 3.46667 2.4324 3.46667 2.54947 3.34947C2.66667 3.2324 2.66667 3.04373 2.66667 2.66667V1.86667C2.66667 1.4896 2.66667 1.30093 2.54947 1.18387C2.4324 1.06667 2.24373 1.06667 1.86667 1.06667H0.8C0.422933 1.06667 0.234267 1.06667 0.1172 1.18387ZM1.86667 1.73333C1.90203 1.73333 1.93594 1.74738 1.96095 1.77239C1.98595 1.79739 2 1.83131 2 1.86667V2.93333C2 2.9687 1.98595 3.00261 1.96095 3.02762C1.93594 3.05262 1.90203 3.06667 1.86667 3.06667C1.8313 3.06667 1.79739 3.05262 1.77239 3.02762C1.74738 3.00261 1.73333 2.9687 1.73333 2.93333V1.86667C1.73333 1.83131 1.74738 1.79739 1.77239 1.77239C1.79739 1.74738 1.8313 1.73333 1.86667 1.73333ZM0.933333 2.13333C0.933333 2.09797 0.919286 2.06406 0.894281 2.03905C0.869276 2.01405 0.835362 2 0.8 2C0.764638 2 0.730724 2.01405 0.705719 2.03905C0.680714 2.06406 0.666667 2.09797 0.666667 2.13333V2.93333C0.666667 2.9687 0.680714 3.00261 0.705719 3.02762C0.730724 3.05262 0.764638 3.06667 0.8 3.06667C0.835362 3.06667 0.869276 3.05262 0.894281 3.02762C0.919286 3.00261 0.933333 2.9687 0.933333 2.93333V2.13333ZM1.46667 2.4C1.46667 2.36464 1.45262 2.33072 1.42761 2.30572C1.40261 2.28072 1.3687 2.26667 1.33333 2.26667C1.29797 2.26667 1.26406 2.28072 1.23905 2.30572C1.21405 2.33072 1.2 2.36464 1.2 2.4V2.93333C1.2 2.9687 1.21405 3.00261 1.23905 3.02762C1.26406 3.05262 1.29797 3.06667 1.33333 3.06667C1.3687 3.06667 1.40261 3.05262 1.42761 3.02762C1.45262 3.00261 1.46667 2.9687 1.46667 2.93333V2.4Z" fill="url(#paint0_linear_43_77)"/>
<path fill-rule="evenodd" clip-rule="evenodd" d="M3.33334 0C3.34596 0 3.35807 0.00486262 3.367 0.0135181C3.37593 0.0221737 3.38094 0.0339131 3.38094 0.0461539V0.0926769C3.57615 0.0954689 3.77065 0.116073 3.96187 0.154215C3.97345 0.156495 3.98374 0.162869 3.99075 0.172097C3.99775 0.181326 4.00096 0.192749 3.99976 0.204146C3.99855 0.215543 3.99302 0.226099 3.98424 0.233761C3.97545 0.241422 3.96404 0.245642 3.95222 0.2456H3.83048L3.98751 0.868615C3.99003 0.878571 3.98906 0.889055 3.98475 0.898415C3.98044 0.907775 3.97304 0.915477 3.96371 0.920308C3.90162 0.952576 3.83224 0.969388 3.7618 0.969231C3.69135 0.969388 3.62197 0.952576 3.55988 0.920308C3.55056 0.915477 3.54316 0.907775 3.53885 0.898415C3.53454 0.889055 3.53356 0.878571 3.53608 0.868615L3.69312 0.2456H3.38094V1.06283C3.46302 1.06751 3.54179 1.08394 3.61561 1.11058C3.62608 1.11436 3.63485 1.12158 3.64038 1.13098C3.64591 1.14039 3.64786 1.15138 3.64588 1.16204C3.64389 1.17269 3.63811 1.18233 3.62954 1.18927C3.62097 1.19621 3.61015 1.20001 3.59898 1.2H3.06769C3.05653 1.20001 3.04571 1.19621 3.03714 1.18927C3.02857 1.18233 3.02278 1.17269 3.0208 1.16204C3.01882 1.15138 3.02076 1.14039 3.0263 1.13098C3.03183 1.12158 3.0406 1.11436 3.05106 1.11058C3.12482 1.08394 3.20366 1.06751 3.28573 1.06289V0.245538H2.97356L3.1306 0.868554C3.13311 0.878509 3.13214 0.888994 3.12783 0.898354C3.12352 0.907713 3.11612 0.915416 3.1068 0.920246C3.04471 0.952536 2.97533 0.969369 2.90488 0.969231C2.83443 0.969388 2.76505 0.952576 2.70297 0.920308C2.69364 0.915477 2.68624 0.907775 2.68193 0.898415C2.67762 0.889055 2.67665 0.878571 2.67916 0.868615L2.8362 0.2456H2.71445C2.70264 0.245642 2.69123 0.241422 2.68244 0.233761C2.67366 0.226099 2.66812 0.215543 2.66692 0.204146C2.66572 0.192749 2.66893 0.181326 2.67593 0.172097C2.68293 0.162869 2.69323 0.156495 2.70481 0.154215C2.89603 0.116073 3.09053 0.0954689 3.28573 0.0926769V0.0461539C3.28573 0.0339131 3.29075 0.0221737 3.29968 0.0135181C3.3086 0.00486262 3.32071 0 3.33334 0ZM3.64297 0.833415L3.7618 0.361908L3.88062 0.833415H3.64297ZM3.02371 0.833415L2.90488 0.361908L2.78605 0.833415H3.02371Z" fill="url(#paint1_linear_43_77)"/>
<defs>
<linearGradient id="paint0_linear_43_77" x1="1.33333" y1="1.06667" x2="1.33333" y2="3.46667" gradientUnits="userSpaceOnUse">
<stop stop-color="#002B5A"/>
<stop offset="1" stop-color="#005CC0"/>
</linearGradient>
<linearGradient id="paint1_linear_43_77" x1="3.33334" y1="0" x2="3.33334" y2="1.2" gradientUnits="userSpaceOnUse">
<stop stop-color="#002B5A"/>
<stop offset="1" stop-color="#005CC0"/>
</linearGradient>
</defs>
</svg>
