<svg width="6" height="6" viewBox="0 0 6 6" fill="none" xmlns="http://www.w3.org/2000/svg">
<path d="M2.34439 1.39546C2.49983 1.39546 2.64891 1.45917 2.75882 1.57258C2.86874 1.68598 2.93048 1.83979 2.93048 2.00017H3.51658C3.62021 2.00017 3.71959 2.04264 3.79287 2.11824C3.86615 2.19384 3.90731 2.29638 3.90731 2.4033V4.62055C3.90731 4.72746 3.86615 4.83 3.79287 4.90561C3.71959 4.98121 3.62021 5.02368 3.51658 5.02368H0.390731C0.287103 5.02368 0.187719 4.98121 0.114443 4.90561C0.0411662 4.83 0 4.72746 0 4.62055V2.4033C0 2.29638 0.0411662 2.19384 0.114443 2.11824C0.187719 2.04264 0.287103 2.00017 0.390731 2.00017H0.976828C0.976828 1.83979 1.03858 1.68598 1.14849 1.57258C1.25841 1.45917 1.40748 1.39546 1.56292 1.39546H2.34439ZM3.32122 2.80644H0.586097C0.536302 2.80649 0.488408 2.82617 0.452199 2.86143C0.415991 2.8967 0.394202 2.9449 0.391284 2.99619C0.388366 3.04748 0.404539 3.09798 0.436499 3.13738C0.468458 3.17677 0.513793 3.20209 0.563239 3.20816L0.586097 3.20957H1.75829V3.41114C1.75835 3.46251 1.77741 3.51193 1.8116 3.54929C1.84578 3.58665 1.8925 3.60913 1.94221 3.61214C1.99192 3.61515 2.04086 3.59846 2.07905 3.56549C2.11723 3.53251 2.14177 3.48574 2.14765 3.43472L2.14902 3.41114V3.20957H3.32122C3.37101 3.20951 3.4189 3.18984 3.45511 3.15457C3.49132 3.11931 3.51311 3.0711 3.51603 3.01982C3.51895 2.96853 3.50277 2.91803 3.47081 2.87863C3.43885 2.83923 3.39352 2.81391 3.34407 2.80785L3.32122 2.80644ZM2.34439 1.7986H1.56292C1.51507 1.7986 1.46889 1.81673 1.43313 1.84954C1.39737 1.88234 1.37453 1.92755 1.36893 1.97658L1.36756 2.00017H2.53975C2.53975 1.95079 2.52218 1.90314 2.49038 1.86625C2.45858 1.82936 2.41477 1.80578 2.36725 1.80001L2.34439 1.7986Z" fill="url(#paint0_linear_43_69)"/>
<path fill-rule="evenodd" clip-rule="evenodd" d="M4.75509 0.091378C4.75509 0.067143 4.74546 0.0439007 4.72832 0.026764C4.71119 0.0096273 4.68794 0 4.66371 0C4.63947 0 4.61623 0.0096273 4.5991 0.026764C4.58196 0.0439007 4.57233 0.067143 4.57233 0.091378V0.153271C4.38353 0.157644 4.19527 0.175314 4.00896 0.206149C3.98504 0.210123 3.96369 0.223434 3.94959 0.243153C3.9355 0.262871 3.92981 0.287382 3.93378 0.311294C3.93776 0.335206 3.95107 0.35656 3.97079 0.370657C3.99051 0.384755 4.01502 0.390442 4.03893 0.386468L4.05477 0.383909L3.91002 0.962636C3.90537 0.981348 3.90675 1.00105 3.91397 1.01893C3.92119 1.03681 3.93388 1.05195 3.95023 1.06218C4.01804 1.10456 4.0964 1.12702 4.17636 1.12699C4.25632 1.12702 4.33468 1.10456 4.40249 1.06218C4.41886 1.05194 4.43157 1.03679 4.43879 1.01888C4.44602 1.00098 4.44738 0.981244 4.4427 0.962515L4.2904 0.353328C4.38413 0.344089 4.47817 0.338358 4.57233 0.336149V1.25029C4.46479 1.25371 4.35891 1.26288 4.2547 1.27783C4.23071 1.28127 4.20907 1.2941 4.19453 1.3135C4.18 1.3329 4.17377 1.35728 4.17721 1.38127C4.18065 1.40526 4.19349 1.4269 4.21289 1.44144C4.23228 1.45597 4.25666 1.4622 4.28065 1.45876C4.53473 1.42241 4.79269 1.42241 5.04677 1.45876C5.05865 1.46046 5.07075 1.45981 5.08237 1.45684C5.094 1.45387 5.10493 1.44863 5.11453 1.44144C5.12414 1.43424 5.13223 1.42522 5.13835 1.4149C5.14447 1.40458 5.1485 1.39315 5.15021 1.38127C5.15191 1.36939 5.15126 1.35729 5.14829 1.34566C5.14531 1.33403 5.14008 1.32311 5.13288 1.3135C5.12569 1.3039 5.11667 1.2958 5.10635 1.28968C5.09603 1.28356 5.0846 1.27953 5.07272 1.27783C4.96742 1.26288 4.86139 1.25369 4.75509 1.25029V0.336149C4.84996 0.338423 4.94394 0.344109 5.03702 0.353206L4.88472 0.962515C4.88002 0.981231 4.88137 1.00095 4.88857 1.01886C4.89577 1.03676 4.90846 1.05193 4.92481 1.06218C4.99262 1.10456 5.07097 1.12702 5.15094 1.12699C5.2309 1.12702 5.30926 1.10456 5.37707 1.06218C5.39344 1.05194 5.40615 1.03679 5.41337 1.01888C5.42059 1.00098 5.42196 0.981244 5.41727 0.962515L5.27253 0.383787L5.28837 0.386468C5.31228 0.390459 5.3368 0.384787 5.35653 0.370701C5.37626 0.356614 5.38959 0.335267 5.39358 0.311355C5.39757 0.287443 5.39189 0.262926 5.37781 0.243196C5.36372 0.223466 5.34237 0.210139 5.31846 0.206149C5.13215 0.175314 4.94389 0.157644 4.75509 0.153271V0.091378ZM4.1057 0.933883C4.15177 0.947845 4.20095 0.947845 4.24703 0.933883L4.17636 0.650855L4.1057 0.933883ZM5.15106 0.944239C5.12704 0.9443 5.10315 0.940811 5.08015 0.933883L5.15106 0.650855L5.22172 0.933883C5.19881 0.940787 5.17499 0.944276 5.15106 0.944239Z" fill="url(#paint1_linear_43_69)"/>
<defs>
<linearGradient id="paint0_linear_43_69" x1="1.95366" y1="1.39546" x2="1.95366" y2="5.02368" gradientUnits="userSpaceOnUse">
<stop stop-color="#002B5A"/>
<stop offset="1" stop-color="#005CC0"/>
</linearGradient>
<linearGradient id="paint1_linear_43_69" x1="4.66366" y1="0" x2="4.66366" y2="1.45968" gradientUnits="userSpaceOnUse">
<stop stop-color="#002B5A"/>
<stop offset="1" stop-color="#005CC0"/>
</linearGradient>
</defs>
</svg>
