<svg width="7" height="6" viewBox="0 0 7 6" fill="none" xmlns="http://www.w3.org/2000/svg">
<path d="M2.71688 2.66667H2.18C2.13 2.66667 2.08188 2.68542 2.045 2.71917L1.43062 3.28167C1.43 3.28229 1.42938 3.28354 1.42875 3.28417C1.325 3.38167 1.32687 3.53729 1.41562 3.63417C1.495 3.72104 1.66188 3.74417 1.76625 3.65104C1.76688 3.65042 1.76813 3.65042 1.76875 3.64979L2.26813 3.19229C2.30875 3.15542 2.3725 3.15792 2.40937 3.19854C2.44688 3.23917 2.44375 3.30229 2.40313 3.33979L2.24 3.48917L3.15 4.22792C3.16813 4.24292 3.18438 4.25917 3.19937 4.27604V3.06667L2.85812 2.72542C2.82125 2.68792 2.77 2.66667 2.71688 2.66667ZM3.4 3.06792V4.46729C3.4 4.57792 3.48938 4.66729 3.6 4.66729H4V3.06792H3.4ZM3.7 4.46729C3.645 4.46729 3.6 4.42229 3.6 4.36729C3.6 4.31229 3.645 4.26729 3.7 4.26729C3.755 4.26729 3.8 4.31229 3.8 4.36729C3.8 4.42229 3.755 4.46729 3.7 4.46729ZM0 4.66667H0.4C0.510625 4.66667 0.6 4.57729 0.6 4.46667V3.06792H0V4.66667ZM0.3 4.26729C0.355 4.26729 0.4 4.31229 0.4 4.36729C0.4 4.42229 0.355 4.46729 0.3 4.46729C0.245 4.46729 0.2 4.42229 0.2 4.36729C0.2 4.31167 0.245 4.26729 0.3 4.26729ZM3.02437 4.38354L2.09125 3.62604L1.90375 3.79792C1.71813 3.96729 1.43375 3.95104 1.26812 3.77042C1.1 3.58667 1.11313 3.30229 1.29563 3.13479L1.80688 2.66667H1.28313C1.23 2.66667 1.17938 2.68792 1.14188 2.72542L0.8 3.06667V4.46604H0.914375L1.48 4.97792C1.65125 5.11729 1.90312 5.09104 2.0425 4.91979L2.04375 4.91854L2.15563 5.01542C2.255 5.09667 2.40188 5.08104 2.4825 4.98167L2.67875 4.74042L2.7125 4.76792C2.79813 4.83729 2.92438 4.82479 2.99375 4.73854L3.05313 4.66542C3.12313 4.57917 3.11 4.45354 3.02437 4.38354Z" fill="url(#paint0_linear_44_96)"/>
<path d="M4.70371 2.57407H5.62963M4.61111 1.27778L5.16667 1.18519L5.72222 1.27778M4.61111 1.27778L4.88889 1.83333C4.88889 1.907 4.85963 1.97766 4.80753 2.02975C4.75544 2.08185 4.68478 2.11111 4.61111 2.11111C4.53744 2.11111 4.46679 2.08185 4.4147 2.02975C4.3626 1.97766 4.33334 1.907 4.33334 1.83333L4.61111 1.27778ZM5.72222 1.27778L6 1.83333C6 1.907 5.97074 1.97766 5.91864 2.02975C5.86655 2.08185 5.7959 2.11111 5.72222 2.11111C5.64855 2.11111 5.5779 2.08185 5.52581 2.02975C5.47371 1.97766 5.44445 1.907 5.44445 1.83333L5.72222 1.27778ZM5.16667 1V2.57407" stroke="url(#paint1_linear_44_96)" stroke-width="0.185185" stroke-linecap="round" stroke-linejoin="round"/>
<defs>
<linearGradient id="paint0_linear_44_96" x1="2" y1="2.66667" x2="2" y2="5.06754" gradientUnits="userSpaceOnUse">
<stop stop-color="#002B5A"/>
<stop offset="1" stop-color="#005CC0"/>
</linearGradient>
<linearGradient id="paint1_linear_44_96" x1="5.16667" y1="1" x2="5.16667" y2="2.57407" gradientUnits="userSpaceOnUse">
<stop stop-color="#002B5A"/>
<stop offset="1" stop-color="#005CC0"/>
</linearGradient>
</defs>
</svg>
