<svg width="4" height="3" viewBox="0 0 4 3" fill="none" xmlns="http://www.w3.org/2000/svg">
<path d="M0.0134429 0.844097L0.454645 0.403278L0.390303 0.338073L0.357213 0.370676C0.352961 0.374932 0.347911 0.37831 0.342351 0.380614C0.336791 0.382918 0.330831 0.384104 0.324812 0.384104C0.318793 0.384104 0.312833 0.382918 0.307273 0.380614C0.301713 0.37831 0.296663 0.374932 0.292411 0.370676L0.259781 0.338073C0.25552 0.333825 0.25214 0.328779 0.249834 0.323224C0.247527 0.31767 0.24634 0.311715 0.24634 0.305701C0.24634 0.299687 0.247527 0.293732 0.249834 0.288177C0.25214 0.282622 0.25552 0.277576 0.259781 0.273328L0.519906 0.0134286C0.524158 0.00917182 0.529208 0.00579461 0.534768 0.00349035C0.540327 0.00118608 0.546287 0 0.552307 0C0.558326 0 0.564286 0.00118608 0.569845 0.00349035C0.575405 0.00579461 0.580456 0.00917182 0.584707 0.0134286L0.617338 0.0460309C0.635262 0.0639391 0.635262 0.0928679 0.617338 0.110776L0.584707 0.14246L0.649968 0.208124C0.65422 0.203867 0.659271 0.20049 0.66483 0.198185C0.67039 0.195881 0.67635 0.194695 0.682369 0.194695C0.688388 0.194695 0.694348 0.195881 0.699908 0.198185C0.705468 0.20049 0.710518 0.203867 0.71477 0.208124C0.732694 0.226032 0.732694 0.25542 0.71477 0.273328L0.779571 0.338073L0.812202 0.305471C0.830126 0.287563 0.859539 0.287563 0.877463 0.305471L0.909634 0.338073C0.927558 0.355982 0.927558 0.38537 0.909634 0.403278L0.649968 0.662718C0.632045 0.680627 0.602631 0.680627 0.584707 0.662718L0.552536 0.630575C0.548173 0.626338 0.544704 0.62127 0.542335 0.61567C0.539966 0.61007 0.538745 0.604052 0.538745 0.597973C0.538745 0.591893 0.539966 0.585876 0.542335 0.580276C0.544704 0.574676 0.548173 0.569607 0.552536 0.565371L0.584707 0.532768L0.519906 0.468023L0.0782444 0.909301C0.0739926 0.913558 0.0689423 0.916935 0.0633825 0.91924C0.0578228 0.921544 0.0518628 0.92273 0.0458436 0.92273C0.0398245 0.92273 0.0338645 0.921544 0.0283047 0.91924C0.022745 0.916935 0.0176947 0.913558 0.0134429 0.909301C-0.00448096 0.891393 -0.00448096 0.862005 0.0134429 0.844097ZM0.826909 0.785321C0.851287 0.785321 0.874666 0.794997 0.891904 0.81222C0.909142 0.829442 0.918826 0.852802 0.918826 0.877158V0.923077H0.459241V0.877158C0.459241 0.852802 0.468925 0.829442 0.486162 0.81222C0.5034 0.794997 0.52678 0.785321 0.551158 0.785321H0.826909Z" fill="url(#paint0_linear_43_83)"/>
<path d="M1.38462 2.88462H2.53847M1.26923 1.26923L1.96154 1.15385L2.65385 1.26923M1.26923 1.26923L1.61539 1.96154C1.61539 2.05334 1.57892 2.14139 1.514 2.20631C1.44909 2.27122 1.36104 2.30769 1.26923 2.30769C1.17743 2.30769 1.08938 2.27122 1.02447 2.20631C0.95955 2.14139 0.92308 2.05334 0.92308 1.96154L1.26923 1.26923ZM2.65385 1.26923L3 1.96154C3 2.05334 2.96353 2.14139 2.89862 2.20631C2.8337 2.27122 2.74566 2.30769 2.65385 2.30769C2.56204 2.30769 2.474 2.27122 2.40908 2.20631C2.34417 2.14139 2.3077 2.05334 2.3077 1.96154L2.65385 1.26923ZM1.96154 0.923077V2.88462" stroke="url(#paint1_linear_43_83)" stroke-width="0.230769" stroke-linecap="round" stroke-linejoin="round"/>
<defs>
<linearGradient id="paint0_linear_43_83" x1="0.461538" y1="0" x2="0.461538" y2="0.923077" gradientUnits="userSpaceOnUse">
<stop stop-color="#002B5A"/>
<stop offset="1" stop-color="#005CC0"/>
</linearGradient>
<linearGradient id="paint1_linear_43_83" x1="1.96154" y1="0.923077" x2="1.96154" y2="2.88462" gradientUnits="userSpaceOnUse">
<stop stop-color="#002B5A"/>
<stop offset="1" stop-color="#005CC0"/>
</linearGradient>
</defs>
</svg>
