<svg width="3" height="4" viewBox="0 0 3 4" fill="none" xmlns="http://www.w3.org/2000/svg">
<path d="M1.64648 0C1.77908 2.8317e-05 1.90625 0.0527166 2 0.146484L2.85352 1C2.94727 1.09374 2.99997 1.22094 3 1.35352V3.5C2.99996 3.63255 2.94725 3.75979 2.85352 3.85352C2.75976 3.94723 2.63257 4 2.5 4H0.5C0.36743 4 0.240245 3.94723 0.146484 3.85352C0.052751 3.75979 3.91019e-05 3.63255 0 3.5V0.5C0 0.367399 0.0527181 0.240248 0.146484 0.146484C0.240253 0.0527201 0.367392 0 0.5 0H1.64648ZM1.23145 2C1.21152 2 1.1918 2.00742 1.17773 2.02148L1.0498 2.15039V2.6748H1.09277L1.30469 2.86621C1.36887 2.91845 1.46334 2.90885 1.51562 2.84473H1.5166L1.55859 2.88086C1.59578 2.91104 1.65045 2.90514 1.68066 2.86816L1.75488 2.77734L1.76758 2.78809C1.79968 2.81378 1.84713 2.80859 1.87305 2.77637L1.89453 2.74902C1.92074 2.71668 1.91588 2.66979 1.88379 2.64355L1.53418 2.35938L1.46387 2.42383C1.39431 2.48729 1.28772 2.48164 1.22559 2.41406C1.16254 2.34516 1.16789 2.23859 1.23633 2.17578L1.42773 2H1.23145ZM0.75 2.75H0.900391C0.941695 2.74979 0.974609 2.71616 0.974609 2.6748V2.15039H0.75V2.75ZM2.02539 2.6748C2.02539 2.71616 2.05831 2.74979 2.09961 2.75H2.25V2.15039H2.02539V2.6748ZM0.862305 2.60059C0.88293 2.60059 0.900391 2.61707 0.900391 2.6377C0.900352 2.65829 0.882906 2.6748 0.862305 2.6748C0.841794 2.6747 0.825235 2.65822 0.825195 2.6377C0.825195 2.6169 0.84177 2.60069 0.862305 2.60059ZM2.1377 2.60059C2.15823 2.60069 2.1748 2.61714 2.1748 2.6377C2.17477 2.65822 2.15821 2.6747 2.1377 2.6748C2.11709 2.6748 2.09965 2.65829 2.09961 2.6377C2.09961 2.61707 2.11707 2.60059 2.1377 2.60059ZM1.56738 2C1.54867 2.00003 1.5304 2.0069 1.5166 2.01953L1.28613 2.23047V2.23145C1.24724 2.268 1.24799 2.32598 1.28125 2.3623C1.31097 2.39483 1.37296 2.40387 1.41211 2.36914L1.41309 2.36816L1.60059 2.19727C1.61576 2.18349 1.63947 2.18415 1.65332 2.19922C1.66729 2.21435 1.66632 2.23786 1.65137 2.25195L1.58984 2.30859L1.93164 2.58496C1.93842 2.59058 1.94458 2.5972 1.9502 2.60352V2.15039L1.82227 2.02148C1.80844 2.00742 1.78848 2 1.76855 2H1.56738Z" fill="url(#paint0_linear_44_108)"/>
<defs>
<linearGradient id="paint0_linear_44_108" x1="1.5" y1="0" x2="1.5" y2="4" gradientUnits="userSpaceOnUse">
<stop stop-color="#002B5A"/>
<stop offset="1" stop-color="#005CC0"/>
</linearGradient>
</defs>
</svg>
