<svg width="8" height="6" viewBox="0 0 8 6" fill="none" xmlns="http://www.w3.org/2000/svg">
<path d="M7.14286 0.519481V0.831169L7.57144 0.415584L7.14286 0V0.311688C6.91554 0.311688 6.69752 0.399258 6.53677 0.555132C6.37603 0.711006 6.28572 0.922418 6.28572 1.14286C6.28572 1.30597 6.33501 1.45766 6.41858 1.58545L6.57501 1.43377C6.52556 1.34431 6.49978 1.24435 6.50001 1.14286C6.50001 0.977527 6.56774 0.818969 6.6883 0.702063C6.80885 0.585158 6.97237 0.519481 7.14286 0.519481ZM7.86715 0.70026L7.71072 0.851948C7.75786 0.939221 7.78572 1.03896 7.78572 1.14286C7.78572 1.30819 7.71799 1.46675 7.59743 1.58365C7.47687 1.70056 7.31336 1.76623 7.14286 1.76623V1.45455L6.71429 1.87013L7.14286 2.28571V1.97403C7.37019 1.97403 7.58821 1.88646 7.74896 1.73058C7.9097 1.57471 8.00001 1.3633 8.00001 1.14286C8.00001 0.97974 7.95072 0.828052 7.86715 0.70026Z" fill="url(#paint0_linear_28_308)"/>
<path d="M3.08571 2.40061C3.01161 2.3024 2.88304 2.26222 2.76696 2.30061C2.65089 2.339 2.57143 2.44882 2.57143 2.57204V4.85775C2.57143 5.01579 2.69911 5.14347 2.85714 5.14347C3.01518 5.14347 3.14286 5.01579 3.14286 4.85775V3.42918L3.91429 4.45775C3.96786 4.53007 4.05268 4.57204 4.14286 4.57204C4.23304 4.57204 4.31786 4.53007 4.37143 4.45775L5.14286 3.42918V4.85775C5.14286 5.01579 5.27054 5.14347 5.42857 5.14347C5.58661 5.14347 5.71429 5.01579 5.71429 4.85775V2.57204C5.71429 2.44882 5.63571 2.3399 5.51875 2.30061C5.40179 2.26132 5.27321 2.3015 5.2 2.40061L4.14286 3.81043L3.08571 2.40061ZM0 2.57204C0 2.73007 0.127679 2.85775 0.285714 2.85775H0.857143V4.85775C0.857143 5.01579 0.984821 5.14347 1.14286 5.14347C1.30089 5.14347 1.42857 5.01579 1.42857 4.85775V2.85775H2C2.15804 2.85775 2.28571 2.73007 2.28571 2.57204C2.28571 2.414 2.15804 2.28632 2 2.28632H0.285714C0.127679 2.28632 0 2.414 0 2.57204Z" fill="url(#paint1_linear_28_308)"/>
<defs>
<linearGradient id="paint0_linear_28_308" x1="7.14286" y1="0" x2="7.14286" y2="2.28571" gradientUnits="userSpaceOnUse">
<stop stop-color="#002B5A"/>
<stop offset="1" stop-color="#005CC0"/>
</linearGradient>
<linearGradient id="paint1_linear_28_308" x1="2.85714" y1="2.28572" x2="2.85714" y2="5.14347" gradientUnits="userSpaceOnUse">
<stop stop-color="#002B5A"/>
<stop offset="1" stop-color="#005CC0"/>
</linearGradient>
</defs>
</svg>
