<svg width="7" height="8" viewBox="0 0 7 8" fill="none" xmlns="http://www.w3.org/2000/svg">
<path d="M5.89575 2.02585H5.09988L6.2141 0V1.15763H7.00997L5.89575 3.18347V2.02585Z" fill="url(#paint0_linear_30_357)"/>
<path fill-rule="evenodd" clip-rule="evenodd" d="M2.54996 2.54677C2.59825 2.54677 2.64457 2.56595 2.67872 2.6001C2.71287 2.63425 2.73205 2.68057 2.73205 2.72886V2.91241C3.4787 2.92342 4.22265 3.00471 4.95406 3.1552C4.99835 3.16419 5.03772 3.18934 5.06451 3.22575C5.09129 3.26216 5.10358 3.30723 5.09897 3.35219C5.09437 3.39716 5.07321 3.4388 5.03961 3.46903C5.006 3.49926 4.96235 3.51591 4.91715 3.51574H4.45148L5.05214 5.97374C5.06177 6.01301 5.05805 6.05438 5.04156 6.09131C5.02507 6.12823 4.99677 6.15862 4.9611 6.17768C4.72362 6.30499 4.45824 6.37132 4.18879 6.3707C3.91934 6.37132 3.65395 6.30499 3.41647 6.17768C3.38081 6.15862 3.3525 6.12823 3.33601 6.09131C3.31953 6.05438 3.3158 6.01301 3.32543 5.97374L3.92609 3.51574H2.73205V6.73998C3.04598 6.75843 3.34728 6.82326 3.62964 6.92838C3.66968 6.94327 3.70322 6.97176 3.72438 7.00886C3.74554 7.04597 3.75298 7.08934 3.7454 7.13138C3.73782 7.17342 3.7157 7.21145 3.68291 7.23883C3.65012 7.26621 3.60875 7.28119 3.56603 7.28116H1.53389C1.49117 7.28119 1.4498 7.26621 1.41701 7.23883C1.38422 7.21145 1.3621 7.17342 1.35452 7.13138C1.34694 7.08934 1.35438 7.04597 1.37554 7.00886C1.3967 6.97176 1.43024 6.94327 1.47028 6.92838C1.7524 6.82326 2.05394 6.75843 2.36787 6.74022V3.5155H1.17383L1.77449 5.97349C1.78412 6.01277 1.78039 6.05414 1.76391 6.09106C1.74742 6.12799 1.71911 6.15838 1.68345 6.17744C1.44599 6.30483 1.1806 6.37124 0.911134 6.3707C0.641684 6.37132 0.3763 6.30499 0.138822 6.17768C0.103154 6.15862 0.0748453 6.12823 0.05836 6.09131C0.0418746 6.05438 0.0381508 6.01301 0.0477758 5.97374L0.648436 3.51574H0.182767C0.137567 3.51591 0.0939206 3.49926 0.0603157 3.46903C0.0267107 3.4388 0.00554934 3.39716 0.00094687 3.35219C-0.0036556 3.30723 0.00862984 3.26216 0.035414 3.22575C0.0621982 3.18934 0.101566 3.16419 0.145863 3.1552C0.87727 3.00471 1.62122 2.92342 2.36787 2.91241V2.72886C2.36787 2.68057 2.38705 2.63425 2.4212 2.6001C2.45535 2.56595 2.50167 2.54677 2.54996 2.54677ZM3.73429 5.83486L4.18879 3.97461L4.64329 5.83486H3.73429ZM1.36564 5.83486L0.911134 3.97461L0.456633 5.83486H1.36564Z" fill="url(#paint1_linear_30_357)"/>
<defs>
<linearGradient id="paint0_linear_30_357" x1="6.05493" y1="0" x2="6.05493" y2="3.18347" gradientUnits="userSpaceOnUse">
<stop stop-color="#002B5A"/>
<stop offset="1" stop-color="#005CC0"/>
</linearGradient>
<linearGradient id="paint1_linear_30_357" x1="2.54996" y1="2.54677" x2="2.54996" y2="7.28116" gradientUnits="userSpaceOnUse">
<stop stop-color="#002B5A"/>
<stop offset="1" stop-color="#005CC0"/>
</linearGradient>
</defs>
</svg>
