<svg width="6" height="6" viewBox="0 0 6 6" fill="none" xmlns="http://www.w3.org/2000/svg">
<path fill-rule="evenodd" clip-rule="evenodd" d="M4.82986 1.59874L4.81617 1.63295C4.57144 1.71468 4.30678 1.71468 4.06205 1.63295L4.04837 1.59874C4.03537 1.56727 4.02881 1.5514 4.01745 1.5369C4.00623 1.52226 3.98653 1.50748 3.94713 1.47807C3.80916 1.37477 3.70721 1.23066 3.65572 1.06618C3.60423 0.901698 3.60581 0.72518 3.66024 0.561647C3.71468 0.398114 3.8192 0.255862 3.95899 0.155055C4.09879 0.0542481 4.26676 0 4.43911 0C4.61146 0 4.77944 0.0542481 4.91923 0.155055C5.05903 0.255862 5.16355 0.398114 5.21798 0.561647C5.27242 0.72518 5.274 0.901698 5.22251 1.06618C5.17102 1.23066 5.06906 1.37477 4.9311 1.47807C4.8917 1.50748 4.87199 1.52226 4.86078 1.5369C4.84956 1.55154 4.84299 1.56714 4.82986 1.59874ZM4.14496 1.93805C4.15682 2.0103 4.16357 2.08317 4.16521 2.15669C4.16535 2.16641 4.16814 2.1759 4.17327 2.18414C4.17841 2.19239 4.1857 2.19908 4.19435 2.20349C4.27035 2.24149 4.35415 2.26127 4.43911 2.26127C4.52408 2.26127 4.60788 2.24149 4.68387 2.20349C4.69253 2.19908 4.69982 2.19239 4.70496 2.18414C4.71009 2.1759 4.71288 2.16641 4.71302 2.15669C4.71466 2.08317 4.72141 2.0103 4.73326 1.93805C4.53918 1.97787 4.33904 1.97787 4.14496 1.93805Z" fill="url(#paint0_linear_29_346)"/>
<path d="M3.61816 1.80946V3.18836C3.61816 3.76126 3.44745 4.28251 3.10645 4.75184C2.76549 5.22108 2.33347 5.52237 1.80957 5.65418C1.28571 5.52227 0.852878 5.22112 0.511719 4.75184C0.170549 4.2825 -0.00015066 3.76112 9.97739e-08 3.18836V1.80946L1.80957 1.13074L3.61816 1.80946Z" fill="url(#paint1_linear_29_346)"/>
<defs>
<linearGradient id="paint0_linear_29_346" x1="4.43911" y1="0" x2="4.43911" y2="2.26127" gradientUnits="userSpaceOnUse">
<stop stop-color="#002B5A"/>
<stop offset="1" stop-color="#005CC0"/>
</linearGradient>
<linearGradient id="paint1_linear_29_346" x1="1.80908" y1="1.13074" x2="1.80908" y2="5.65418" gradientUnits="userSpaceOnUse">
<stop stop-color="#002B5A"/>
<stop offset="1" stop-color="#005CC0"/>
</linearGradient>
</defs>
</svg>
