<svg width="5" height="5" viewBox="0 0 5 5" fill="none" xmlns="http://www.w3.org/2000/svg">
<path d="M3.82607 0.684783H3.53259C3.50664 0.684783 3.48176 0.695089 3.46341 0.713435C3.44507 0.731781 3.43476 0.756664 3.43476 0.782609C3.43476 0.808554 3.44507 0.833436 3.46341 0.851782C3.48176 0.870128 3.50664 0.880435 3.53259 0.880435H3.5815V1.17391C3.5815 1.19986 3.59181 1.22474 3.61015 1.24309C3.6285 1.26143 3.65338 1.27174 3.67933 1.27174C3.70527 1.27174 3.73015 1.26143 3.7485 1.24309C3.76685 1.22474 3.77715 1.19986 3.77715 1.17391V0.880435H3.82607C3.85201 0.880435 3.87689 0.870128 3.89524 0.851782C3.91359 0.833436 3.92389 0.808554 3.92389 0.782609C3.92389 0.756664 3.91359 0.731781 3.89524 0.713435C3.87689 0.695089 3.85201 0.684783 3.82607 0.684783ZM4.54802 0.692609C4.53021 0.685117 4.51057 0.68307 4.4916 0.686727C4.47262 0.690383 4.45515 0.699578 4.44139 0.713152L4.3152 0.840326L4.189 0.713152C4.17524 0.699578 4.15778 0.690383 4.1388 0.686727C4.11982 0.68307 4.10019 0.685117 4.08237 0.692609C4.06451 0.699948 4.04921 0.71241 4.03842 0.728427C4.02763 0.744443 4.02181 0.763295 4.02172 0.782609V1.17391C4.02172 1.19986 4.03203 1.22474 4.05037 1.24309C4.06872 1.26143 4.0936 1.27174 4.11954 1.27174C4.14549 1.27174 4.17037 1.26143 4.18872 1.24309C4.20706 1.22474 4.21737 1.19986 4.21737 1.17391V1.01837L4.24574 1.04772C4.25483 1.05689 4.26565 1.06416 4.27758 1.06913C4.2895 1.0741 4.30228 1.07665 4.3152 1.07665C4.32811 1.07665 4.3409 1.0741 4.35282 1.06913C4.36474 1.06416 4.37556 1.05689 4.38465 1.04772L4.41302 1.01837V1.17391C4.41302 1.19986 4.42333 1.22474 4.44168 1.24309C4.46002 1.26143 4.4849 1.27174 4.51085 1.27174C4.53679 1.27174 4.56168 1.26143 4.58002 1.24309C4.59837 1.22474 4.60867 1.19986 4.60867 1.17391V0.782609C4.60858 0.763295 4.60277 0.744443 4.59197 0.728427C4.58118 0.71241 4.56589 0.699948 4.54802 0.692609ZM4.02172 0C3.82824 0 3.6391 0.057374 3.47823 0.164867C3.31735 0.272359 3.19197 0.425143 3.11792 0.603897C3.04388 0.78265 3.02451 0.979346 3.06225 1.16911C3.1 1.35887 3.19317 1.53318 3.32998 1.67C3.4668 1.80681 3.64111 1.89998 3.83087 1.93772C4.02063 1.97547 4.21733 1.9561 4.39608 1.88206C4.57484 1.80801 4.72762 1.68263 4.83511 1.52175C4.94261 1.36088 4.99998 1.17174 4.99998 0.978261C4.99998 0.849794 4.97468 0.722585 4.92551 0.603897C4.87635 0.485209 4.80429 0.377366 4.71345 0.286526C4.62261 0.195686 4.51477 0.123628 4.39608 0.0744657C4.27739 0.0253035 4.15019 0 4.02172 0ZM4.02172 1.76087C3.86693 1.76087 3.71562 1.71497 3.58692 1.62898C3.45822 1.54298 3.35792 1.42076 3.29868 1.27775C3.23945 1.13475 3.22395 0.977393 3.25415 0.825581C3.28434 0.67377 3.35888 0.534323 3.46833 0.424873C3.57778 0.315423 3.71723 0.240887 3.86904 0.21069C4.02085 0.180493 4.17821 0.195991 4.32121 0.255225C4.46421 0.314459 4.58644 0.414767 4.67243 0.543467C4.75843 0.672166 4.80433 0.823475 4.80433 0.978261C4.80433 1.18582 4.72187 1.38488 4.57511 1.53165C4.42834 1.67842 4.22928 1.76087 4.02172 1.76087Z" fill="url(#paint0_linear_28_314)"/>
<path fill-rule="evenodd" clip-rule="evenodd" d="M3.04348 2.91414C3.04348 3.44308 2.61283 3.8719 2.08176 3.8719C1.98498 3.8719 1.76433 3.84968 1.65705 3.76051L1.52284 3.89412C1.44386 3.97279 1.46517 3.99592 1.50032 4.03396C1.51492 4.04994 1.53197 4.06835 1.54521 4.09468C1.54521 4.09468 1.65705 4.2505 1.54521 4.40647C1.4781 4.49549 1.29017 4.62012 1.07561 4.40647L1.03087 4.45091C1.03087 4.45091 1.16493 4.60688 1.05324 4.76286C0.986132 4.85188 0.80718 4.9409 0.650597 4.78507L0.494165 4.9409C0.386733 5.04787 0.255562 4.98548 0.20352 4.9409L0.0691532 4.80729C-0.0560831 4.68251 0.0169587 4.54738 0.0691532 4.49534L1.23204 3.33732C1.23204 3.33732 1.12019 3.15928 1.12019 2.91429C1.12019 2.38534 1.55084 1.95653 2.08191 1.95653C2.61299 1.95653 3.04348 2.38534 3.04348 2.91414ZM2.08191 3.2483C2.17067 3.24847 2.25587 3.21337 2.31876 3.15073C2.38165 3.0881 2.41709 3.00305 2.4173 2.91429C2.41722 2.87033 2.40848 2.82681 2.39158 2.78622C2.37468 2.74564 2.34996 2.70878 2.31881 2.67775C2.28767 2.64672 2.25072 2.62212 2.21007 2.60537C2.16942 2.58862 2.12588 2.58004 2.08191 2.58012C2.03795 2.58004 1.9944 2.58862 1.95375 2.60537C1.91311 2.62212 1.87616 2.64672 1.84501 2.67775C1.81387 2.70878 1.78914 2.74564 1.77224 2.78622C1.75535 2.82681 1.74661 2.87033 1.74653 2.91429C1.74673 3.00305 1.78217 3.0881 1.84507 3.15073C1.90796 3.21337 1.99315 3.24847 2.08191 3.2483Z" fill="url(#paint1_linear_28_314)"/>
<defs>
<linearGradient id="paint0_linear_28_314" x1="4.02172" y1="0" x2="4.02172" y2="1.95652" gradientUnits="userSpaceOnUse">
<stop stop-color="#002B5A"/>
<stop offset="1" stop-color="#005CC0"/>
</linearGradient>
<linearGradient id="paint1_linear_28_314" x1="1.52174" y1="1.95653" x2="1.52174" y2="4.99997" gradientUnits="userSpaceOnUse">
<stop stop-color="#002B5A"/>
<stop offset="1" stop-color="#005CC0"/>
</linearGradient>
</defs>
</svg>
