<svg width="4" height="6" viewBox="0 0 4 6" fill="none" xmlns="http://www.w3.org/2000/svg">
<path d="M2.19531 0C2.37211 3.77583e-05 2.542 0.0702796 2.66699 0.195312L3.80469 1.33301C3.92972 1.458 3.99996 1.62789 4 1.80469V4.66699C3.99991 4.84361 3.92953 5.01276 3.80469 5.1377C3.67966 5.26272 3.50982 5.33301 3.33301 5.33301H0.666992C0.490181 5.33301 0.320337 5.26272 0.195312 5.1377C0.0704667 5.01276 8.60305e-05 4.84361 0 4.66699V0.666992C0 0.490181 0.0702882 0.320337 0.195312 0.195312C0.320337 0.0702882 0.490181 0 0.666992 0H2.19531ZM2.5 2.66699C1.85611 2.66699 1.33318 3.18916 1.33301 3.83301C1.33301 4.47701 1.856 5 2.5 5C3.144 5 3.66699 4.47701 3.66699 3.83301C3.66682 3.18916 3.14389 2.66699 2.5 2.66699ZM2.5 2.90039C3.01439 2.90039 3.43342 3.31866 3.43359 3.83301C3.43359 4.34751 3.0145 4.7666 2.5 4.7666C1.9855 4.7666 1.56641 4.34751 1.56641 3.83301C1.56658 3.31866 1.98561 2.90039 2.5 2.90039ZM2.48242 3.32129C2.40671 3.3213 2.34012 3.33359 2.28418 3.36035C2.22835 3.3871 2.18181 3.42247 2.14453 3.46777C2.1072 3.51327 2.07902 3.56629 2.06152 3.62695C2.04403 3.6876 2.0332 3.75072 2.0332 3.81836V3.84961C2.0332 3.91728 2.04305 3.98035 2.06055 4.04102C2.078 4.10147 2.10542 4.15401 2.14258 4.19824C2.17991 4.24258 2.2272 4.27902 2.2832 4.30469C2.33917 4.3303 2.40569 4.34473 2.48145 4.34473C2.53624 4.34471 2.58794 4.33487 2.63574 4.31738C2.68341 4.29989 2.72565 4.27555 2.76172 4.24414C2.79772 4.21276 2.8267 4.17656 2.84766 4.13477C2.86866 4.09277 2.88165 4.04783 2.88281 4H2.67383C2.67267 4.02437 2.66665 4.04648 2.65625 4.06738C2.64578 4.08832 2.63168 4.10596 2.61426 4.12109C2.59679 4.13624 2.57699 4.14809 2.55371 4.15625C2.53154 4.16442 2.5079 4.1668 2.4834 4.16797C2.4416 4.16678 2.40664 4.15899 2.37988 4.1416C2.35074 4.12295 2.32688 4.09847 2.31055 4.06934C2.29429 4.0403 2.28224 4.0051 2.27637 3.9668C2.27053 3.9283 2.2666 3.88811 2.2666 3.84961V3.81836C2.2666 3.77753 2.27053 3.7387 2.27637 3.7002C2.28221 3.66179 2.29425 3.62774 2.31055 3.59863C2.32688 3.56947 2.35072 3.54503 2.37988 3.52637C2.40787 3.50891 2.44321 3.50117 2.48633 3.5C2.51303 3.50119 2.5375 3.50536 2.55957 3.51465C2.58285 3.52512 2.6038 3.5392 2.62012 3.55664C2.63645 3.57414 2.64966 3.59581 2.66016 3.61914C2.67049 3.64234 2.67462 3.66788 2.67578 3.69336H2.88477C2.88244 3.6386 2.87232 3.58842 2.85254 3.54297C2.83271 3.49747 2.80551 3.45747 2.77051 3.4248C2.73554 3.39222 2.69345 3.36629 2.64453 3.34766C2.59559 3.32905 2.54183 3.32129 2.48242 3.32129Z" fill="url(#paint0_linear_28_320)"/>
<defs>
<linearGradient id="paint0_linear_28_320" x1="2" y1="0" x2="2" y2="5.33301" gradientUnits="userSpaceOnUse">
<stop stop-color="#002B5A"/>
<stop offset="1" stop-color="#005CC0"/>
</linearGradient>
</defs>
</svg>
