<svg width="4" height="5" viewBox="0 0 4 5" fill="none" xmlns="http://www.w3.org/2000/svg">
<path d="M4 0.75V2.27539C3.99992 2.90847 3.81138 3.48427 3.43457 4.00293C3.05757 4.52176 2.57933 4.85433 2 5C1.42083 4.85417 0.942596 4.52176 0.56543 4.00293C0.188379 3.48422 -8.90325e-05 2.90837 3.15517e-08 2.27539V0.75L2 0L4 0.75ZM2.40234 3.6875C2.15827 3.73755 1.90618 3.73756 1.66211 3.6875C1.67702 3.77836 1.68641 3.87042 1.68848 3.96289C1.68871 3.97499 1.69184 3.9868 1.69824 3.99707C1.7047 4.00742 1.71374 4.01595 1.72461 4.02148C1.82011 4.06924 1.92545 4.09371 2.03223 4.09375C2.1391 4.09375 2.24523 4.06928 2.34082 4.02148C2.35156 4.01594 2.36079 4.00734 2.36719 3.99707C2.37353 3.98683 2.37672 3.97493 2.37695 3.96289C2.37902 3.87042 2.38743 3.77836 2.40234 3.6875ZM2.03223 1.25C1.81555 1.25006 1.60447 1.31858 1.42871 1.44531C1.253 1.57204 1.12122 1.75052 1.05273 1.95605C0.984293 2.16166 0.98218 2.38401 1.04688 2.59082C1.11164 2.7977 1.24053 2.97945 1.41406 3.10938C1.46305 3.14594 1.48784 3.16437 1.50195 3.18262C1.51623 3.20085 1.52468 3.2212 1.54102 3.26074L1.55859 3.30371C1.86633 3.40642 2.19911 3.40648 2.50684 3.30371L2.52441 3.26074C2.54088 3.22113 2.54841 3.201 2.5625 3.18262C2.57661 3.16425 2.60196 3.14626 2.65137 3.10938C2.8249 2.97945 2.95281 2.7977 3.01758 2.59082C3.08232 2.38396 3.08018 2.16171 3.01172 1.95605C2.94326 1.7507 2.81225 1.57199 2.63672 1.44531C2.46089 1.31852 2.249 1.25 2.03223 1.25Z" fill="url(#paint0_linear_29_345)"/>
<defs>
<linearGradient id="paint0_linear_29_345" x1="2" y1="0" x2="2" y2="5" gradientUnits="userSpaceOnUse">
<stop stop-color="#002B5A"/>
<stop offset="1" stop-color="#005CC0"/>
</linearGradient>
</defs>
</svg>
