<svg width="6" height="6" viewBox="0 0 6 6" fill="none" xmlns="http://www.w3.org/2000/svg">
<path d="M0.592593 5.51851C0.42963 5.51851 0.290173 5.46054 0.174222 5.34459C0.0582716 5.22864 0.000197531 5.08908 0 4.92592V1.37036C0 1.2074 0.0580741 1.06794 0.174222 0.951993C0.29037 0.836043 0.429827 0.777969 0.592593 0.777771H2.37037L2.96296 1.37036H5.33333C5.4963 1.37036 5.63585 1.42844 5.752 1.54459C5.86815 1.66073 5.92612 1.80019 5.92593 1.96296V4.92592C5.92593 5.08888 5.86795 5.22844 5.752 5.34459C5.63605 5.46073 5.49649 5.51871 5.33333 5.51851H0.592593Z" fill="url(#paint0_linear_29_348)"/>
<defs>
<linearGradient id="paint0_linear_29_348" x1="2.96296" y1="0.777771" x2="2.96296" y2="5.51851" gradientUnits="userSpaceOnUse">
<stop stop-color="#002B5A"/>
<stop offset="1" stop-color="#005CC0"/>
</linearGradient>
</defs>
</svg>
